<?xml version="1.0" standalone="no"?>
<!DOCTYPE svg PUBLIC "-//W3C//DTD SVG 20010904//EN"
 "http://www.w3.org/TR/2001/REC-SVG-20010904/DTD/svg10.dtd">
<svg version="1.0" xmlns="http://www.w3.org/2000/svg"
 width="100px" height="100px" viewBox="0 0 416.000000 416.000000"
 preserveAspectRatio="xMidYMid meet">

<g transform="translate(0.000000,416.000000) scale(0.100000,-0.100000)"
fill="red" stroke="none">
<path d="M1730 4153 c1 -5 33 -246 73 -538 68 -496 72 -530 55 -533 -10 -2
-430 15 -934 38 -503 24 -918 40 -921 36 -4 -3 -4 -9 0 -12 3 -4 430 -26 949
-50 519 -24 945 -44 948 -44 3 0 -28 250 -70 555 -54 401 -78 555 -87 555 -7
0 -13 -3 -13 -7z"/>
<path d="M1830 4153 c1 -31 150 -1096 154 -1100 8 -8 2166 -106 2174 -99 3 3
3 9 -1 12 -3 3 -488 28 -1078 55 -589 27 -1074 50 -1076 52 -2 2 -35 238 -73
523 -39 285 -73 529 -76 542 -4 20 -24 32 -24 15z"/>
<path d="M0 3050 c0 -5 10 -10 23 -10 132 -3 1207 -57 1211 -61 5 -5 -280
-1689 -286 -1694 -2 -1 -214 -29 -471 -63 -258 -33 -471 -63 -474 -66 -4 -3
-4 -9 0 -12 6 -6 957 113 965 121 5 4 302 1738 299 1741 -3 2 -1176 54 -1224
54 -24 0 -43 -4 -43 -10z"/>
<path d="M1340 2993 c0 -5 -66 -392 -146 -861 -80 -469 -145 -855 -143 -856 6
-5 1590 202 1597 208 5 5 -95 1457 -101 1462 -3 3 -1122 54 -1169 54 -21 0
-38 -3 -38 -7z"/>
<path d="M2626 2878 c3 -35 27 -359 53 -720 26 -362 50 -660 52 -663 3 -2 325
37 717 88 529 68 712 95 712 105 0 9 -10 11 -32 7 -27 -4 -740 -97 -1241 -161
-70 -9 -130 -14 -134 -11 -7 8 -107 1386 -100 1393 4 5 1254 -49 1425 -61 64
-5 82 -3 82 7 0 11 -147 20 -737 46 -406 18 -752 33 -770 32 l-32 0 5 -62z"/>
<path d="M3535 1521 l-580 -76 -122 -705 c-67 -388 -122 -713 -123 -722 0 -17
41 -18 725 -18 l725 0 0 800 0 800 -22 -1 c-13 -1 -284 -35 -603 -78z"/>
<path d="M1902 1310 c-534 -70 -974 -129 -976 -131 -5 -5 230 -1168 238 -1176
3 -4 9 -3 13 0 3 4 -46 264 -110 579 -63 315 -114 574 -112 576 1 2 310 43
686 92 376 49 801 104 944 123 143 18 261 33 262 32 1 0 -22 -140 -52 -310
-155 -897 -187 -1086 -181 -1092 3 -4 9 -3 13 0 6 6 255 1430 250 1432 -1 1
-440 -56 -975 -125z"/>
<path d="M403 1116 c-216 -29 -396 -55 -399 -59 -4 -4 -5 -9 -2 -12 3 -3 190
18 417 47 l410 54 11 -51 c5 -27 57 -283 114 -568 57 -285 106 -520 110 -524
3 -3 9 -3 13 0 5 6 -117 629 -219 1120 -9 42 -12 47 -36 46 -15 -1 -203 -25
-419 -53z"/>
</g>
</svg>
