<svg version="1.0" xmlns="http://www.w3.org/2000/svg" width="260px" height="387px" viewBox="0 0 960.000000 1280.000000" preserveAspectRatio="xMidYMid meet">
                        <g transform="translate(0.000000,1280.000000) scale(0.100000,-0.100000)" fill="#000000" stroke="none">
                            <path d="M4229 12520 c-8 -5 -50 -11 -93 -13 -42 -2 -82 -9 -88 -15 -7 -7 -26
                            -12 -44 -12 -19 0 -34 -6 -38 -15 -3 -8 -4 -15 -2 -15 2 0 23 7 46 15 23 8 49
                            15 56 15 14 0 20 -29 7 -31 -45 -4 -68 -10 -82 -22 -22 -19 -119 -53 -127 -44
                            -4 4 -1 13 6 22 17 21 2 18 -50 -10 -27 -14 -38 -24 -27 -25 24 0 17 -22 -11
                            -35 -12 -5 -22 -15 -22 -22 0 -16 -115 -85 -137 -82 -37 4 -80 -25 -143 -97
                            -36 -41 -71 -81 -78 -89 -8 -9 -22 -13 -35 -10 -25 6 -77 -35 -77 -61 0 -8 -4
                            -12 -10 -9 -6 3 -7 -1 -4 -9 3 -9 2 -16 -4 -16 -16 0 -71 -61 -66 -74 5 -13
                            -39 -66 -54 -66 -15 0 -52 -59 -46 -74 4 -10 -18 -39 -64 -83 -38 -37 -77 -83
                            -86 -101 -9 -18 -26 -42 -37 -53 -23 -23 -25 -39 -4 -39 8 0 15 -5 15 -12 0
                            -15 -107 -205 -120 -213 -5 -3 -14 -24 -20 -45 -6 -22 -15 -40 -19 -40 -5 0
                            -12 -12 -16 -27 -8 -34 -53 -113 -63 -112 -22 4 -31 -5 -46 -41 -21 -54 -20
                            -70 5 -41 11 13 22 21 25 18 7 -7 -69 -183 -94 -218 l-17 -24 -6 35 -5 35 -14
                            -45 c-7 -25 -12 -49 -11 -54 5 -19 -62 -177 -85 -201 -13 -14 -31 -49 -40 -78
                            -9 -28 -21 -63 -27 -77 -24 -58 -76 -224 -72 -229 7 -6 9 -2 26 43 14 38 42
                            66 54 54 6 -6 -26 -108 -51 -165 -10 -21 -11 -39 -5 -55 9 -24 -6 -48 -30 -48
                            -6 0 -9 -8 -6 -20 3 -10 -5 -36 -16 -57 -12 -21 -22 -55 -23 -75 -1 -21 -2
                            -51 -3 -68 0 -16 -10 -38 -21 -48 -11 -10 -24 -38 -29 -63 -5 -24 -16 -70 -25
                            -102 -9 -32 -16 -61 -16 -65 0 -4 -4 -1 -8 5 -5 7 -14 -31 -21 -90 -11 -93
                            -22 -142 -68 -307 -8 -30 -20 -72 -25 -93 -8 -29 -15 -37 -28 -34 -15 4 -18
                            -7 -23 -87 -3 -50 -12 -111 -20 -136 -8 -25 -31 -103 -52 -175 -20 -71 -47
                            -161 -60 -200 -13 -38 -33 -106 -44 -150 -11 -44 -36 -127 -56 -185 -33 -96
                            -53 -169 -114 -420 -12 -47 -30 -116 -41 -155 -11 -38 -20 -83 -20 -99 0 -16
                            -4 -43 -10 -60 -5 -17 -18 -87 -29 -156 -11 -69 -29 -172 -40 -230 -11 -58
                            -26 -148 -33 -200 -12 -90 -14 -95 -38 -99 -23 -3 -24 -4 -5 -12 19 -7 19 -8
                            -2 -8 -13 -1 -23 4 -23 10 0 8 -4 8 -12 2 -7 -6 -56 -13 -108 -16 -103 -7
                            -230 -31 -239 -46 -3 -5 -33 -14 -65 -20 -68 -12 -166 -55 -166 -71 0 -6 -5
                            -8 -10 -5 -6 3 -10 1 -10 -5 0 -7 -7 -10 -15 -6 -19 7 -144 -50 -165 -75 -6
                            -7 -49 -31 -97 -53 -17 -9 -34 -20 -38 -26 -3 -5 -14 -10 -25 -10 -10 0 -20
                            -6 -23 -14 -3 -8 -24 -20 -46 -27 -39 -13 -77 -44 -215 -172 -36 -33 -72 -57
                            -84 -57 -12 0 -22 -5 -22 -11 0 -6 -14 -22 -30 -36 l-30 -25 0 -2929 0 -2929
                            3964 0 3964 0 38 78 c103 216 151 360 240 727 115 472 189 709 239 765 26 29
                            117 312 155 485 47 209 120 725 120 840 0 34 4 65 8 71 10 11 -2 423 -18 624
                            -12 157 -29 276 -54 383 -20 86 -101 253 -161 332 -25 33 -57 78 -72 100 -51
                            75 -178 198 -259 250 -44 29 -87 59 -95 66 -8 8 -26 20 -41 26 -15 7 -35 19
                            -45 28 -75 64 -152 123 -156 119 -3 -3 -11 4 -17 16 -6 12 -20 30 -31 41 -10
                            10 -19 24 -19 29 0 6 -6 10 -14 10 -8 0 -27 13 -43 29 -30 29 -92 67 -105 63
                            -5 -1 -8 2 -8 8 0 5 -21 21 -47 36 -91 51 -144 87 -181 120 -20 19 -47 37 -59
                            40 -13 3 -23 9 -23 13 0 3 -16 17 -35 30 -19 13 -35 29 -35 36 0 6 -11 22 -25
                            35 -14 13 -25 28 -25 34 0 6 -23 36 -50 66 -28 30 -48 47 -44 37 6 -16 2 -15
                            -32 4 -22 13 -55 34 -74 48 -19 14 -43 31 -54 36 -10 6 -29 39 -42 74 -22 59
                            -24 81 -5 81 11 0 64 -78 77 -115 6 -16 19 -32 30 -33 10 -2 31 -16 47 -30 37
                            -36 34 -23 -12 43 -22 31 -43 70 -46 86 -4 16 -11 29 -16 29 -5 0 -9 7 -9 16
                            0 9 -11 27 -24 39 -36 33 -69 153 -66 240 2 75 -9 135 -25 135 -15 0 -20 13
                            -30 79 -26 165 -29 295 -9 402 9 51 17 104 17 117 -1 26 13 30 16 5 1 -10 2
                            -103 2 -208 1 -104 5 -197 10 -205 5 -9 9 54 11 160 2 234 3 249 17 365 22
                            182 24 205 13 205 -5 0 -13 -8 -16 -17 -3 -10 -13 -29 -21 -43 -12 -21 -15
                            -22 -21 -7 -3 10 -2 30 4 45 5 15 15 61 22 102 6 41 16 94 21 117 5 23 9 63 9
                            88 0 30 4 44 11 40 6 -4 8 -28 4 -63 -4 -40 -3 -52 4 -41 24 37 41 113 45 197
                            4 75 2 91 -11 96 -12 5 -14 15 -8 54 4 26 13 64 20 84 8 23 9 40 3 46 -5 5
                            -14 38 -19 73 -28 208 -29 220 -19 239 6 11 16 17 25 14 19 -8 19 18 0 71 -17
                            47 -20 221 -6 323 5 37 15 121 22 187 7 66 16 122 20 125 4 3 3 29 -1 57 -9
                            54 -12 159 -11 323 1 99 -18 311 -44 490 -9 58 -20 135 -25 173 -6 37 -10 98
                            -10 135 0 38 -9 95 -20 132 -11 36 -23 86 -26 112 -4 26 -10 45 -14 43 -9 -6
                            -23 25 -15 33 3 3 5 0 5 -6 0 -7 5 -12 11 -12 14 0 2 142 -13 151 -5 3 -9 10
                            -9 15 0 5 -3 25 -8 44 -5 19 -14 67 -21 105 -7 39 -16 75 -20 80 -4 6 -16 39
                            -25 75 -10 36 -24 75 -31 87 -8 12 -14 29 -14 38 0 29 -43 141 -92 240 -28 55
                            -60 118 -71 140 -11 22 -25 45 -32 50 -7 6 -29 38 -49 70 -48 79 -112 169
                            -180 255 -20 25 -43 59 -50 76 -8 17 -22 36 -30 44 -9 7 -16 19 -16 26 0 8 -6
                            14 -13 14 -8 0 -24 11 -37 25 -13 14 -29 25 -35 25 -7 0 -20 9 -30 20 -10 11
                            -24 20 -32 20 -7 0 -13 5 -13 11 0 16 -78 46 -124 48 -14 1 -16 4 -7 15 9 11
                            4 17 -25 31 -19 9 -38 14 -41 12 -8 -9 -81 33 -89 51 -4 9 -7 20 -6 23 1 4
                            -10 9 -23 12 -28 5 -34 -7 -9 -17 8 -3 12 -11 8 -17 -5 -8 -9 -7 -14 2 -6 9
                            -16 5 -37 -17 -16 -16 -33 -38 -38 -49 -8 -16 -10 -10 -13 29 -2 27 2 54 7 59
                            13 13 15 77 2 77 -5 0 -14 -7 -21 -15 -7 -8 -27 -15 -45 -15 -28 0 -35 5 -43
                            29 -6 16 -8 38 -6 48 4 15 -1 19 -27 18 -26 0 -33 -4 -34 -22 -1 -15 5 -23 21
                            -27 12 -3 24 -14 26 -24 5 -17 2 -18 -33 -8 -22 5 -39 16 -39 23 0 7 -5 13
                            -12 13 -6 0 -4 7 5 18 10 10 14 22 10 25 -3 4 1 7 10 7 21 0 21 7 1 28 -15 14
                            -18 14 -28 1 -12 -16 -86 -15 -86 1 0 5 14 7 30 5 17 -2 30 0 30 5 0 6 -11 10
                            -24 10 -16 0 -27 7 -31 20 -3 11 -13 20 -22 20 -8 0 -17 -9 -20 -20 -6 -22
                            -14 -25 -29 -10 -8 8 -15 6 -24 -5 -7 -8 -20 -15 -29 -15 -9 0 -21 -8 -28 -19
                            -11 -18 -54 -27 -176 -37 -46 -3 -49 -2 -60 26 -14 36 -42 42 -31 8 3 -13 11
                            -24 15 -26 5 -2 9 -10 9 -18 0 -8 9 -24 20 -36 11 -12 18 -23 16 -25 -6 -6
                            -62 50 -75 74 -6 12 -23 24 -38 28 -41 10 -83 43 -76 60 4 11 -2 15 -20 15
                            -27 0 -117 47 -117 61 0 5 11 9 25 9 14 0 25 -4 25 -8 0 -4 12 -9 27 -10 16
                            -1 23 1 18 7 -14 12 -98 31 -138 31 -19 0 -55 11 -80 24 -25 14 -63 28 -84 32
                            -21 4 -43 10 -48 15 -6 4 -20 8 -30 7 -11 -1 -29 1 -40 5 -11 3 -27 2 -36 -3z
                            m21 -30 c32 -2 33 -2 10 -9 -81 -25 -171 -18 -130 9 8 6 31 8 50 5 19 -2 51
                            -5 70 -5z m75 -30 c3 -5 1 -10 -4 -10 -6 0 -11 5 -11 10 0 6 2 10 4 10 3 0 8
                            -4 11 -10z m-185 -34 c0 -2 -8 -10 -17 -17 -16 -13 -17 -12 -4 4 13 16 21 21
                            21 13z m-50 -16 c0 -5 -10 -10 -22 -9 -22 0 -22 1 -3 9 11 5 21 9 23 9 1 1 2
                            -3 2 -9z m360 -20 c0 -5 -4 -10 -10 -10 -5 0 -10 5 -10 10 0 6 5 10 10 10 6 0
                            10 -4 10 -10z m68 -31 c41 -30 47 -49 15 -49 -13 0 -10 -7 12 -30 16 -16 26
                            -33 22 -36 -4 -4 -41 9 -82 30 -42 20 -80 36 -84 36 -12 0 -46 40 -35 41 10 2
                            7 2 62 -5 41 -5 42 -4 36 20 -8 32 3 30 54 -7z m210 -65 c13 -13 27 -24 32
                            -24 6 0 10 -9 10 -20 0 -11 -4 -20 -10 -20 -5 0 -10 7 -10 15 0 9 -6 12 -15 9
                            -8 -4 -15 -1 -15 5 0 6 -5 11 -12 11 -14 0 -58 40 -58 53 0 16 54 -3 78 -29z
                            m-269 -46 c12 -9 21 -23 19 -32 -3 -14 -6 -14 -33 0 -27 14 -30 14 -42 -2 -19
                            -25 -28 -9 -14 24 13 32 34 35 70 10z m858 6 c-3 -3 -12 -4 -19 -1 -8 3 -5 6
                            6 6 11 1 17 -2 13 -5z m-467 -74 c6 -11 18 -20 26 -20 8 0 12 -4 9 -10 -10
                            -16 -41 -12 -56 7 -12 15 -12 16 1 8 12 -6 13 -5 3 6 -15 16 -17 29 -3 29 5 0
                            14 -9 20 -20z m203 -84 c14 -21 14 -25 2 -30 -21 -8 -46 3 -72 31 -27 28 -29
                            37 -8 30 8 -4 17 -2 20 3 9 14 39 -4 58 -34z m47 -46 c0 -11 -7 -20 -15 -20
                            -27 0 -18 30 13 39 1 1 2 -8 2 -19z m507 -22 c-3 -8 -6 -5 -6 6 -1 11 2 17 5
                            13 3 -3 4 -12 1 -19z m-1139 -24 c-4 -3 -12 5 -18 18 -12 22 -12 22 6 6 10
                            -10 15 -20 12 -24z m-8 -84 c0 -5 -7 -10 -16 -10 -8 0 -12 5 -9 10 3 6 10 10
                            16 10 5 0 9 -4 9 -10z m791 -23 c-11 -27 -31 -45 -31 -27 0 12 33 60 38 55 1
                            -1 -2 -14 -7 -28z m-731 -19 c0 -11 -18 -10 -25 2 -4 6 -11 8 -16 5 -5 -4 -9
                            1 -9 9 0 13 4 14 25 4 14 -6 25 -15 25 -20z m1117 26 c-3 -3 -12 -4 -19 -1 -8
                            3 -5 6 6 6 11 1 17 -2 13 -5z m333 -4 c0 -5 -2 -10 -4 -10 -3 0 -8 5 -11 10
                            -3 6 -1 10 4 10 6 0 11 -4 11 -10z m-530 -27 c0 -16 -45 -53 -64 -52 -12 0
                            -15 3 -8 6 6 2 10 9 7 14 -4 5 1 6 9 3 9 -3 17 2 21 15 6 19 35 31 35 14z
                            m627 -48 c14 -44 -1 -47 -16 -4 -13 38 -13 39 -3 39 5 0 13 -16 19 -35z
                            m-1452 -20 l18 -30 -24 20 c-13 11 -26 21 -28 22 -1 1 0 7 4 13 4 6 8 10 9 8
                            1 -2 10 -16 21 -33z m653 15 c-14 -22 -24 -19 -15 5 4 8 11 15 17 15 6 0 6 -7
                            -2 -20z m32 -40 c0 -5 -5 -10 -11 -10 -5 0 -7 5 -4 10 3 6 8 10 11 10 2 0 4
                            -4 4 -10z m653 -41 c12 -7 44 -30 71 -53 28 -23 54 -41 60 -41 5 0 11 -6 14
                            -12 2 -7 0 -13 -5 -13 -10 0 -86 50 -94 63 -3 5 -10 9 -15 9 -16 0 -63 31 -68
                            45 -7 16 8 17 37 2z m-114 -113 c20 -9 95 -76 86 -76 -2 0 17 -21 41 -46 25
                            -25 43 -48 40 -51 -11 -12 -116 49 -150 87 -20 22 -43 40 -51 40 -9 0 -15 9
                            -15 24 0 13 -10 30 -22 39 -22 15 -21 15 12 5 19 -6 46 -16 59 -22z m221 -20
                            c0 -2 3 -11 6 -20 7 -18 -12 -21 -35 -7 -16 10 -6 31 15 31 8 0 14 -2 14 -4z
                            m-100 -57 c0 -6 -4 -7 -10 -4 -5 3 -10 11 -10 16 0 6 5 7 10 4 6 -3 10 -11 10
                            -16z m-2978 -29 c-12 -12 -22 -26 -22 -32 0 -6 -2 -9 -5 -6 -4 3 -3 17 1 32 4
                            18 13 26 27 26 21 0 21 0 -1 -20z m2230 -45 c-3 -16 -11 -25 -23 -25 -21 0
                            -25 20 -7 38 20 20 36 14 30 -13z m45 -27 c-3 -8 -6 -5 -6 6 -1 11 2 17 5 13
                            3 -3 4 -12 1 -19z m49 -17 c15 13 17 9 8 -15 -5 -13 -9 -14 -20 -5 -8 6 -14
                            17 -13 23 0 6 3 6 6 -2 4 -10 8 -10 19 -1z m-57 -55 c-24 -41 -33 -42 -23 -2
                            3 14 12 26 20 26 8 0 14 5 14 12 0 6 2 9 5 6 3 -3 -4 -22 -16 -42z m874 -33
                            c95 -86 121 -113 107 -113 -13 0 -150 123 -150 135 0 11 13 4 43 -22z m-255
                            -131 c2 -7 -2 -10 -12 -6 -9 3 -16 11 -16 16 0 13 23 5 28 -10z m231 -48 c60
                            -67 52 -89 -9 -24 -27 29 -50 57 -50 62 0 18 20 6 59 -38z m-202 0 c-9 -9 -28
                            6 -21 18 4 6 10 6 17 -1 6 -6 8 -13 4 -17z m43 -54 c6 -11 8 -20 6 -20 -3 0
                            -10 9 -16 20 -6 11 -8 20 -6 20 3 0 10 -9 16 -20z m150 -18 c0 -15 -2 -15 -10
                            -2 -13 20 -13 33 0 25 6 -3 10 -14 10 -23z m-210 -20 c0 -15 -2 -15 -10 -2
                            -13 20 -13 33 0 25 6 -3 10 -14 10 -23z m139 -69 c8 -15 8 -23 1 -23 -5 0 -10
                            5 -10 10 0 6 -6 10 -13 10 -11 0 -37 52 -37 74 0 10 44 -43 59 -71z m-69 -8
                            c0 -24 -15 -10 -39 36 l-22 42 30 -31 c17 -17 31 -38 31 -47z m-225 12 l18
                            -32 -32 29 c-32 31 -41 49 -18 40 7 -2 21 -19 32 -37z m-2155 3 c0 -5 -4 -10
                            -9 -10 -6 0 -13 5 -16 10 -3 6 1 10 9 10 9 0 16 -4 16 -10z m2520 -46 c0 -8
                            -5 -12 -10 -9 -6 4 -8 11 -5 16 9 14 15 11 15 -7z m-80 -46 c0 -10 -3 -18 -7
                            -18 -14 0 -43 34 -43 52 0 18 1 18 25 1 13 -10 25 -26 25 -35z m44 36 c3 -9 6
                            -22 6 -31 0 -12 -3 -11 -17 3 -10 9 -18 23 -19 30 -3 19 23 17 30 -2z m-274
                            -24 c11 -11 20 -24 20 -28 0 -13 76 -83 83 -76 7 7 32 -45 29 -59 -1 -4 9 -13
                            23 -19 14 -6 25 -19 25 -29 0 -10 9 -42 20 -71 l20 -53 -22 26 c-13 14 -30 36
                            -38 48 -17 25 -30 27 -30 6 0 -8 -6 -15 -12 -15 -19 1 -60 97 -52 122 4 14 2
                            18 -5 14 -6 -4 -11 0 -11 8 0 9 -4 16 -10 16 -5 0 -10 8 -10 18 0 9 -14 35
                            -30 56 -41 54 -41 77 0 36z m102 -69 c2 -11 -1 -21 -7 -23 -5 -2 -11 7 -13 20
                            -2 12 -7 20 -11 17 -7 -4 -8 24 -2 45 2 10 31 -39 33 -59z m247 30 c18 -12 0
                            -21 -28 -14 -17 4 -19 8 -9 14 16 11 20 11 37 0z m-1266 -21 c-3 -11 -9 -23
                            -14 -26 -10 -6 -12 29 -2 39 13 13 21 7 16 -13z m807 0 c0 -5 -5 -10 -11 -10
                            -5 0 -7 5 -4 10 3 6 8 10 11 10 2 0 4 -4 4 -10z m290 -34 c0 -8 11 -23 24 -33
                            16 -11 27 -33 32 -58 l7 -40 -22 19 c-11 11 -21 24 -21 30 0 7 -9 29 -20 51
                            -23 46 -23 45 -10 45 6 0 10 -6 10 -14z m-1110 -41 c0 -9 -9 -15 -21 -15 -18
                            0 -19 2 -9 15 7 8 16 15 21 15 5 0 9 -7 9 -15z m-2020 -41 c0 -8 -11 -19 -24
                            -24 -18 -6 -23 -14 -19 -28 2 -11 0 -23 -6 -26 -15 -10 -33 3 -24 17 4 7 8 18
                            9 26 3 19 45 61 55 55 5 -3 9 -12 9 -20z m2857 4 c-3 -8 -6 -5 -6 6 -1 11 2
                            17 5 13 3 -3 4 -12 1 -19z m-947 2 c0 -5 -2 -10 -4 -10 -3 0 -8 5 -11 10 -3 6
                            -1 10 4 10 6 0 11 -4 11 -10z m20 -29 c0 -5 8 -12 19 -16 13 -4 17 -12 13 -30
                            -4 -21 -10 -25 -38 -25 -37 0 -43 12 -18 38 12 12 13 17 4 20 -6 2 -17 -1 -23
                            -7 -13 -13 -27 -14 -27 -3 0 5 12 13 28 19 36 14 42 15 42 4z m1049 -96 c23
                            -50 28 -80 9 -69 -7 4 -8 3 -4 -4 4 -7 14 -12 22 -12 8 0 14 -1 14 -3 0 -1 4
                            -17 9 -35 14 -47 -16 -43 -53 8 -25 33 -32 37 -44 27 -12 -10 -14 -9 -10 3 3
                            8 -10 37 -29 64 -36 53 -41 68 -18 60 8 -4 15 -13 15 -21 0 -9 6 -13 15 -9 9
                            3 25 -6 40 -22 14 -15 25 -22 25 -16 0 5 -4 14 -9 20 -12 13 -24 67 -13 60 6
                            -3 19 -26 31 -51z m-3049 28 c0 -7 -69 -73 -76 -73 -12 0 0 23 26 50 27 28 50
                            39 50 23z m140 -22 c0 -5 -6 -14 -14 -20 -12 -10 -13 -8 -9 8 5 21 23 30 23
                            12z m2006 -12 c19 -22 19 -22 -8 -15 -31 7 -78 -11 -78 -31 0 -7 9 -13 20 -13
                            11 0 23 -6 26 -14 4 -10 14 -12 41 -5 29 6 39 4 50 -9 19 -25 16 -30 -19 -34
                            l-32 -3 42 -44 c35 -37 42 -41 42 -24 0 12 6 23 14 26 17 7 46 -23 46 -45 0
                            -9 7 -18 15 -22 28 -10 17 -36 -15 -36 -16 0 -30 -3 -30 -8 0 -14 38 -31 59
                            -25 14 4 21 1 21 -9 0 -8 9 -33 20 -56 11 -22 20 -48 20 -57 0 -12 6 -15 21
                            -10 18 6 20 4 14 -16 -6 -18 -4 -21 9 -16 10 4 15 3 12 -2 -3 -4 8 -20 23 -35
                            16 -16 32 -44 36 -63 3 -20 16 -44 28 -54 12 -10 17 -18 11 -19 -17 0 -25 -40
                            -9 -40 7 0 21 -26 31 -57 9 -32 21 -63 25 -69 5 -6 9 -24 11 -41 1 -21 6 -29
                            15 -26 9 4 13 -7 13 -37 0 -33 3 -41 15 -36 17 6 21 -19 4 -30 -7 -4 -7 -10
                            -1 -16 5 -5 7 -27 5 -49 -4 -27 -2 -39 6 -39 8 0 11 11 9 27 -2 14 2 28 9 30
                            8 3 10 -6 6 -31 -4 -28 -2 -37 11 -42 15 -6 15 -8 -4 -21 -11 -8 -17 -19 -13
                            -26 4 -7 9 -4 14 9 5 12 8 -4 8 -43 1 -34 5 -64 10 -68 5 -3 7 -21 4 -40 -5
                            -33 10 -51 20 -22 2 6 7 -9 11 -35 4 -25 13 -49 21 -51 9 -4 13 -23 13 -59 0
                            -29 1 -57 2 -63 6 -25 -1 -56 -11 -49 -7 4 -10 -4 -8 -24 3 -22 -4 -38 -21
                            -57 -14 -15 -25 -32 -26 -38 0 -7 -2 -20 -2 -29 -3 -25 -15 -22 -34 9 -15 26
                            -16 26 -22 5 -4 -12 -16 -22 -26 -22 -26 0 -34 -18 -18 -37 12 -15 11 -15 -9
                            -2 -27 16 -41 5 -25 -21 16 -25 15 -30 -3 -30 -8 0 -15 5 -15 11 0 15 -163 7
                            -183 -9 -8 -7 -22 -10 -30 -6 -10 3 -21 -2 -29 -15 -16 -27 -32 -27 -25 -1 5
                            19 4 19 -32 3 -20 -8 -46 -18 -59 -21 -13 -2 -26 -11 -29 -18 -3 -8 -10 -14
                            -16 -14 -7 0 -30 -8 -53 -17 -32 -13 -45 -27 -62 -64 -27 -58 -27 -69 -2 -69
                            11 0 20 5 20 10 0 6 7 10 15 10 8 0 15 -5 15 -12 0 -6 9 -2 20 9 10 12 33 24
                            50 28 16 4 30 12 30 18 0 7 15 18 33 25 17 7 40 18 49 23 24 12 40 11 36 -2
                            -2 -6 -8 -10 -13 -9 -14 2 -24 -33 -13 -47 7 -9 20 -4 50 16 23 16 49 26 60
                            24 10 -3 20 1 24 11 5 12 10 14 19 6 9 -7 27 -7 61 0 27 6 72 13 99 16 28 2
                            67 7 87 10 30 5 38 2 48 -15 12 -23 36 -28 43 -8 2 6 2 -1 -1 -17 -3 -20 -1
                            -26 8 -21 8 5 11 1 8 -11 -2 -11 -10 -18 -16 -16 -7 1 -12 -4 -12 -11 0 -14
                            -6 -15 -95 -21 -73 -4 -182 -24 -206 -36 -10 -6 -25 -10 -35 -10 -32 0 -159
                            -69 -201 -109 -34 -32 -43 -48 -43 -74 0 -18 6 -39 12 -45 9 -9 10 -17 1 -30
                            -6 -10 -14 -37 -18 -60 -6 -37 -5 -42 12 -42 11 0 26 11 33 24 7 14 22 26 33
                            28 20 3 25 10 49 63 10 22 20 29 36 28 13 -2 22 3 22 11 0 8 12 21 26 31 15 9
                            23 12 20 6 -4 -6 0 -14 8 -17 11 -4 16 -19 16 -43 0 -68 20 -112 75 -168 48
                            -48 58 -53 97 -53 55 0 116 17 147 41 26 21 38 18 52 -14 5 -12 14 -29 20 -38
                            17 -23 3 -66 -24 -75 -12 -5 -25 -7 -28 -6 -4 0 -24 -14 -44 -33 l-39 -34 -29
                            25 c-16 14 -36 23 -44 20 -8 -4 -24 -6 -36 -6 -21 -1 -77 -66 -77 -90 0 -12
                            84 -24 118 -15 15 3 50 10 77 14 28 5 46 9 42 10 -5 0 -5 6 -2 11 5 8 11 8 20
                            0 10 -8 17 -5 30 12 15 21 17 22 26 5 8 -14 14 -15 31 -6 11 6 35 8 53 5 40
                            -8 44 -2 52 64 11 97 43 102 86 15 29 -61 39 -66 54 -32 12 24 9 28 50 -73 8
                            -19 18 -43 23 -52 13 -24 12 -56 -1 -60 -7 -2 -9 -13 -5 -26 4 -13 12 -19 18
                            -16 7 4 8 2 4 -5 -5 -7 5 -25 23 -43 17 -18 31 -42 31 -55 0 -12 11 -53 25
                            -89 44 -118 96 -367 102 -494 5 -122 2 -141 -46 -285 -52 -158 -72 -219 -81
                            -256 -5 -19 -16 -49 -25 -65 -17 -32 -20 -64 -6 -64 5 0 18 16 30 36 13 22 26
                            33 34 28 9 -5 9 -4 0 6 -16 17 2 51 22 44 13 -6 20 11 16 38 -1 7 28 78 32 78
                            5 0 -5 -86 -12 -105 -5 -11 -17 -40 -27 -65 -10 -25 -29 -63 -43 -85 -14 -22
                            -34 -56 -44 -75 -29 -53 -57 -66 -57 -27 0 13 -5 28 -11 34 -7 7 -4 26 10 64
                            12 30 21 66 21 81 0 14 3 28 8 30 7 3 42 117 46 154 1 12 10 29 19 39 20 19
                            21 31 6 40 -6 4 -17 -1 -24 -11 -13 -17 -16 -17 -25 -4 -9 12 -10 12 -7 -5 2
                            -11 -3 -32 -10 -47 -8 -17 -9 -28 -3 -28 19 0 10 -18 -11 -23 -15 -4 -20 -11
                            -15 -23 4 -9 0 -24 -7 -33 -8 -9 -25 -47 -37 -85 -27 -81 -87 -189 -101 -181
                            -5 4 -9 -3 -9 -14 0 -11 -4 -23 -10 -26 -5 -3 -10 -14 -10 -24 0 -10 -6 -24
                            -13 -30 -8 -6 -14 -28 -15 -48 -4 -101 -95 -274 -194 -370 -36 -33 -86 -94
                            -114 -135 -62 -93 -226 -256 -299 -297 -90 -51 -127 -59 -260 -55 -156 4 -318
                            45 -397 100 -59 41 -88 68 -88 83 0 5 -11 32 -25 59 -14 28 -25 52 -25 55 0 3
                            20 17 45 31 25 15 45 31 45 37 0 6 4 8 9 5 9 -6 102 24 111 35 3 3 23 8 46 11
                            23 3 56 12 75 21 19 8 70 20 114 26 121 19 153 30 174 65 18 28 19 32 4 49 -9
                            9 -21 16 -27 14 -12 -4 -36 17 -36 31 0 6 11 20 25 33 13 13 25 31 25 40 0 16
                            48 64 65 64 6 0 11 10 13 23 2 12 10 22 17 22 7 0 15 10 17 23 2 12 9 21 16
                            20 22 -5 12 15 -20 41 -35 27 -45 24 -51 -11 -2 -13 -7 -26 -12 -30 -4 -5 -5
                            -3 -1 4 4 7 -2 17 -14 23 -23 13 -36 -6 -27 -40 4 -15 0 -20 -14 -20 -13 0
                            -17 5 -12 16 5 14 1 15 -25 10 -18 -3 -45 -9 -61 -12 -16 -3 -32 -11 -35 -19
                            -3 -8 -13 -11 -25 -8 -12 3 -29 -1 -38 -8 -13 -11 -17 -11 -20 -1 -3 6 -9 12
                            -14 12 -4 0 -6 -7 -3 -15 4 -9 0 -15 -10 -15 -9 0 -16 3 -16 8 0 4 -18 6 -40
                            4 -49 -5 -53 13 -7 32 77 34 146 57 158 54 14 -3 28 1 158 42 70 22 121 26
                            121 10 0 -5 7 -10 16 -10 8 0 13 4 9 10 -6 10 27 34 65 45 14 5 39 18 55 30
                            17 12 51 30 78 40 47 18 62 35 30 35 -10 0 -37 -9 -60 -20 -64 -29 -136 -38
                            -258 -34 -113 5 -124 6 -186 18 -34 7 -139 -17 -139 -33 0 -12 -173 -11 -188
                            1 -17 14 -45 25 -144 58 -72 23 -78 32 -54 78 19 38 31 132 17 132 -8 0 -6 10
                            4 30 20 38 19 51 -2 44 -13 -4 -11 0 6 15 13 12 37 21 55 21 18 0 37 5 44 12
                            9 9 12 9 12 -3 0 -11 12 -16 41 -18 26 -1 38 2 34 9 -3 5 -15 10 -26 10 -10 0
                            -19 7 -19 15 0 9 9 15 21 15 18 0 19 2 5 15 -20 20 -79 45 -107 45 -12 0 -36
                            9 -53 19 -42 26 -190 170 -205 199 -12 22 -51 31 -51 11 0 -6 -9 -9 -20 -6
                            -15 4 -20 0 -20 -14 0 -10 -7 -19 -15 -19 -9 0 -15 -9 -15 -24 0 -14 -4 -27
                            -9 -31 -5 -3 -7 -20 -5 -38 4 -21 -2 -46 -15 -72 -16 -32 -20 -35 -21 -17 0
                            34 -13 26 -32 -19 -13 -31 -22 -40 -34 -35 -13 5 -15 0 -10 -27 5 -24 4 -27
                            -3 -12 -10 19 -10 19 -17 -2 -3 -13 -10 -23 -15 -23 -5 0 -9 -11 -9 -24 0 -21
                            -6 -24 -51 -29 -30 -4 -60 -2 -71 4 -11 6 -30 8 -43 5 -19 -5 -22 -3 -18 14 4
                            14 0 20 -11 20 -9 0 -16 7 -16 16 0 9 -9 18 -20 21 -11 3 -20 13 -20 23 0 11
                            -10 20 -24 24 -14 3 -27 14 -30 24 -3 9 -36 49 -73 87 -63 66 -112 137 -149
                            215 -9 19 -25 55 -37 80 -11 25 -24 53 -29 63 -5 10 -6 22 -3 27 3 5 1 11 -5
                            15 -6 4 -10 39 -10 78 -1 40 -1 80 -1 90 0 10 -5 31 -10 45 -6 15 -13 65 -15
                            112 -6 97 -5 100 80 145 44 24 54 25 139 19 155 -10 239 -3 264 22 9 9 23 12
                            35 8 14 -4 18 -2 14 5 -5 7 3 11 20 11 15 0 24 3 21 7 -7 6 17 22 61 43 27 12
                            24 36 -4 32 -10 -1 -44 -6 -74 -11 -30 -4 -59 -9 -65 -11 -23 -6 -37 1 -31 15
                            3 8 1 15 -3 15 -5 0 -11 -5 -13 -12 -4 -11 -17 -8 -48 11 -8 6 -36 13 -62 16
                            -29 4 -56 15 -73 31 -20 18 -34 24 -51 20 -12 -3 -26 -2 -29 4 -3 5 -1 10 4
                            10 6 0 11 9 11 20 0 17 7 20 45 20 25 0 45 4 45 9 0 4 12 6 28 4 l27 -4 -27
                            18 c-32 20 -34 26 -13 43 10 8 15 9 15 2 0 -6 20 -25 44 -42 117 -80 270 -29
                            307 102 17 61 32 75 61 59 29 -16 108 -115 108 -135 0 -11 10 -16 30 -16 20 0
                            30 5 30 15 0 24 26 17 38 -9 6 -13 20 -27 31 -31 12 -3 21 -11 21 -16 0 -5 5
                            -9 11 -9 5 0 7 5 4 10 -9 15 8 12 31 -5 16 -12 17 -14 3 -15 -21 0 -30 -22
                            -18 -41 5 -8 6 -21 4 -29 -2 -8 0 -22 5 -30 7 -11 11 -8 20 15 8 21 8 31 1 33
                            -17 6 -13 32 5 32 15 0 16 10 9 88 -9 113 -9 114 -22 137 -6 11 -14 35 -18 54
                            -7 35 -82 124 -97 115 -5 -3 -7 -2 -6 3 4 12 -34 53 -49 53 -7 0 -13 5 -13 10
                            0 6 -3 9 -7 8 -10 -3 -58 45 -66 67 -4 9 -11 13 -17 10 -5 -3 -7 0 -4 8 3 8
                            -8 28 -25 45 -17 17 -31 36 -31 42 0 16 -83 51 -94 40 -13 -13 -46 -13 -46 -1
                            0 5 6 12 13 15 6 3 0 4 -15 1 -21 -4 -26 -2 -22 9 7 19 -16 32 -27 15 -6 -10
                            -9 -11 -9 -1 0 7 -13 12 -29 12 -17 0 -32 4 -36 9 -3 5 -20 7 -39 4 -22 -3
                            -42 0 -58 11 -21 14 -36 15 -94 6 -87 -12 -104 -13 -86 -1 10 6 10 10 -3 21
                            -13 11 -20 11 -42 -1 -21 -11 -27 -11 -30 -1 -3 6 -13 12 -24 12 -10 0 -19 5
                            -19 10 0 6 -8 10 -18 10 -10 0 -24 10 -31 23 -6 12 -25 30 -41 39 -31 18 -40
                            43 -17 51 9 3 9 7 -1 19 -7 9 -9 19 -4 22 9 6 7 78 -4 129 -3 16 -1 27 5 27
                            11 0 15 -12 12 -40 -1 -10 2 -9 10 4 9 15 9 24 0 39 -7 10 -14 47 -16 80 -1
                            34 -8 63 -14 65 -6 2 -11 8 -11 13 0 6 4 8 9 5 11 -7 20 14 13 32 -3 10 -7 11
                            -12 2 -4 -6 -10 19 -14 56 -4 42 -3 71 3 77 7 7 7 15 0 24 -7 7 -9 13 -5 13 3
                            0 1 11 -4 24 -12 32 -1 40 20 14 l17 -21 6 22 c3 13 -1 28 -11 37 -15 15 -14
                            16 5 10 27 -8 41 23 19 40 -23 16 -20 26 5 19 19 -6 21 -4 15 19 -5 22 -3 26
                            14 26 11 0 20 7 20 15 0 8 4 15 10 15 5 0 8 12 7 28 -1 17 3 26 11 24 6 -1 12
                            4 12 10 0 7 9 24 19 37 10 14 17 31 14 38 -3 7 11 28 30 47 19 18 44 53 55 77
                            20 45 102 140 138 162 11 7 35 21 54 32 18 11 52 36 74 55 23 19 50 40 61 47
                            11 6 19 16 18 22 -2 6 1 11 6 11 5 0 7 9 4 20 -4 16 -2 19 12 14 12 -5 24 2
                            41 22 15 19 23 24 24 14 0 -9 3 -11 8 -5 4 6 24 18 45 27 20 10 37 23 37 29 0
                            6 16 9 40 8 21 -2 42 0 46 4 4 4 22 7 39 7 18 0 38 7 46 16 7 9 22 14 35 11
                            32 -6 54 10 34 23 -13 9 -13 11 -1 19 8 5 19 7 26 5 6 -3 18 2 25 11 7 8 20
                            15 29 15 9 0 22 5 29 12 7 7 12 8 12 2 0 -5 -5 -15 -12 -22 -9 -9 -8 -12 5
                            -12 9 0 17 7 17 15 0 8 9 15 19 15 11 0 21 5 23 12 3 8 31 12 79 13 42 1 82 5
                            89 10 8 5 32 10 55 11 48 2 86 16 104 38 11 13 15 14 35 1 13 -8 26 -12 29 -8
                            4 3 7 1 7 -5 0 -22 19 -12 22 11 2 17 11 23 43 27 22 3 46 9 53 14 7 4 28 10
                            45 13 18 3 34 7 36 9 10 10 29 2 47 -17z m89 11 c3 -5 -1 -10 -10 -10 -9 0
                            -13 5 -10 10 3 6 8 10 10 10 2 0 7 -4 10 -10z m1083 -17 c1 -27 1 -27 -13 -9
                            -14 18 -12 25 10 36 0 0 2 -12 3 -27z m-425 -79 c-3 -8 0 -14 6 -14 7 0 16 10
                            20 23 9 21 9 21 20 -8 6 -16 18 -42 26 -57 8 -14 15 -37 15 -50 0 -21 -3 -20
                            -35 15 -19 21 -33 43 -29 48 3 5 2 8 -3 7 -14 -5 -53 41 -53 64 0 20 1 20 19
                            4 11 -10 17 -24 14 -32z m-2898 -14 c3 -5 1 -10 -4 -10 -6 0 -11 5 -11 10 0 6
                            2 10 4 10 3 0 8 -4 11 -10z m-37 -40 c-13 -20 -28 -27 -28 -12 0 10 22 32 32
                            32 5 0 3 -9 -4 -20z m3111 -103 c1 -15 -24 17 -37 46 -23 52 -12 62 13 12 13
                            -27 24 -54 24 -58z m41 64 c0 -6 -4 -13 -10 -16 -5 -3 -10 1 -10 9 0 9 5 16
                            10 16 6 0 10 -4 10 -9z m-173 -44 c10 4 14 2 10 -4 -6 -10 28 -64 45 -71 4 -2
                            4 -10 1 -18 -8 -22 -41 -17 -54 9 -7 12 -23 31 -36 43 -24 20 -24 22 -7 39 11
                            10 20 13 22 7 2 -6 10 -8 19 -5z m203 -9 c0 -13 -32 -6 -37 9 -3 7 3 9 16 6
                            12 -3 21 -10 21 -15z m-3416 -50 l-8 -43 -7 40 c-4 26 -3 42 4 47 18 11 20 3
                            11 -44z m1342 38 c21 -21 17 -27 -11 -16 -14 5 -25 7 -25 4 0 -3 -5 -2 -10 1
                            -6 4 -8 11 -5 16 9 13 34 11 51 -5z m2097 -64 c27 -58 37 -95 14 -56 -28 48
                            -57 104 -57 109 0 20 19 -4 43 -53z m65 -9 c5 -10 12 -30 16 -45 9 -37 -20
                            -39 -34 -2 -20 50 -4 90 18 47z m-3532 -50 c-10 -10 -19 5 -10 18 6 11 8 11
                            12 0 2 -7 1 -15 -2 -18z m3326 15 c8 -7 18 -21 21 -30 9 -26 -21 -23 -43 4
                            -26 33 -11 52 22 26z m-3336 -70 c0 -24 -4 -46 -10 -50 -5 -4 -10 -22 -11 -40
                            -2 -42 -26 -98 -42 -98 -16 0 -26 17 -13 25 5 3 10 15 10 26 0 11 7 22 15 25
                            10 4 12 11 6 22 -9 18 -7 30 15 79 8 17 14 36 14 42 0 6 3 11 8 11 4 0 8 -19
                            8 -42z m3374 -48 c0 -11 4 -20 10 -20 5 0 7 -7 4 -15 -4 -9 -1 -15 7 -15 16 0
                            43 -55 35 -68 -3 -5 3 -18 12 -28 20 -22 62 -127 61 -152 0 -12 -4 -9 -12 8
                            -6 14 -17 29 -24 33 -7 4 -13 13 -13 19 0 7 -9 30 -20 52 -11 23 -21 52 -22
                            66 -2 14 -9 30 -16 35 -19 15 -72 127 -65 138 8 13 43 -29 43 -53z m-70 -128
                            c0 -15 -2 -15 -10 -2 -13 20 -13 33 0 25 6 -3 10 -14 10 -23z m33 -117 c9 -18
                            9 -19 -6 -6 -10 7 -17 23 -16 35 0 14 2 16 6 6 3 -8 10 -24 16 -35z m-3423
                            -79 c-8 -8 -13 -7 -20 4 -6 10 -3 20 8 31 16 15 17 14 20 -4 2 -10 -1 -24 -8
                            -31z m3135 -25 c3 -16 13 -35 21 -41 7 -7 12 -16 9 -20 -3 -5 0 -21 7 -37 6
                            -15 12 -30 12 -33 1 -3 5 -11 9 -17 5 -7 10 -35 12 -62 1 -26 8 -59 14 -72 12
                            -23 11 -23 -3 -5 -15 19 -16 18 -16 -20 0 -29 3 -35 10 -24 15 23 12 -23 -5
                            -95 -8 -33 -15 -73 -15 -90 1 -29 1 -29 15 -11 14 19 15 18 15 -11 0 -26 -3
                            -30 -20 -26 -11 3 -20 12 -20 19 0 8 -7 14 -15 14 -8 0 -15 5 -15 10 0 6 4 9
                            9 8 5 -2 9 2 9 7 0 6 -4 9 -9 8 -14 -4 -10 14 6 31 13 13 14 19 3 37 -10 17
                            -10 23 0 26 13 5 17 33 4 33 -4 0 -13 -5 -20 -12 -9 -9 -13 -8 -16 3 -15 42
                            -22 98 -14 124 4 17 6 39 4 50 -3 11 1 38 9 60 20 56 19 93 -2 91 -18 -1 -34
                            42 -26 74 7 26 20 17 28 -19z m475 -31 c0 -13 -1 -13 -10 0 -5 8 -10 22 -10
                            30 0 13 1 13 10 0 5 -8 10 -22 10 -30z m-333 -22 c-3 -7 -5 -2 -5 12 0 14 2
                            19 5 13 2 -7 2 -19 0 -25z m-2834 2 c-3 -11 -9 -17 -14 -15 -10 7 -1 35 11 35
                            5 0 6 -9 3 -20z m2607 -1 c0 -6 -4 -7 -10 -4 -5 3 -10 11 -10 16 0 6 5 7 10 4
                            6 -3 10 -11 10 -16z m84 -54 c-4 -8 -8 -15 -10 -15 -2 0 -4 7 -4 15 0 8 4 15
                            10 15 5 0 7 -7 4 -15z m-3225 -77 c-8 -16 -14 -19 -17 -9 -2 7 2 24 9 39 11
                            19 15 21 17 9 2 -9 -2 -26 -9 -39z m3726 7 c6 -29 6 -29 -9 -11 -9 11 -16 29
                            -16 40 0 28 17 8 25 -29z m-555 5 c0 -5 -4 -10 -10 -10 -5 0 -10 5 -10 10 0 6
                            5 10 10 10 6 0 10 -4 10 -10z m-2590 -76 c0 -14 -4 -23 -9 -20 -5 3 -7 15 -4
                            26 7 28 13 25 13 -6z m2967 -6 c-3 -8 -6 -5 -6 6 -1 11 2 17 5 13 3 -3 4 -12
                            1 -19z m-2830 -36 c-3 -14 -6 -12 -14 8 -6 14 -8 29 -5 34 7 13 24 -22 19 -42z
                            m133 28 c0 -5 -7 -10 -16 -10 -8 0 -12 5 -9 10 3 6 10 10 16 10 5 0 9 -4 9
                            -10z m-143 -112 c-3 -8 -6 -5 -6 6 -1 11 2 17 5 13 3 -3 4 -12 1 -19z m-7 -52
                            c0 -45 -9 -66 -27 -66 -14 0 -14 23 3 78 10 33 24 27 24 -12z m2590 -156 c0
                            -5 -5 -10 -11 -10 -5 0 -7 5 -4 10 3 6 8 10 11 10 2 0 4 -4 4 -10z m-3409
                            -243 c-13 -13 -15 11 -4 40 7 16 8 15 11 -6 2 -13 -1 -28 -7 -34z m3585 -51
                            c5 -22 4 -28 -7 -24 -8 2 -15 20 -17 39 -4 40 13 30 24 -15z m-3618 -88 c-5
                            -40 -10 -91 -13 -113 -11 -95 -13 -205 -3 -205 6 0 8 -45 6 -115 -2 -63 -6
                            -115 -10 -115 -5 0 -8 8 -8 17 0 9 -8 25 -17 36 -14 14 -17 33 -15 78 1 32 0
                            59 -2 59 -3 0 -12 -7 -20 -16 -11 -11 -14 -26 -10 -52 5 -34 -15 -162 -31
                            -204 -5 -12 -2 -18 8 -18 9 0 17 14 21 39 7 45 26 65 26 28 0 -14 6 -27 13
                            -30 18 -7 38 -87 33 -132 -10 -77 -26 -180 -34 -227 -5 -27 -5 -45 -1 -42 14
                            9 10 -87 -6 -151 -9 -32 -13 -65 -11 -72 3 -7 -1 -27 -8 -44 -13 -31 -13 -31
                            -18 -7 -3 14 -4 48 -4 75 1 34 -3 49 -11 46 -7 -3 -16 16 -23 49 -21 93 -23
                            169 -6 247 10 50 12 79 6 92 -6 10 -10 43 -10 75 0 32 -2 55 -5 52 -11 -11
                            -37 -246 -32 -294 3 -32 1 -56 -6 -63 -8 -8 -8 -11 2 -11 9 0 12 -15 11 -52
                            -2 -29 -2 -66 -1 -83 l2 -30 13 25 c13 22 14 19 21 -55 4 -44 14 -95 23 -114
                            19 -41 21 -291 3 -358 -12 -43 -26 -220 -23 -285 1 -21 -2 -38 -7 -38 -12 0
                            -21 52 -21 123 0 33 -3 58 -6 55 -7 -7 -14 -107 -18 -233 -2 -76 -11 -131 -31
                            -192 -3 -9 -11 -9 -31 2 -27 13 -44 12 -44 -4 0 -4 21 -20 46 -36 l47 -30 -44
                            -9 c-68 -14 -170 -9 -188 9 -13 13 -14 17 -2 24 9 6 10 10 2 16 -13 7 -12 127
                            1 148 5 8 8 7 8 -5 0 -18 18 -34 27 -24 4 3 -4 18 -17 31 -18 19 -26 42 -30
                            88 -4 34 -3 63 1 65 4 2 4 13 0 25 -5 12 -7 61 -4 110 2 55 0 87 -7 87 -5 0
                            -10 -11 -10 -24 0 -14 -4 -28 -10 -31 -6 -4 -10 8 -10 28 0 26 5 36 19 40 15
                            4 21 17 26 61 8 64 0 88 -10 32 -11 -56 -23 -52 -21 7 3 60 23 108 37 86 6
                            -10 9 -6 9 14 0 16 -4 26 -10 22 -15 -9 -12 28 4 51 8 11 17 38 19 60 7 50 25
                            143 43 215 8 30 14 70 14 88 0 33 3 48 70 331 72 303 95 373 134 415 15 16 26
                            39 26 51 0 13 4 24 9 24 5 0 11 33 14 73 5 97 51 242 81 259 9 5 16 16 16 24
                            0 8 4 13 8 10 4 -2 4 -38 0 -78z m82 25 c0 -5 -5 -15 -10 -23 -8 -12 -10 -11
                            -10 8 0 12 5 22 10 22 6 0 10 -3 10 -7z m-15 -63 c0 -22 -21 -22 -22 1 -1 12
                            3 19 10 16 7 -2 12 -10 12 -17z m945 -26 c0 -8 -4 -12 -10 -9 -5 3 -10 10 -10
                            16 0 5 5 9 10 9 6 0 10 -7 10 -16z m-958 -63 c-3 -25 -9 -41 -17 -41 -14 0
                            -14 42 -1 72 13 29 22 12 18 -31z m2788 -21 c0 -5 -2 -10 -4 -10 -3 0 -8 5
                            -11 10 -3 6 -1 10 4 10 6 0 11 -4 11 -10z m820 -82 c0 -15 -4 -29 -9 -32 -10
                            -7 -21 42 -20 88 l1 31 13 -30 c8 -16 14 -42 15 -57z m-324 -42 c30 -23 6 -39
                            -37 -25 -44 15 -47 18 -29 29 21 14 43 12 66 -4z m-96 -6 c0 -12 -28 -25 -36
                            -17 -9 9 6 27 22 27 8 0 14 -5 14 -10z m-100 -20 c0 -5 -17 -12 -37 -16 -21
                            -4 -46 -11 -56 -16 -10 -5 -21 -7 -24 -5 -2 3 10 12 29 20 62 28 88 33 88 17z
                            m260 0 c0 -5 -4 -10 -10 -10 -5 0 -10 5 -10 10 0 6 5 10 10 10 6 0 10 -4 10
                            -10z m-2222 -49 c3 -8 -1 -12 -9 -9 -7 2 -15 10 -17 17 -3 8 1 12 9 9 7 -2 15
                            -10 17 -17z m209 -33 c60 -26 42 -38 -59 -38 -77 0 -78 0 -78 26 0 21 4 25 20
                            21 11 -3 18 -1 15 3 -7 11 16 19 38 13 11 -3 39 -14 64 -25z m1570 -35 c-3 -3
                            -11 -2 -17 2 -8 5 -7 11 2 22 12 15 13 14 16 -1 2 -10 1 -20 -1 -23z m-42 7
                            c3 -5 -2 -19 -13 -30 -18 -20 -19 -20 -14 10 4 30 16 39 27 20z m405 -35 c0
                            -17 -25 -26 -38 -13 -16 16 8 51 25 36 7 -6 13 -16 13 -23z m-457 -45 c-3 -12
                            -8 -19 -11 -16 -5 6 5 36 12 36 2 0 2 -9 -1 -20z m1521 -25 c3 -8 1 -15 -4
                            -15 -6 0 -10 7 -10 15 0 8 2 15 4 15 2 0 6 -7 10 -15z m-819 -35 c-4 -6 0 -24
                            9 -40 12 -26 12 -30 0 -30 -8 0 -14 4 -14 9 0 5 -3 23 -6 40 -4 21 -3 31 5 31
                            7 0 9 -5 6 -10z m-1977 -53 c2 -10 -3 -17 -12 -17 -18 0 -29 16 -21 31 9 14
                            29 6 33 -14z m2445 -39 c25 -53 49 -144 45 -175 -5 -30 -5 -30 -33 57 -10 30
                            -21 60 -26 65 -12 17 -22 85 -12 85 6 0 17 -15 26 -32z m47 -345 c0 -22 -2
                            -25 -10 -13 -13 20 -13 40 0 40 6 0 10 -12 10 -27z m-95 -120 c25 -98 2 -118
                            -25 -23 -12 43 -13 118 -1 105 4 -6 16 -43 26 -82z m134 8 c30 -118 34 -151
                            21 -176 -8 -14 -10 -38 -7 -61 8 -46 -3 -161 -13 -143 -4 8 -15 69 -25 136
                            -14 97 -16 125 -6 137 8 10 9 21 3 33 -5 10 -13 41 -17 70 -6 49 -6 51 14 46
                            14 -3 24 -18 30 -42z m-109 -204 c0 -18 -2 -19 -10 -7 -13 20 -13 43 0 35 6
                            -3 10 -16 10 -28z m700 -561 c0 -7 -3 -16 -7 -20 -4 -4 -6 -26 -6 -49 l2 -42
                            -13 45 c-14 53 -10 91 10 83 8 -3 14 -11 14 -17z m-60 -7 c0 -5 -4 -9 -10 -9
                            -5 0 -10 7 -10 16 0 8 5 12 10 9 6 -3 10 -10 10 -16z m-5137 -269 c4 -134 2
                            -150 -19 -150 -22 0 -28 46 -29 205 0 112 4 159 15 185 l15 35 7 -75 c4 -41 9
                            -131 11 -200z m368 147 c-6 -6 -8 -3 -6 9 2 11 4 28 6 39 1 13 3 10 6 -9 3
                            -16 0 -33 -6 -39z m-31 -134 c0 -54 -5 -105 -10 -113 -8 -12 -10 -12 -11 5 -1
                            16 0 193 1 203 0 1 5 2 10 2 6 0 10 -39 10 -97z m4780 37 c0 -11 -7 -20 -15
                            -20 -8 0 -15 9 -15 20 0 11 7 20 15 20 8 0 15 -9 15 -20z m-2845 -30 c3 -5 -1
                            -10 -9 -10 -9 0 -16 5 -16 10 0 6 4 10 9 10 6 0 13 -4 16 -10z m-75 -90 c0 -5
                            -5 -10 -11 -10 -5 0 -7 5 -4 10 3 6 8 10 11 10 2 0 4 -4 4 -10z m2900 -51 c0
                            -6 -4 -7 -10 -4 -5 3 -10 11 -10 16 0 6 5 7 10 4 6 -3 10 -11 10 -16z m-4760
                            -14 c0 -8 -7 -15 -15 -15 -16 0 -20 12 -8 23 11 12 23 8 23 -8z m-345 -45 c-3
                            -5 -10 -10 -16 -10 -5 0 -9 5 -9 10 0 6 7 10 16 10 8 0 12 -4 9 -10z m-665
                            -115 c-7 -8 -24 -15 -39 -15 l-26 1 25 14 c35 20 57 20 40 0z m-75 -25 c-3 -5
                            -18 -10 -33 -10 -21 0 -24 2 -12 10 20 13 53 13 45 0z m4998 -129 c-9 -12 -25
                            20 -18 36 7 16 9 15 15 -7 4 -14 5 -27 3 -29z m857 -119 l-1 -27 -13 25 c-15
                            25 -12 45 5 35 5 -4 9 -18 9 -33z m-849 -85 c-10 -9 -11 -8 -5 6 3 10 9 15 12
                            12 3 -3 0 -11 -7 -18z m869 -8 c0 -11 -4 -17 -10 -14 -5 3 -10 15 -10 26 0 11
                            5 17 10 14 6 -3 10 -15 10 -26z m-1233 -526 c-8 -70 -38 -124 -110 -195 -38
                            -38 -72 -66 -75 -64 -6 7 17 96 33 121 6 11 14 28 18 38 6 16 5 16 -18 1 -23
                            -15 -25 -15 -19 0 3 9 10 16 15 16 6 0 31 20 57 44 26 24 57 47 70 50 12 4 22
                            12 22 17 0 5 2 9 6 9 3 0 3 -17 1 -37z m57 -122 c-4 -14 -15 -52 -25 -83 -11
                            -32 -19 -64 -19 -72 0 -9 -11 -39 -24 -68 -13 -29 -27 -73 -31 -98 -3 -25 -22
                            -97 -41 -160 -20 -63 -41 -133 -47 -155 -6 -22 -21 -60 -33 -85 -13 -25 -19
                            -49 -15 -53 9 -9 2 -35 -35 -132 -13 -33 -31 -86 -39 -117 -14 -49 -20 -58
                            -39 -58 -13 0 -29 7 -36 15 -7 8 -10 15 -6 15 3 0 0 15 -7 33 -14 33 -11 107
                            4 107 5 0 9 5 9 10 0 6 -9 10 -20 10 -24 0 -33 41 -34 164 -1 63 3 91 12 94 6
                            2 12 11 12 21 0 9 16 40 35 70 39 59 41 67 20 78 -13 8 -12 18 8 78 13 38 28
                            70 35 73 11 3 21 -35 25 -100 1 -21 7 -36 12 -34 6 2 9 12 8 22 -9 87 -9 137
                            1 187 12 61 44 99 128 153 20 13 39 32 43 43 3 11 11 18 18 16 7 -3 22 11 34
                            30 27 41 57 39 47 -4z m-598 -289 c-6 -7 -26 -29 -44 -48 -24 -24 -29 -34 -18
                            -34 19 0 21 -21 4 -38 -19 -19 12 -15 34 5 11 9 18 11 18 5 0 -7 -4 -12 -10
                            -12 -5 0 -10 -7 -10 -15 0 -8 -5 -15 -12 -15 -14 0 -70 -62 -63 -69 3 -2 23 4
                            45 14 46 21 53 17 52 -25 0 -16 4 -32 9 -35 11 -7 12 -45 1 -45 -4 0 -14 6
                            -21 13 -11 10 -13 9 -8 -5 3 -10 2 -20 -3 -23 -12 -7 -2 -57 13 -66 5 -4 7
                            -22 4 -40 -4 -19 -2 -52 3 -74 7 -29 6 -44 -4 -55 -7 -8 -16 -28 -20 -44 -4
                            -15 -14 -39 -23 -52 -17 -27 -37 -25 -83 5 -14 9 -43 23 -65 30 -128 43 -345
                            181 -353 224 -2 10 6 21 20 27 48 22 84 44 119 71 20 16 39 29 43 29 3 0 47
                            44 98 97 194 203 182 193 236 191 40 -2 47 -5 38 -16z m504 -266 c-10 -35 -60
                            -103 -60 -82 0 28 45 192 54 198 16 11 20 -68 6 -116z m-50 -190 c0 -10 -32
                            -96 -50 -131 -10 -22 -27 -58 -36 -80 -27 -66 -27 -21 0 59 14 41 26 83 26 94
                            0 11 7 22 15 26 8 3 15 12 15 21 0 8 7 15 15 15 8 0 15 -2 15 -4z"/>
                            <path d="M4150 10466 c0 -22 17 -28 24 -10 9 22 8 24 -9 24 -8 0 -15 -6 -15
                            -14z"/>
                            <path d="M4095 7990 c-3 -5 -1 -10 4 -10 6 0 11 5 11 10 0 6 -2 10 -4 10 -3 0
                            -8 -4 -11 -10z"/>
                            <path d="M5826 7945 c4 -8 10 -12 15 -9 11 6 2 24 -11 24 -5 0 -7 -7 -4 -15z"/>
                            <path d="M5191 7924 c0 -11 3 -14 6 -6 3 7 2 16 -1 19 -3 4 -6 -2 -5 -13z"/>
                            <path d="M5851 7904 c0 -11 3 -14 6 -6 3 7 2 16 -1 19 -3 4 -6 -2 -5 -13z"/>
                            <path d="M4016 7331 c-4 -7 -5 -15 -2 -18 9 -9 19 4 14 18 -4 11 -6 11 -12 0z"/>
                            <path d="M4002 7230 c0 -14 2 -19 5 -12 2 6 2 18 0 25 -3 6 -5 1 -5 -13z"/>
                            <path d="M4825 6880 c3 -5 12 -7 20 -3 21 7 19 13 -6 13 -11 0 -18 -4 -14 -10z"/>
                            <path d="M4770 6876 c0 -3 9 -15 21 -27 l21 -21 -4 24 c-2 19 -38 41 -38 24z"/>
                            <path d="M3910 6840 c0 -5 7 -10 16 -10 8 0 12 5 9 10 -3 6 -10 10 -16 10 -5
                            0 -9 -4 -9 -10z"/>
                            <path d="M4745 6837 c-4 -10 -13 -16 -20 -13 -15 5 -86 -38 -126 -77 -29 -28
                            -81 -57 -103 -57 -10 0 -14 -9 -12 -27 2 -16 5 -28 7 -28 2 0 20 14 39 32 19
                            17 53 44 75 59 22 14 42 30 45 35 3 4 21 15 40 23 49 22 73 42 67 58 -3 9 -7
                            8 -12 -5z"/>
                            <path d="M5921 6374 c0 -11 3 -14 6 -6 3 7 2 16 -1 19 -3 4 -6 -2 -5 -13z"/>
                            <path d="M5555 9450 c-3 -5 -1 -10 4 -10 6 0 11 5 11 10 0 6 -2 10 -4 10 -3 0
                            -8 -4 -11 -10z"/>
                            <path d="M1997 8164 c-4 -4 -7 -17 -7 -28 1 -19 1 -20 11 -3 11 19 8 43 -4 31z"/>
                            <path d="M1930 7470 c0 -8 5 -22 10 -30 9 -13 10 -13 10 0 0 8 -5 22 -10 30
                            -9 13 -10 13 -10 0z"/>
                            <path d="M1926 7382 c-11 -18 3 -97 16 -84 6 6 6 26 1 53 -6 29 -12 39 -17 31z"/>
                            <path d="M4570 4670 c-14 -10 -22 -21 -19 -24 3 -3 16 5 29 19 28 30 24 32
                            -10 5z"/>
                            <path d="M5502 12316 c11 -8 15 -20 11 -36 -6 -23 -6 -23 14 -4 18 17 18 21 5
                            37 -8 9 -22 17 -31 17 -14 -1 -14 -2 1 -14z"/>
                            <path d="M3663 12295 c-15 -13 -23 -25 -17 -25 6 0 21 11 34 25 30 32 19 32
                            -17 0z"/>
                            <path d="M5535 12246 c-14 -15 -7 -46 11 -46 15 0 19 27 6 46 -5 9 -10 9 -17
                            0z"/>
                            <path d="M6385 11550 c3 -5 8 -10 11 -10 2 0 4 5 4 10 0 6 -5 10 -11 10 -5 0
                            -7 -4 -4 -10z"/>
                            <path d="M2610 10875 c-7 -9 -10 -18 -7 -21 3 -3 10 4 17 15 13 25 8 27 -10 6z"/>
                            <path d="M6930 8047 c0 -20 5 -39 11 -42 7 -5 8 5 3 32 -9 51 -14 54 -14 10z"/>
                            <path d="M6880 7310 c0 -3 -3 -39 -7 -80 -5 -68 -4 -73 11 -61 17 15 21 90 6
                            126 -5 11 -9 18 -10 15z"/>
                            <path d="M6820 6270 c0 -29 3 -50 7 -46 7 7 5 87 -3 95 -2 2 -4 -20 -4 -49z"/>
                        </g>
                    </svg>