 <svg version="1.0" xmlns="http://www.w3.org/2000/svg" width="40px" height="40px" viewBox="0 0 653.000000 557.000000" preserveAspectRatio="xMidYMid meet">
                        <g transform="translate(0.000000,557.000000) scale(0.100000,-0.100000)"
                        fill="black" stroke="none">
                            <path d="M4150 4993 c-37 -4 -163 -39 -192 -54 -9 -4 -58 -16 -110 -25 -51 -9
                            -100 -19 -108 -22 -8 -3 -18 -5 -22 -4 -3 1 -12 -5 -18 -13 -7 -8 -21 -15 -30
                            -15 -10 0 -20 -5 -22 -11 -4 -11 -72 -39 -96 -39 -7 0 -24 -11 -38 -25 -30
                            -30 -29 -30 -31 -7 -2 25 67 99 100 107 15 4 24 11 21 16 -8 14 -71 11 -77 -4
                            -6 -17 -35 -16 -62 2 -14 8 -16 14 -7 17 14 7 16 40 2 49 -5 3 -17 -3 -27 -15
                            -10 -11 -23 -20 -30 -20 -7 0 -15 -11 -19 -24 -7 -29 -26 -38 -60 -30 -18 5
                            -24 2 -24 -11 0 -13 -6 -16 -21 -12 -25 7 -68 -26 -49 -38 6 -4 18 -1 26 6 12
                            9 18 9 27 0 9 -9 9 -14 -3 -21 -13 -9 -13 -11 0 -20 12 -8 12 -10 1 -10 -7 0
                            -24 -12 -37 -26 -20 -20 -22 -29 -13 -45 12 -24 2 -41 -11 -19 -8 13 -10 12
                            -10 -3 0 -11 -5 -15 -11 -11 -6 3 -15 1 -19 -5 -7 -12 -28 -15 -65 -9 -17 3
                            -19 -2 -17 -28 3 -30 1 -31 -30 -30 -18 1 -37 4 -43 7 -17 11 -141 -7 -161
                            -23 -15 -11 -24 13 -17 44 10 38 43 60 79 53 22 -4 34 -1 37 7 4 10 8 10 14 1
                            11 -15 63 -28 63 -15 0 5 6 10 13 9 30 -1 47 4 47 14 0 5 -4 8 -9 5 -15 -9
                            -40 4 -35 18 7 18 -75 14 -86 -3 -5 -9 -9 -6 -13 10 l-6 22 -35 -26 c-19 -15
                            -41 -27 -50 -27 -8 0 -19 -7 -24 -16 -6 -12 -11 -6 -21 24 -11 33 -11 43 3 70
                            14 27 14 31 1 26 -8 -4 -15 -2 -15 2 1 17 27 44 43 44 9 0 19 5 22 10 13 20
                            -31 9 -59 -15 -23 -20 -27 -28 -18 -37 7 -7 12 -19 12 -27 -1 -9 -10 1 -21 22
                            -11 22 -18 45 -15 53 3 7 2 13 -2 12 -4 -1 -15 2 -25 7 -10 4 -20 5 -23 3 -7
                            -7 -26 -219 -23 -248 2 -14 4 -80 4 -148 0 -67 1 -122 3 -122 16 0 84 93 119
                            163 l19 38 14 -25 c11 -21 11 -28 -1 -43 -12 -15 -12 -16 3 -10 13 5 21 -6 37
                            -56 21 -67 58 -288 65 -401 4 -60 3 -66 -9 -50 -8 11 -15 27 -15 37 0 9 -5 17
                            -11 17 -6 0 -9 -7 -6 -15 4 -8 2 -17 -2 -20 -12 -7 -22 21 -15 40 4 8 13 15
                            21 15 8 0 11 5 8 10 -5 8 -11 8 -20 0 -17 -14 -31 6 -16 23 5 7 8 23 4 35 -3
                            12 -1 22 4 22 5 0 7 17 5 38 -4 30 -6 33 -12 17 -7 -16 -9 -17 -14 -5 -5 13
                            -18 15 -65 10 -49 -5 -67 -12 -115 -49 -31 -24 -56 -46 -56 -50 0 -3 -43 -51
                            -95 -106 -52 -55 -94 -103 -95 -107 0 -4 -11 -23 -24 -43 -14 -19 -36 -68 -51
                            -108 -14 -39 -32 -83 -40 -97 -7 -14 -15 -34 -17 -45 -1 -11 -7 -23 -12 -26
                            -15 -12 4 -28 39 -35 19 -3 35 -9 35 -13 0 -4 -28 -2 -62 5 l-63 13 -37 -37
                            c-21 -20 -37 -42 -38 -48 0 -16 34 -44 53 -44 14 0 14 3 2 27 -19 36 -14 38
                            26 14 36 -22 74 -27 84 -11 3 6 10 10 16 10 5 0 -7 -21 -26 -46 -33 -43 -50
                            -83 -24 -57 6 6 18 9 25 6 8 -3 22 1 31 8 11 9 14 9 10 2 -4 -7 -2 -21 5 -32
                            9 -15 9 -23 0 -34 -16 -19 -63 -9 -70 15 -7 27 -25 17 -37 -22 -13 -43 -53
                            -72 -143 -104 -83 -29 -147 -33 -211 -10 -50 17 -84 13 -154 -18 l-48 -22 -43
                            23 c-84 46 -198 17 -390 -99 -36 -22 -70 -40 -75 -40 -5 0 -11 -4 -13 -8 -1
                            -5 -48 -36 -103 -71 -55 -34 -127 -81 -160 -106 -33 -24 -68 -44 -78 -44 -14
                            -1 -17 -6 -11 -23 6 -22 6 -22 -12 -6 -18 16 -23 13 -99 -55 -44 -40 -117
                            -108 -163 -152 l-83 -80 -6 -93 c-7 -105 -2 -110 58 -67 80 60 220 126 297
                            141 44 8 80 21 85 29 12 23 44 1 52 -35 5 -22 12 -30 28 -30 12 0 85 -7 162
                            -15 77 -8 255 -20 395 -25 423 -17 541 -32 765 -96 131 -37 482 -166 619 -228
                            l59 -26 -7 -38 c-3 -20 -6 -52 -6 -69 0 -26 -4 -33 -19 -33 -44 0 -54 -57 -13
                            -75 30 -13 28 -31 -5 -47 -25 -12 -28 -18 -25 -59 2 -34 -2 -51 -19 -73 -20
                            -26 -21 -29 -6 -67 12 -30 14 -63 10 -152 -5 -95 -3 -114 10 -125 32 -27 40
                            -4 35 104 -4 96 -3 104 14 110 24 7 19 12 57 -63 46 -92 96 -296 120 -493 12
                            -97 10 -111 -41 -200 -77 -136 -308 -684 -308 -732 0 -4 660 -8 1466 -8 l1466
                            0 -7 78 c-17 180 -68 390 -166 684 -108 325 -149 421 -262 628 -26 47 -47 95
                            -47 106 0 30 -59 226 -73 242 -6 8 -12 24 -14 35 -2 12 -13 35 -24 50 -20 27
                            -20 30 -4 47 25 28 30 98 11 144 -15 35 -15 40 2 65 53 79 81 185 93 355 5 76
                            14 159 20 185 6 25 15 78 19 116 7 68 26 124 60 175 25 36 129 324 136 373 3
                            23 12 79 20 125 16 85 15 98 -16 222 -28 114 -59 256 -74 345 -7 44 -32 147
                            -55 228 -22 82 -41 164 -41 183 0 43 -26 119 -56 163 -62 92 -202 211 -247
                            211 -7 0 -24 12 -38 26 l-24 26 30 -8 c17 -4 42 -16 57 -27 49 -36 41 -11 -14
                            46 -50 53 -136 103 -208 122 -22 6 -21 4 6 -13 55 -35 47 -42 -13 -11 -110 58
                            -175 69 -413 73 -118 2 -231 1 -250 -1z m80 -25 c0 -4 -13 -8 -30 -8 -16 0
                            -30 4 -30 9 0 5 14 9 30 9 17 -1 30 -5 30 -10z m320 0 c0 -4 -9 -8 -20 -8 -11
                            0 -20 4 -20 8 0 4 9 8 20 8 11 0 20 -4 20 -8z m-420 -6 c0 -5 -20 -13 -45 -19
                            -54 -12 -61 1 -7 15 49 13 52 13 52 4z m-100 -26 c0 -3 -4 -8 -10 -11 -5 -3
                            -10 -1 -10 4 0 6 5 11 10 11 6 0 10 -2 10 -4z m-35 -17 c-4 -5 -14 -9 -24 -9
                            -9 0 -22 -5 -29 -12 -7 -7 -12 -8 -12 -4 0 13 29 32 51 33 11 1 17 -2 14 -8z
                            m-95 -29 c-14 -4 -38 -8 -55 -8 l-30 0 30 8 c17 4 41 8 55 8 l25 0 -25 -8z
                            m-110 -20 c0 -5 -4 -10 -10 -10 -5 0 -10 5 -10 10 0 6 5 10 10 10 6 0 10 -4
                            10 -10z m-349 -112 c-12 -12 -21 -17 -21 -11 0 7 7 18 15 27 8 8 16 21 16 28
                            1 7 3 5 6 -4 2 -10 -5 -27 -16 -40z m1344 -26 c-3 -3 -11 0 -18 7 -9 10 -8 11
                            6 5 10 -3 15 -9 12 -12z m146 -9 c13 -16 12 -17 -3 -4 -10 7 -18 15 -18 17 0
                            8 8 3 21 -13z m-47 -31 c37 -18 74 -31 82 -28 8 3 14 4 14 2 0 -3 3 -11 6 -20
                            3 -9 1 -16 -6 -16 -6 0 -9 4 -6 8 3 5 -7 9 -23 9 -25 0 -151 66 -151 80 0 2 3
                            3 8 1 4 -2 38 -18 76 -36z m-1944 8 c0 -5 -4 -10 -10 -10 -5 0 -10 5 -10 10 0
                            6 5 10 10 10 6 0 10 -4 10 -10z m370 -144 c0 -2 -9 -6 -20 -9 -11 -3 -20 -1
                            -20 4 0 5 9 9 20 9 11 0 20 -2 20 -4z m-283 -22 c-3 -3 -12 -4 -19 -1 -8 3 -5
                            6 6 6 11 1 17 -2 13 -5z m-121 -860 c2 -12 -5 -29 -15 -38 -16 -14 -23 -15
                            -41 -6 -19 10 -21 9 -18 -7 5 -26 75 -28 83 -2 9 29 19 24 69 -33 54 -62 83
                            -138 77 -207 -1 -11 -5 -10 -21 4 -18 16 -20 16 -20 1 0 -9 11 -26 25 -38 14
                            -12 25 -29 25 -39 0 -20 -153 -165 -158 -150 -2 5 32 43 75 84 43 42 75 79 70
                            83 -4 4 -12 3 -18 -3 -14 -14 -39 -5 -39 14 0 14 -6 14 -60 -5 -12 -4 -13 -2
                            -2 9 20 22 14 27 -25 22 -69 -9 -191 14 -237 45 -43 29 -70 70 -61 94 3 7 29
                            24 58 37 43 19 62 22 115 17 60 -5 125 -33 144 -60 5 -7 8 -7 8 1 0 19 -91 82
                            -130 89 -58 12 -156 -11 -220 -50 -32 -20 -60 -36 -62 -36 -1 0 -4 11 -4 25
                            -2 21 1 24 12 14 11 -9 18 -8 32 2 38 29 57 69 32 69 -5 0 -10 -7 -10 -15 0
                            -10 -10 -15 -30 -15 -16 0 -30 4 -30 8 0 18 28 45 42 40 8 -4 46 9 83 28 61
                            31 77 34 137 32 37 -1 71 1 75 5 13 14 36 2 39 -19z m-456 -43 c0 -5 -10 -11
                            -22 -15 -18 -4 -20 -8 -10 -18 17 -17 15 -38 -3 -38 -20 0 -29 23 -21 55 5 18
                            13 25 31 25 14 0 25 -4 25 -9z m-85 -69 c-3 -3 -11 0 -18 7 -9 10 -8 11 6 5
                            10 -3 15 -9 12 -12z m44 -133 c-37 -58 -59 -82 -67 -74 -3 3 7 19 23 35 16 17
                            29 38 30 48 2 22 39 66 43 52 2 -6 -11 -33 -29 -61z m35 -298 c14 -8 26 -18
                            26 -23 0 -23 -87 42 -128 96 -40 52 -23 49 27 -6 27 -29 61 -60 75 -67z m61
                            88 c35 -18 36 -20 11 -14 -30 6 -79 35 -60 35 5 0 28 -9 49 -21z m-165 -49
                            c19 -25 39 -48 44 -51 4 -4 5 -12 2 -18 -4 -6 -3 -11 2 -11 4 0 19 -24 31 -52
                            32 -74 49 -108 73 -148 50 -84 86 -163 81 -176 -8 -22 -66 -17 -125 10 -83 39
                            -129 56 -148 56 -9 0 -44 13 -76 29 -32 16 -94 45 -136 65 l-77 35 -130 -4
                            c-105 -4 -138 -8 -170 -24 -51 -27 -167 -65 -260 -86 -50 -11 -88 -26 -112
                            -46 -20 -16 -39 -29 -42 -29 -8 0 -2 35 7 42 6 4 6 16 -1 31 -10 22 -9 26 10
                            31 12 3 33 15 47 27 14 11 19 17 11 13 -9 -5 -12 -3 -7 4 8 13 48 16 59 6 4
                            -4 -13 -22 -37 -41 -57 -44 -69 -72 -18 -39 20 12 69 40 107 61 100 54 148 89
                            245 176 129 115 122 112 242 104 98 -6 108 -5 203 25 55 18 107 41 115 51 8
                            10 18 15 21 11 3 -4 21 -27 39 -52z m545 25 c0 -25 -37 -32 -54 -11 -18 21 -4
                            38 27 34 19 -2 27 -9 27 -23z m-307 -47 c19 -19 14 -29 -8 -16 -20 13 -27 28
                            -12 28 4 0 13 -5 20 -12z m232 2 c0 -5 -5 -10 -11 -10 -5 0 -7 5 -4 10 3 6 8
                            10 11 10 2 0 4 -4 4 -10z m39 -35 c-16 -16 -146 -55 -200 -59 -79 -8 -56 5 53
                            29 43 9 80 21 84 26 3 5 19 9 36 9 17 0 29 -2 27 -5z m-328 -35 c31 -25 12
                            -26 -21 0 -14 11 -20 20 -14 20 7 0 22 -9 35 -20z m-967 -26 c9 -3 16 -13 16
                            -21 0 -11 -8 -12 -37 -7 -46 8 -52 12 -33 24 18 11 32 12 54 4z m65 -51 c-10
                            -12 -4 -10 19 6 30 21 41 19 24 -5 -4 -6 -26 -23 -49 -37 -44 -28 -68 -20 -39
                            12 9 10 16 23 16 29 0 10 30 22 39 15 2 -1 -2 -10 -10 -20z m-89 -13 c8 -5 11
                            -12 8 -16 -10 -9 -38 3 -38 16 0 12 10 13 30 0z m7 -56 c0 -22 -41 -46 -73
                            -42 -38 4 -41 24 -7 42 38 21 80 21 80 0z m-202 -74 c3 -5 -1 -10 -10 -10 -9
                            0 -13 5 -10 10 3 6 8 10 10 10 2 0 7 -4 10 -10z m530 -60 c4 -6 -5 -10 -20
                            -10 -15 0 -24 4 -20 10 3 6 12 10 20 10 8 0 17 -4 20 -10z m-425 -30 c11 -7 7
                            -9 -17 -7 -17 1 -29 5 -26 10 6 10 25 9 43 -3z m434 -25 c-9 -22 -44 -19 -44
                            3 0 26 10 33 31 21 10 -5 16 -16 13 -24z m-790 -1 c21 -21 11 -37 -15 -24 -11
                            6 -24 8 -29 5 -6 -3 -10 0 -10 9 0 13 13 23 32 25 4 1 14 -6 22 -15z m366 -19
                            c0 -18 -5 -25 -20 -25 -20 0 -28 28 -13 43 15 16 33 6 33 -18z m-183 6 c10 9
                            13 8 13 -5 0 -9 -12 -21 -26 -26 -14 -6 -44 -23 -67 -38 -23 -16 -51 -32 -61
                            -36 -10 -3 -16 -9 -13 -12 7 -7 87 33 114 59 13 11 26 18 29 14 3 -3 -19 -22
                            -49 -42 -59 -39 -125 -53 -134 -29 -8 23 -25 16 -21 -8 2 -17 -3 -24 -18 -26
                            -20 -3 -32 16 -35 55 0 5 -6 14 -11 21 -8 9 -8 16 0 24 9 9 15 8 24 -4 30 -37
                            47 -36 126 5 43 21 81 43 87 48 5 5 13 5 19 -1 6 -6 14 -6 23 1z m1003 -16 c7
                            -9 10 -18 7 -22 -8 -7 -37 15 -37 28 0 14 16 11 30 -6z m-1290 -9 c0 -3 -4 -8
                            -10 -11 -5 -3 -10 -1 -10 4 0 6 5 11 10 11 6 0 10 -2 10 -4z m98 -28 c-3 -7
                            -13 -13 -23 -13 -10 0 -20 6 -22 13 -3 7 5 12 22 12 17 0 25 -5 23 -12z m-148
                            -34 c0 -11 -5 -14 -16 -10 -9 3 -22 6 -30 6 -9 0 -12 5 -9 10 10 17 55 12 55
                            -6z m54 -53 c-6 -6 -24 19 -24 34 1 6 7 1 15 -9 8 -11 12 -22 9 -25z m-64 0
                            c0 -19 -22 -23 -38 -7 -15 15 -14 16 11 16 15 0 27 -4 27 -9z m-40 -75 c0 -14
                            -56 -39 -72 -33 -7 3 0 10 16 16 22 9 26 15 18 23 -20 20 -13 28 13 16 14 -6
                            25 -16 25 -22z m173 7 c-7 -2 -19 -2 -25 0 -7 3 -2 5 12 5 14 0 19 -2 13 -5z
                            m-413 -28 c16 -20 7 -29 -17 -17 -10 5 -24 7 -30 5 -7 -3 -13 -1 -13 5 0 25
                            41 30 60 7z m2450 -46 c0 -6 -7 -8 -16 -5 -9 3 -18 6 -20 6 -2 0 -4 7 -4 15 0
                            13 4 14 20 5 11 -6 20 -16 20 -21z m-2460 -16 c0 -7 -9 -13 -20 -13 -11 0 -20
                            6 -20 13 0 7 9 13 20 13 11 0 20 -6 20 -13z"/>
                            <path d="M2680 3445 c25 -26 82 -50 103 -42 6 3 4 6 -7 6 -22 1 -96 41 -96 53
                            0 4 -5 8 -12 8 -6 0 -1 -11 12 -25z"/>
                            <path d="M2785 3430 c3 -5 10 -10 16 -10 5 0 9 5 9 10 0 6 -7 10 -16 10 -8 0
                            -12 -4 -9 -10z"/>
                            <path d="M2818 3393 c7 -3 16 -2 19 1 4 3 -2 6 -13 5 -11 0 -14 -3 -6 -6z"/>
                            <path d="M2275 3130 c-3 -5 -1 -10 4 -10 6 0 11 5 11 10 0 6 -2 10 -4 10 -3 0
                            -8 -4 -11 -10z"/>
                            <path d="M2290 3100 c0 -5 5 -10 10 -10 6 0 10 5 10 10 0 6 -4 10 -10 10 -5 0
                            -10 -4 -10 -10z"/>
                            <path d="M2250 2988 c0 -16 5 -28 10 -28 6 0 10 -7 10 -15 0 -8 9 -15 20 -15
                            27 0 25 9 -10 50 l-30 35 0 -27z"/>
                            <path d="M2321 2914 c0 -11 3 -14 6 -6 3 7 2 16 -1 19 -3 4 -6 -2 -5 -13z"/>
                            <path d="M2730 4901 c0 -5 5 -13 10 -16 6 -3 10 -2 10 4 0 5 -4 13 -10 16 -5
                            3 -10 2 -10 -4z"/>
                            <path d="M3168 4843 c7 -3 16 -2 19 1 4 3 -2 6 -13 5 -11 0 -14 -3 -6 -6z"/>
                            <path d="M2980 4750 c0 -5 7 -10 15 -10 8 0 15 5 15 10 0 6 -7 10 -15 10 -8 0
                            -15 -4 -15 -10z"/>
                            <path d="M2988 4623 c6 -2 18 -2 25 0 6 3 1 5 -13 5 -14 0 -19 -2 -12 -5z"/>
                            <path d="M2866 4612 c-3 -5 8 -6 25 -4 16 2 29 6 29 8 0 8 -49 4 -54 -4z"/>
                            <path d="M2700 4305 c0 -8 4 -15 9 -15 5 0 11 7 15 15 3 9 0 15 -9 15 -8 0
                            -15 -7 -15 -15z"/>
                            <path d="M2662 4174 c-16 -8 -20 -14 -12 -19 7 -4 19 0 28 9 21 20 13 26 -16
                            10z"/>
                            <path d="M2076 3400 c-27 -11 -54 -24 -60 -30 -5 -5 -17 -10 -25 -10 -15 -1
                            -61 -33 -61 -43 0 -14 89 -15 180 -1 58 9 120 18 138 21 38 5 39 26 1 31 -13
                            2 -33 12 -44 23 -31 28 -74 31 -129 9z"/>
                            <path d="M2152 3243 c-18 -13 -28 -14 -47 -5 -20 9 -23 9 -18 -3 8 -23 70 -19
                            83 5 13 24 12 24 -18 3z"/>
                        </g>
                    </svg>