<?xml version="1.0" standalone="no"?>
<!DOCTYPE svg PUBLIC "-//W3C//DTD SVG 20010904//EN"
 "http://www.w3.org/TR/2001/REC-SVG-20010904/DTD/svg10.dtd">
<svg version="1.0" xmlns="http://www.w3.org/2000/svg"
 width="440.000000pt" height="440.000000pt" viewBox="0 0 440.000000 440.000000"
 preserveAspectRatio="xMidYMid meet">

<g transform="translate(0.000000,440.000000) scale(0.100000,-0.100000)"
fill="white" stroke="none">
<path d="M70 4371 c-6 -16 -25 -35 -41 -41 -34 -14 -39 -34 -6 -25 28 9 63 44
72 73 9 32 -11 27 -25 -7z"/>
<path d="M162 4363 c-18 -60 -55 -99 -115 -122 -44 -17 -48 -20 -23 -20 70 -2
162 92 154 156 -3 26 -4 25 -16 -14z"/>
<path d="M258 4394 c-5 -4 -8 -18 -8 -31 0 -89 -122 -212 -212 -213 -15 0 -30
-4 -33 -10 -12 -20 62 -10 113 16 59 29 107 79 134 141 18 41 22 114 6 97z"/>
<path d="M337 4348 c-17 -142 -144 -268 -286 -285 -28 -3 -51 -10 -51 -16 0
-16 99 2 157 29 68 33 135 100 168 170 28 58 45 154 28 154 -6 0 -13 -23 -16
-52z"/>
<path d="M409 4393 c22 -4 23 -8 17 -56 -15 -117 -110 -254 -217 -312 -55 -30
-137 -55 -181 -55 -27 0 -28 -2 -28 -54 0 -29 5 -68 12 -86 9 -26 9 -35 0 -38
-18 -6 -14 -22 6 -22 9 0 26 -17 38 -39 l21 -39 -38 5 c-52 7 -50 -3 3 -18 86
-23 143 -118 119 -199 -17 -57 -55 -97 -112 -117 -56 -20 -66 -35 -15 -23 54
12 100 45 125 90 19 34 23 53 19 104 l-4 62 38 -20 c20 -12 39 -28 41 -38 6
-23 -9 -102 -27 -135 -36 -69 -130 -133 -196 -133 -16 0 -30 -5 -30 -11 0 -19
88 -2 136 26 78 46 133 134 134 213 0 41 1 42 27 36 44 -11 46 -14 40 -65 -17
-142 -144 -269 -286 -286 -28 -3 -51 -10 -51 -14 0 -29 153 15 213 62 82 62
147 177 147 259 0 28 2 29 33 23 17 -3 34 -8 36 -10 10 -8 -22 -129 -46 -177
-60 -118 -199 -218 -323 -232 l-60 -7 0 -52 c0 -29 5 -67 12 -85 9 -26 9 -35
0 -38 -18 -6 -14 -22 6 -22 10 0 26 -17 39 -40 l21 -40 -26 6 c-15 3 -33 7
-39 10 -7 2 -13 0 -13 -4 0 -4 22 -15 49 -25 57 -20 95 -60 112 -117 25 -81
-32 -175 -122 -201 -40 -12 -42 -13 -16 -17 42 -5 113 41 138 90 17 32 20 55
17 103 l-4 61 38 -20 c20 -12 39 -28 41 -38 6 -23 -9 -102 -27 -135 -34 -66
-130 -133 -190 -133 -14 0 -28 -4 -31 -10 -10 -17 57 -11 101 9 92 42 164 142
164 228 0 42 1 43 27 37 44 -11 46 -14 39 -67 -16 -141 -143 -267 -285 -284
-28 -3 -51 -10 -51 -16 0 -17 96 0 154 28 106 50 190 164 203 276 4 38 9 49
20 45 8 -4 24 -6 35 -6 19 0 20 -4 14 -52 -23 -177 -192 -344 -368 -364 l-58
-7 0 -52 c0 -29 5 -67 11 -85 9 -25 9 -34 -1 -40 -9 -6 -8 -9 6 -14 11 -3 28
-23 40 -45 l21 -39 -38 5 c-52 7 -50 -3 3 -18 86 -23 143 -118 119 -199 -17
-57 -55 -97 -112 -117 -56 -20 -66 -35 -15 -23 54 12 100 45 125 90 19 34 23
53 19 104 l-4 62 38 -21 c38 -20 42 -30 38 -90 -6 -100 -119 -214 -212 -215
-15 0 -30 -4 -33 -10 -10 -17 57 -11 101 9 92 42 164 142 164 228 0 46 4 49
46 33 25 -10 26 -13 21 -59 -8 -69 -44 -138 -99 -194 -55 -55 -116 -85 -188
-94 -28 -3 -50 -10 -50 -16 0 -16 99 2 156 29 103 48 188 165 201 274 6 49 6
49 37 43 17 -3 33 -8 35 -10 10 -8 -22 -129 -46 -177 -60 -118 -199 -218 -323
-232 l-60 -7 0 -52 c0 -29 5 -67 12 -85 9 -26 9 -35 0 -38 -18 -6 -14 -22 6
-22 10 0 26 -17 39 -40 l21 -40 -26 6 c-15 3 -33 7 -39 10 -7 2 -13 0 -13 -4
0 -4 22 -15 49 -25 57 -20 95 -60 112 -117 25 -81 -32 -175 -122 -201 -40 -12
-42 -13 -16 -17 42 -5 113 41 138 90 17 32 20 55 17 103 l-4 61 38 -20 c20
-12 39 -28 41 -38 6 -23 -9 -102 -27 -135 -36 -69 -130 -133 -196 -133 -16 0
-30 -5 -30 -11 0 -17 81 -4 128 20 77 39 141 139 142 219 0 41 1 42 28 36 43
-11 45 -14 39 -65 -17 -142 -144 -269 -286 -286 -28 -3 -51 -10 -51 -16 0 -6
19 -7 50 -4 149 18 289 158 307 308 4 38 9 49 20 45 8 -4 24 -6 35 -6 19 0 20
-4 14 -52 -23 -176 -192 -344 -366 -364 l-60 -7 0 -52 c0 -29 5 -67 11 -85 9
-26 9 -34 -2 -41 -11 -7 -10 -10 6 -15 11 -3 30 -22 41 -43 l21 -39 -41 5 -41
4 49 -20 c64 -26 91 -53 116 -115 l21 -51 -5 41 -4 41 39 -21 c22 -12 39 -29
39 -38 0 -20 16 -24 22 -6 3 9 12 9 38 0 43 -15 217 -15 260 0 26 9 35 9 38 0
6 -18 22 -14 22 6 0 9 17 26 39 38 l39 21 -5 -38 c-7 -52 3 -50 18 3 23 87
118 143 201 119 54 -17 103 -66 117 -119 7 -23 16 -42 21 -42 5 0 8 6 6 13 -3
6 -7 24 -10 39 l-6 26 40 -21 c23 -13 40 -29 40 -39 0 -20 16 -24 22 -6 3 9
12 9 38 0 43 -15 217 -15 260 0 26 9 35 9 38 0 6 -18 22 -14 22 6 0 10 17 26
40 39 l40 21 -6 -26 c-3 -15 -7 -33 -10 -39 -2 -7 0 -13 4 -13 4 0 15 22 25
49 20 57 60 95 117 112 81 24 176 -33 199 -119 15 -53 25 -55 18 -3 l-5 38 39
-21 c22 -12 42 -29 45 -40 5 -14 8 -15 14 -6 6 10 15 10 40 1 43 -14 217 -14
260 0 26 9 34 9 41 -2 7 -11 10 -10 15 6 3 11 22 30 43 41 l39 21 -5 -38 c-7
-52 3 -50 18 3 23 86 118 143 199 119 57 -17 97 -55 117 -112 10 -27 21 -49
25 -49 4 0 6 6 4 12 -3 7 -7 25 -10 40 l-6 26 40 -21 c23 -13 40 -29 40 -39 0
-20 16 -24 22 -6 3 9 12 9 38 0 43 -15 217 -15 260 0 26 9 35 9 38 0 6 -18 22
-14 22 6 0 10 17 26 40 39 l40 21 -6 -26 c-3 -15 -7 -33 -10 -39 -2 -7 0 -13
4 -13 4 0 15 22 25 49 56 158 253 156 317 -2 l21 -52 -5 41 -4 41 39 -21 c22
-12 39 -29 39 -38 0 -20 16 -24 22 -6 3 9 12 9 38 0 42 -15 217 -15 260 -1 26
9 34 9 41 -2 7 -11 10 -10 15 6 3 11 22 30 43 41 l39 21 -4 -41 -5 -41 21 51
c25 62 52 89 116 115 l49 20 -41 -4 -41 -5 21 39 c11 21 30 40 41 43 16 5 17
8 6 15 -11 7 -11 15 -2 41 6 18 11 56 11 85 l0 52 -60 7 c-174 20 -343 188
-366 364 -6 48 -5 52 14 52 11 0 27 2 35 6 11 4 16 -7 20 -45 13 -109 108
-236 212 -282 52 -23 145 -37 145 -22 0 6 -23 13 -51 16 -142 17 -269 144
-286 286 -6 51 -4 54 40 65 26 6 27 5 27 -36 1 -80 65 -180 142 -219 47 -24
128 -37 128 -20 0 6 -14 11 -30 11 -66 0 -160 64 -196 133 -18 33 -33 112 -27
135 2 10 21 26 41 38 l38 20 -4 -61 c-3 -48 0 -71 17 -103 25 -49 96 -95 138
-90 26 4 24 5 -16 17 -90 26 -147 120 -122 201 17 56 54 96 114 120 l52 21
-41 -5 -41 -4 21 39 c12 22 29 39 39 39 19 0 23 16 5 22 -9 3 -9 12 0 38 7 18
12 56 12 85 l0 52 -60 7 c-174 20 -343 188 -366 364 -6 48 -5 52 14 52 11 0
27 2 35 6 11 4 16 -7 20 -45 13 -111 97 -226 200 -275 58 -27 157 -45 157 -29
0 6 -22 13 -50 16 -72 9 -133 39 -188 94 -57 57 -90 122 -99 192 -5 48 -4 51
21 61 42 16 46 13 46 -33 0 -86 72 -186 164 -228 44 -20 106 -25 106 -9 0 6
-15 10 -32 10 -67 1 -158 62 -194 131 -18 35 -33 114 -27 137 2 10 21 26 41
38 l38 20 -4 -62 c-4 -51 0 -70 19 -104 25 -45 71 -78 125 -90 51 -12 41 3
-15 23 -57 20 -95 60 -112 117 -24 81 33 176 119 199 53 15 55 25 3 18 l-38
-5 21 39 c11 21 30 40 41 43 16 5 17 8 6 15 -11 7 -11 15 -2 41 6 18 11 56 11
85 l0 52 -58 7 c-176 20 -345 187 -368 364 -6 48 -5 52 14 52 11 0 27 2 35 6
11 4 16 -7 21 -47 15 -115 96 -224 202 -274 58 -28 154 -45 154 -28 0 6 -23
13 -51 16 -142 17 -269 143 -285 284 -7 53 -5 56 39 67 26 6 27 5 27 -36 1
-86 68 -184 155 -224 51 -24 122 -33 110 -14 -3 6 -17 10 -31 10 -60 0 -156
67 -190 133 -18 33 -33 112 -27 135 2 10 21 26 41 38 l38 20 -4 -61 c-3 -48 0
-71 17 -103 25 -49 96 -95 138 -90 26 4 24 5 -16 17 -90 26 -147 120 -122 201
17 57 55 97 112 117 27 10 49 21 49 25 0 4 -6 6 -12 4 -7 -3 -25 -7 -40 -10
l-26 -6 21 40 c13 23 29 40 40 40 19 0 23 16 5 22 -9 3 -9 12 0 38 7 18 12 56
12 85 l0 52 -60 7 c-174 20 -343 188 -366 364 -6 48 -5 52 14 52 11 0 27 2 35
6 11 4 16 -7 20 -45 13 -109 99 -227 202 -276 56 -26 155 -44 155 -28 0 6 -23
13 -51 16 -142 17 -269 144 -286 286 -6 51 -4 54 40 65 26 6 27 5 27 -36 1
-79 56 -167 134 -213 48 -28 136 -45 136 -26 0 6 -14 11 -30 11 -66 0 -160 64
-196 133 -18 33 -33 112 -27 135 2 10 21 26 41 38 l38 20 -4 -62 c-4 -51 0
-70 19 -104 25 -45 71 -78 125 -90 51 -12 41 3 -15 23 -158 56 -156 253 2 317
l52 21 -41 -5 -41 -4 21 39 c12 22 29 39 39 39 19 0 23 16 5 22 -9 3 -9 12 0
38 7 18 12 57 12 86 0 52 -1 54 -27 54 -45 0 -127 25 -182 55 -107 58 -202
195 -217 312 -6 48 -5 52 17 56 13 2 -3 4 -36 4 -33 0 -47 -2 -31 -4 28 -5 28
-5 22 -56 -11 -84 -61 -179 -127 -242 -141 -135 -331 -162 -501 -73 -112 59
-208 195 -224 315 -6 48 -5 52 17 56 13 2 -1 4 -31 4 -30 0 -44 -2 -31 -4 22
-4 23 -8 17 -56 -10 -74 -57 -169 -116 -231 -169 -178 -448 -181 -615 -5 -63
66 -111 159 -121 236 -6 51 -6 51 22 56 16 2 2 4 -31 4 -33 0 -49 -2 -36 -4
22 -4 23 -8 17 -56 -10 -77 -58 -170 -121 -236 -167 -176 -446 -173 -615 5
-59 62 -106 157 -116 231 -6 48 -5 52 17 56 13 2 -1 4 -31 4 -30 0 -44 -2 -31
-4 22 -4 23 -8 17 -56 -16 -120 -112 -256 -224 -315 -170 -89 -360 -62 -501
73 -66 63 -116 158 -127 242 -6 51 -6 51 22 56 16 2 2 4 -31 4 -33 0 -49 -2
-36 -4z m41 -117 c0 -8 3 -21 6 -30 4 -12 0 -16 -15 -16 -23 0 -24 3 -15 38 7
24 24 30 24 8z m880 0 c0 -8 3 -21 6 -30 4 -12 0 -16 -16 -16 -16 0 -20 4 -16
16 3 9 6 22 6 30 0 8 5 14 10 14 6 0 10 -6 10 -14z m880 0 c0 -8 3 -21 6 -30
4 -12 0 -16 -16 -16 -16 0 -20 4 -16 16 3 9 6 22 6 30 0 8 5 14 10 14 6 0 10
-6 10 -14z m880 0 c0 -8 3 -21 6 -30 4 -12 0 -16 -16 -16 -16 0 -20 4 -16 16
3 9 6 22 6 30 0 8 5 14 10 14 6 0 10 -6 10 -14z m884 -8 c9 -35 8 -38 -15 -38
-15 0 -19 4 -15 16 3 9 6 22 6 30 0 22 17 16 24 -8z m-3509 -56 c6 -4 20 -23
31 -42 l20 -35 -76 0 -76 0 20 35 c23 39 34 50 56 50 8 0 20 -4 25 -8z m891
-6 c0 0 9 -17 20 -36 l20 -35 -76 0 -76 0 21 37 c11 21 27 39 35 41 12 4 53
-2 56 -7z m869 6 c6 -4 20 -23 31 -42 l20 -35 -76 0 -76 0 20 35 c23 39 34 50
56 50 8 0 20 -4 25 -8z m891 -6 c0 0 9 -17 20 -36 l20 -35 -76 0 -76 0 21 37
c11 21 27 39 35 41 12 4 53 -2 56 -7z m869 6 c6 -4 20 -23 31 -42 l20 -35 -76
0 -76 0 21 37 c23 42 55 58 80 40z m-3464 -108 c36 -18 66 -58 81 -105 23 -79
-33 -174 -120 -200 -116 -34 -234 83 -202 201 28 105 143 155 241 104z m880 0
c94 -48 112 -183 35 -260 -67 -67 -165 -67 -232 0 -134 134 28 348 197 260z
m880 0 c36 -18 66 -58 81 -105 23 -79 -33 -174 -120 -200 -116 -34 -238 86
-203 201 32 107 145 155 242 104z m880 0 c36 -18 66 -58 81 -105 23 -79 -33
-174 -120 -200 -116 -34 -234 83 -202 201 28 105 143 155 241 104z m880 0 c94
-48 112 -183 35 -260 -67 -67 -165 -67 -232 0 -135 135 27 349 197 260z
m-3779 -129 c-4 -55 -1 -70 21 -107 70 -120 248 -119 316 2 23 41 30 105 17
148 l-7 22 38 -22 c21 -12 40 -23 42 -25 2 -1 3 -24 2 -49 -4 -132 -115 -236
-251 -236 -132 0 -233 92 -254 229 -7 45 -3 50 49 83 17 10 30 19 30 19 1 1
-1 -28 -3 -64z m879 22 c-25 -110 64 -219 178 -219 67 0 124 31 157 87 23 39
26 54 22 108 l-4 63 38 -21 c36 -19 38 -22 38 -70 -1 -131 -113 -237 -250
-237 -137 0 -249 106 -250 237 0 48 2 51 38 71 20 11 38 20 39 19 1 0 -2 -17
-6 -38z m881 -22 c-4 -55 -1 -70 21 -107 70 -121 248 -119 316 2 19 34 23 52
19 104 l-4 62 38 -20 c43 -24 49 -39 37 -100 -24 -127 -119 -206 -249 -206
-106 0 -191 54 -232 147 -20 46 -28 135 -13 140 8 2 68 39 70 42 1 1 -1 -28
-3 -64z m880 0 c-4 -56 -1 -70 22 -110 70 -118 247 -116 315 5 23 41 31 105
17 147 l-7 22 40 -22 c39 -21 41 -24 41 -72 -1 -90 -59 -177 -145 -216 -54
-25 -156 -25 -210 0 -86 39 -144 126 -145 216 0 47 2 51 38 71 20 12 37 22 37
23 1 1 -1 -28 -3 -64z m879 22 c-35 -152 136 -274 271 -194 64 37 91 92 86
171 l-4 62 38 -20 c43 -24 49 -39 37 -100 -45 -244 -381 -286 -480 -60 -20 44
-28 136 -13 141 5 2 23 11 39 22 17 10 31 18 32 17 1 -1 -2 -18 -6 -39z
m-3611 -59 c1 -80 56 -167 137 -215 63 -36 171 -44 234 -16 96 43 169 142 169
230 0 46 4 49 46 33 25 -10 26 -13 21 -60 -9 -73 -39 -133 -97 -190 -75 -76
-124 -95 -240 -95 -115 0 -166 20 -238 92 -57 57 -90 122 -99 192 -5 47 -4 51
18 60 43 17 49 13 49 -31z m880 0 c1 -86 64 -178 152 -222 40 -20 67 -26 117
-26 143 1 254 98 268 236 6 58 8 59 47 44 21 -8 26 -16 26 -44 0 -97 -87 -223
-188 -273 -50 -25 -68 -28 -152 -28 -84 0 -102 3 -152 28 -99 48 -172 151
-185 257 -5 46 -4 50 18 59 43 17 49 13 49 -31z m880 0 c1 -86 64 -178 152
-222 65 -32 161 -35 224 -7 92 42 164 142 164 228 0 46 4 49 46 33 25 -10 26
-13 21 -59 -12 -104 -97 -219 -195 -264 -68 -31 -216 -31 -284 0 -99 45 -182
158 -195 262 -5 47 -4 51 18 60 43 17 49 13 49 -31z m883 -12 c10 -96 68 -175
161 -217 55 -25 157 -25 212 0 92 42 164 142 164 228 0 46 4 49 46 33 25 -10
26 -13 21 -60 -13 -106 -86 -209 -185 -257 -50 -25 -68 -28 -152 -28 -84 0
-102 3 -152 28 -101 50 -188 176 -188 273 0 27 5 37 23 44 39 16 44 11 50 -44z
m877 12 c1 -86 64 -178 152 -222 65 -32 161 -35 224 -7 92 42 164 142 164 228
0 46 4 49 46 33 25 -10 26 -13 21 -61 -9 -70 -42 -135 -99 -192 -72 -72 -123
-92 -238 -92 -116 0 -165 19 -240 95 -58 57 -88 117 -97 190 -5 46 -4 50 18
59 43 17 49 13 49 -31z m-3607 -27 c13 -111 98 -226 205 -278 50 -24 69 -27
152 -28 84 0 102 3 151 27 109 54 193 167 206 279 4 38 9 49 20 45 8 -4 24 -6
35 -6 19 0 20 -4 15 -52 -9 -72 -66 -183 -124 -241 -27 -28 -80 -64 -122 -85
-72 -36 -79 -37 -181 -37 -102 0 -109 1 -181 37 -130 64 -228 195 -245 325 -6
51 -6 51 22 56 16 2 32 5 35 6 3 0 9 -21 12 -48z m884 -11 c6 -33 21 -79 32
-103 29 -59 104 -132 171 -165 48 -24 66 -27 150 -27 83 1 102 4 151 28 67 32
152 118 180 182 11 25 23 68 26 96 4 38 9 49 20 45 8 -4 24 -6 35 -6 19 0 20
-4 14 -52 -9 -74 -65 -184 -123 -241 -27 -28 -80 -64 -123 -85 -71 -36 -78
-37 -180 -37 -102 0 -109 1 -181 37 -41 20 -96 58 -122 83 -57 56 -115 171
-124 242 -6 51 -5 51 23 56 16 2 31 5 34 6 3 0 11 -26 17 -59z m876 11 c13
-113 96 -225 205 -278 50 -24 68 -27 152 -27 84 0 102 3 152 27 109 53 192
165 205 278 4 38 9 49 20 45 8 -4 24 -6 35 -6 19 0 20 -4 14 -52 -17 -131
-115 -262 -245 -326 -72 -36 -79 -37 -181 -37 -102 0 -109 1 -181 37 -130 64
-228 195 -245 325 -6 51 -6 51 22 56 16 2 32 5 35 6 3 0 9 -21 12 -48z m880
-1 c3 -27 15 -70 26 -95 28 -64 113 -150 180 -182 49 -24 68 -27 151 -28 84 0
102 3 150 27 67 33 142 106 171 165 11 24 26 70 32 103 8 44 15 59 25 55 8 -3
23 -5 34 -5 19 0 20 -4 15 -52 -9 -72 -67 -186 -124 -243 -26 -25 -81 -63
-122 -83 -72 -36 -79 -37 -181 -37 -102 0 -109 1 -181 37 -42 21 -95 57 -122
85 -58 57 -114 167 -123 240 -6 51 -6 51 22 56 16 2 32 5 35 6 3 0 9 -21 12
-49z m877 22 c0 -45 37 -141 72 -187 135 -176 389 -194 543 -38 54 55 94 135
102 204 4 38 9 49 20 45 8 -4 24 -6 35 -6 19 0 20 -4 14 -52 -17 -131 -115
-262 -245 -326 -72 -36 -79 -37 -181 -37 -102 0 -109 1 -181 37 -42 21 -95 57
-122 85 -58 58 -115 169 -124 240 -6 51 -5 51 23 56 16 2 32 5 37 6 4 0 7 -12
7 -27z m-2710 -96 c0 -8 3 -21 6 -30 4 -12 0 -16 -16 -16 -16 0 -20 4 -16 16
3 9 6 22 6 30 0 8 5 14 10 14 6 0 10 -6 10 -14z m884 -8 c9 -35 8 -38 -15 -38
-15 0 -19 4 -15 16 3 9 6 22 6 30 0 22 17 16 24 -8z m876 8 c0 -8 3 -21 6 -30
4 -12 0 -16 -15 -16 -23 0 -24 3 -15 38 7 24 24 30 24 8z m880 0 c0 -8 3 -21
6 -30 4 -12 0 -16 -16 -16 -16 0 -20 4 -16 16 3 9 6 22 6 30 0 8 5 14 10 14 6
0 10 -6 10 -14z m-2595 -104 l21 -37 -76 0 -76 0 21 37 c17 33 25 38 55 38 30
0 38 -5 55 -38z m880 0 l21 -37 -76 0 -76 0 21 37 c17 33 25 38 55 38 30 0 38
-5 55 -38z m880 0 l21 -37 -76 0 -76 0 21 37 c17 33 25 38 55 38 30 0 38 -5
55 -38z m880 0 l21 -37 -76 0 -76 0 21 37 c17 33 25 38 55 38 30 0 38 -5 55
-38z m-2614 -68 c36 -18 66 -58 81 -105 23 -78 -33 -174 -118 -199 -117 -35
-236 82 -204 200 28 105 143 155 241 104z m865 7 c142 -65 126 -266 -24 -312
-116 -34 -238 86 -203 201 16 54 56 97 106 115 53 19 72 18 121 -4z m859 8
c85 -24 140 -119 116 -201 -27 -88 -121 -143 -203 -119 -150 46 -166 247 -24
312 48 22 58 22 111 8z m916 -15 c94 -48 112 -183 35 -260 -66 -66 -166 -66
-232 0 -135 135 27 348 197 260z m-2899 -129 c-4 -55 -1 -70 21 -107 70 -120
248 -119 316 2 23 42 30 105 17 148 l-8 23 39 -24 c33 -21 38 -29 41 -67 6
-86 -55 -181 -142 -221 -55 -25 -157 -25 -211 0 -86 39 -144 126 -145 216 0
47 2 51 38 71 20 12 37 22 37 23 1 1 -1 -28 -3 -64z m879 22 c-35 -152 136
-274 271 -194 64 37 91 92 86 171 l-4 62 38 -20 c43 -24 49 -39 37 -100 -23
-126 -120 -206 -249 -206 -106 0 -191 54 -232 147 -19 44 -27 135 -12 140 5 2
23 11 39 22 17 10 31 18 32 17 1 -1 -2 -18 -6 -39z m881 -22 c-4 -55 -1 -70
21 -107 70 -120 248 -119 316 2 23 41 31 105 17 147 l-7 22 40 -22 c41 -22 45
-31 41 -92 -5 -75 -69 -162 -145 -196 -54 -25 -157 -25 -210 0 -75 35 -126 99
-144 183 -14 59 -6 80 37 105 20 11 37 21 37 22 1 1 -1 -28 -3 -64z m879 22
c-35 -152 136 -274 271 -194 64 37 91 92 86 171 l-4 62 38 -21 c36 -19 38 -22
38 -70 -1 -89 -59 -176 -145 -216 -53 -25 -156 -25 -210 0 -85 38 -144 126
-145 213 0 44 3 49 38 72 20 13 38 23 39 22 1 -1 -2 -18 -6 -39z m-2728 -73
c10 -98 93 -198 185 -224 57 -16 142 -12 188 9 92 42 164 142 164 228 0 42 1
43 28 37 43 -11 45 -14 39 -65 -13 -105 -87 -208 -185 -256 -50 -25 -68 -28
-152 -28 -81 0 -103 4 -145 25 -105 51 -189 168 -190 264 0 50 6 57 56 65 3 1
9 -24 12 -55z m877 13 c0 -88 73 -187 169 -230 63 -28 171 -20 234 16 81 48
136 135 137 215 0 41 1 42 28 36 43 -10 45 -14 40 -64 -10 -99 -92 -211 -193
-260 -69 -34 -217 -36 -285 -4 -109 51 -191 164 -194 266 -1 52 6 60 57 67 4
1 7 -18 7 -42z m880 1 c1 -80 56 -167 137 -215 63 -36 171 -44 234 -16 96 43
169 142 169 230 0 42 1 43 28 37 43 -11 45 -14 38 -67 -12 -107 -91 -212 -196
-261 -68 -32 -216 -30 -285 4 -105 51 -189 168 -190 264 0 50 7 58 58 65 4 1
7 -18 7 -41z m880 0 c1 -80 56 -167 136 -214 53 -31 147 -42 211 -25 97 26
180 124 190 224 6 55 7 57 32 50 41 -9 44 -13 39 -63 -10 -99 -92 -211 -193
-260 -42 -21 -64 -25 -145 -25 -84 0 -102 3 -151 28 -104 51 -180 159 -183
261 -1 50 6 58 57 65 4 1 7 -18 7 -41z m-2727 -25 c8 -72 41 -138 98 -198 99
-105 229 -138 370 -95 64 19 80 29 140 89 58 58 70 76 88 135 12 37 21 79 21
93 0 19 4 24 16 19 9 -3 25 -6 36 -6 19 0 20 -4 15 -52 -9 -72 -67 -186 -124
-243 -26 -25 -81 -63 -122 -83 -72 -36 -79 -37 -181 -37 -102 0 -109 1 -181
37 -130 64 -228 195 -245 325 -6 51 -6 51 22 56 16 2 32 5 35 6 3 0 9 -20 12
-46z m881 -5 c25 -185 197 -321 387 -305 165 14 307 148 326 308 4 38 9 49 20
45 8 -4 24 -6 35 -6 19 0 20 -4 14 -52 -17 -131 -115 -262 -245 -326 -72 -36
-79 -37 -181 -37 -102 0 -109 1 -181 37 -42 21 -95 57 -122 85 -58 58 -115
169 -124 240 -6 51 -5 51 23 56 16 2 32 5 35 6 4 0 10 -22 13 -51z m879 3 c19
-160 161 -294 326 -308 190 -16 362 120 387 306 5 40 10 51 21 47 8 -4 24 -6
35 -6 19 0 20 -4 15 -52 -9 -72 -66 -183 -124 -241 -27 -28 -80 -64 -122 -85
-72 -36 -79 -37 -181 -37 -102 0 -109 1 -181 37 -130 64 -228 195 -245 325 -6
51 -6 51 22 56 16 2 32 5 35 6 3 0 9 -21 12 -48z m881 -1 c4 -27 15 -70 26
-95 27 -64 112 -149 179 -182 49 -24 68 -27 151 -27 83 0 102 3 151 27 107 52
193 169 206 280 5 36 9 47 20 43 8 -4 24 -6 35 -6 19 0 20 -4 14 -52 -17 -131
-115 -262 -245 -326 -72 -36 -79 -37 -181 -37 -102 0 -109 1 -181 37 -41 20
-95 58 -122 84 -57 57 -114 168 -123 241 -6 51 -6 51 22 56 16 2 32 5 35 6 4
0 9 -21 13 -49z m-2714 -74 c0 -8 3 -21 6 -30 4 -12 0 -16 -15 -16 -23 0 -24
3 -15 38 7 24 24 30 24 8z m880 0 c0 -8 3 -21 6 -30 4 -12 0 -16 -16 -16 -16
0 -20 4 -16 16 3 9 6 22 6 30 0 8 5 14 10 14 6 0 10 -6 10 -14z m884 -8 c9
-35 8 -38 -14 -38 -11 0 -20 3 -20 8 0 19 13 52 20 52 4 0 10 -10 14 -22z
m876 8 c0 -8 3 -21 6 -30 4 -12 0 -16 -16 -16 -16 0 -20 4 -16 16 3 9 6 22 6
30 0 8 5 14 10 14 6 0 10 -6 10 -14z m884 -8 c9 -35 8 -38 -15 -38 -15 0 -19
4 -15 16 3 9 6 22 6 30 0 22 17 16 24 -8z m-3477 -98 l21 -40 -26 7 c-15 3
-38 6 -52 6 -14 0 -37 -3 -52 -6 l-26 -7 21 40 c19 35 26 40 57 40 31 0 38 -5
57 -40z m880 0 l21 -40 -26 7 c-15 3 -38 6 -52 6 -14 0 -37 -3 -52 -6 l-26 -7
21 40 c19 35 26 40 57 40 31 0 38 -5 57 -40z m880 0 l21 -40 -26 7 c-15 3 -38
6 -52 6 -14 0 -37 -3 -52 -6 l-26 -7 21 40 c19 35 26 40 57 40 31 0 38 -5 57
-40z m880 0 l21 -40 -26 7 c-15 3 -38 6 -52 6 -14 0 -37 -3 -52 -6 l-26 -7 21
40 c19 35 26 40 57 40 31 0 38 -5 57 -40z m880 0 l21 -40 -26 7 c-15 3 -38 6
-52 6 -14 0 -37 -3 -52 -6 l-26 -7 21 40 c19 35 26 40 57 40 31 0 38 -5 57
-40z m-3511 -59 c109 -50 134 -183 50 -267 -65 -65 -167 -65 -232 0 -83 83
-57 218 50 267 52 23 80 23 132 0z m880 0 c107 -49 133 -184 50 -267 -89 -89
-243 -48 -275 74 -22 79 17 158 93 193 52 23 80 23 132 0z m880 0 c109 -50
134 -183 50 -267 -89 -89 -240 -49 -277 74 -22 76 18 158 95 193 52 23 80 23
132 0z m895 -7 c94 -48 112 -183 35 -260 -89 -89 -243 -48 -275 74 -38 139
110 254 240 186z m865 7 c107 -49 133 -184 50 -267 -65 -65 -167 -65 -232 0
-84 84 -59 217 50 267 52 23 80 23 132 0z m-3764 -134 c-3 -51 0 -72 17 -105
62 -122 259 -123 322 0 21 42 28 105 15 146 l-7 22 38 -22 c21 -12 40 -23 42
-25 11 -8 -1 -100 -18 -137 -40 -92 -125 -146 -231 -146 -134 0 -232 88 -255
226 -7 45 -4 51 50 84 17 10 30 19 30 19 1 1 -1 -27 -3 -62z m879 20 c-35
-151 137 -273 273 -193 62 36 89 92 84 170 l-4 62 38 -21 c36 -19 38 -22 38
-70 -1 -89 -59 -176 -145 -216 -53 -25 -156 -25 -210 0 -86 39 -144 126 -145
216 0 48 2 51 38 71 20 11 38 20 39 19 1 0 -2 -17 -6 -38z m881 -20 c-3 -51 0
-72 17 -105 63 -123 259 -123 322 0 17 33 20 55 17 103 l-4 62 36 -20 c19 -12
37 -22 39 -24 2 -1 3 -24 2 -49 -3 -89 -63 -177 -146 -215 -54 -25 -157 -25
-210 0 -50 23 -109 84 -130 134 -18 43 -24 129 -10 134 8 2 68 39 70 42 1 1
-1 -27 -3 -62z m880 -2 c-4 -55 -1 -70 21 -107 69 -119 248 -118 316 2 23 41
31 105 17 147 l-7 22 40 -22 c39 -21 41 -24 41 -72 -1 -90 -59 -177 -145 -216
-54 -25 -157 -25 -210 0 -86 40 -144 127 -145 216 0 47 2 51 38 71 20 12 37
22 37 23 1 1 -1 -28 -3 -64z m879 22 c-35 -154 137 -273 276 -192 61 36 86 89
81 170 l-4 61 38 -20 c43 -24 49 -39 37 -100 -11 -60 -29 -93 -76 -138 -51
-49 -99 -68 -175 -68 -104 1 -189 55 -229 146 -20 44 -28 136 -13 141 5 2 23
11 39 22 17 10 31 18 32 17 1 -1 -2 -18 -6 -39z m-3609 -72 c8 -98 94 -200
191 -226 57 -15 154 -6 203 19 79 40 143 139 144 220 0 41 1 42 28 36 43 -11
45 -14 39 -65 -14 -115 -104 -228 -217 -270 -76 -29 -194 -24 -265 11 -105 51
-186 164 -189 262 -1 52 4 59 55 67 4 1 9 -24 11 -54z m881 1 c9 -87 54 -156
133 -202 53 -31 147 -42 211 -25 97 26 180 124 190 224 6 55 7 57 32 50 42
-10 44 -13 38 -66 -8 -67 -42 -133 -97 -187 -66 -67 -128 -94 -225 -98 -108
-5 -176 20 -251 93 -64 63 -96 128 -98 199 -1 50 4 57 55 65 3 1 9 -23 12 -53z
m877 12 c1 -81 64 -179 144 -221 33 -17 58 -22 126 -22 68 0 93 5 126 22 80
42 143 140 144 221 0 41 1 42 28 36 43 -11 45 -14 39 -65 -13 -106 -90 -209
-195 -261 -68 -33 -216 -33 -284 0 -110 54 -189 164 -192 266 -1 50 6 58 57
65 4 1 7 -18 7 -41z m883 -12 c9 -87 54 -156 133 -202 53 -31 147 -42 211 -25
97 26 180 124 190 224 6 55 7 57 32 50 14 -3 30 -8 35 -11 13 -7 -1 -97 -23
-148 -30 -66 -117 -147 -188 -174 -79 -30 -196 -26 -268 10 -105 51 -189 168
-190 264 0 50 6 57 56 65 3 1 9 -23 12 -53z m877 12 c1 -81 65 -180 144 -220
49 -25 146 -34 203 -19 97 26 183 128 191 226 4 53 5 55 31 48 42 -10 44 -13
38 -66 -13 -102 -91 -208 -192 -257 -71 -35 -189 -40 -265 -11 -117 44 -211
165 -214 275 -1 50 6 58 57 65 4 1 7 -18 7 -41z m-3607 -33 c15 -108 101 -221
207 -273 48 -24 67 -27 150 -27 116 0 163 19 245 96 62 59 101 131 111 208 5
40 10 51 21 47 8 -4 24 -6 35 -6 19 0 20 -4 14 -52 -9 -74 -65 -184 -123 -241
-27 -28 -80 -64 -122 -85 -72 -36 -79 -37 -180 -37 -100 0 -110 2 -178 34
-128 60 -232 197 -249 328 -6 51 -6 51 22 55 40 5 40 4 47 -47z m881 3 c10
-76 49 -148 111 -207 82 -77 129 -96 245 -96 83 0 102 3 151 28 107 52 193
169 206 280 5 36 9 47 20 43 8 -4 24 -6 35 -6 19 0 20 -4 14 -52 -17 -131
-115 -262 -245 -326 -72 -36 -79 -37 -181 -37 -102 0 -109 1 -181 37 -130 64
-228 195 -245 325 -6 51 -6 51 22 56 16 2 32 5 35 6 4 0 10 -22 13 -51z m879
3 c13 -111 99 -226 207 -279 48 -24 67 -27 150 -27 83 0 102 3 150 27 109 53
194 168 207 279 4 38 9 49 20 45 8 -4 24 -6 35 -6 19 0 20 -4 14 -52 -17 -131
-115 -262 -245 -326 -72 -36 -79 -37 -181 -37 -102 0 -109 1 -181 37 -130 64
-228 195 -245 325 -6 51 -6 51 22 56 16 2 32 5 35 6 3 0 9 -21 12 -48z m880 0
c9 -75 50 -151 112 -210 82 -77 129 -96 245 -96 83 0 102 3 151 28 67 33 152
119 179 182 11 25 22 68 26 96 5 38 10 49 21 45 8 -4 24 -6 35 -6 19 0 20 -4
14 -52 -17 -131 -115 -262 -245 -326 -72 -36 -79 -37 -181 -37 -102 0 -109 1
-181 37 -130 64 -228 195 -245 325 -6 51 -6 51 22 56 16 2 32 5 35 6 3 0 9
-21 12 -48z m881 -3 c15 -112 97 -223 206 -276 48 -24 67 -27 150 -27 83 0
102 3 150 27 106 52 182 151 206 268 6 30 14 54 17 53 4 -2 19 -3 33 -3 26 0
26 -1 20 -52 -17 -132 -121 -269 -249 -329 -68 -32 -78 -34 -178 -34 -101 0
-108 1 -180 37 -42 21 -95 57 -122 85 -58 57 -114 167 -123 240 -6 51 -6 51
22 56 16 2 32 5 35 6 4 0 10 -22 13 -51z m-2714 -72 c0 -8 3 -21 6 -30 4 -12
0 -16 -16 -16 -16 0 -20 4 -16 16 3 9 6 22 6 30 0 8 5 14 10 14 6 0 10 -6 10
-14z m884 -8 c9 -35 8 -38 -14 -38 -11 0 -20 3 -20 8 0 19 13 52 20 52 4 0 10
-10 14 -22z m880 0 c9 -35 8 -38 -14 -38 -11 0 -20 3 -20 8 0 19 13 52 20 52
4 0 10 -10 14 -22z m876 8 c0 -8 3 -21 6 -30 4 -12 0 -16 -16 -16 -16 0 -20 4
-16 16 3 9 6 22 6 30 0 8 5 14 10 14 6 0 10 -6 10 -14z m-2593 -106 l21 -40
-26 7 c-15 3 -38 6 -52 6 -14 0 -37 -3 -52 -6 l-26 -7 21 40 c19 35 26 40 57
40 31 0 38 -5 57 -40z m880 0 l21 -40 -26 7 c-15 3 -38 6 -52 6 -14 0 -37 -3
-52 -6 l-26 -7 21 40 c19 35 26 40 57 40 31 0 38 -5 57 -40z m880 0 l21 -40
-26 7 c-15 3 -38 6 -52 6 -14 0 -37 -3 -52 -6 l-26 -7 21 40 c19 35 26 40 57
40 31 0 38 -5 57 -40z m880 0 l21 -40 -26 7 c-15 3 -38 6 -52 6 -14 0 -37 -3
-52 -6 l-26 -7 21 40 c19 35 26 40 57 40 31 0 38 -5 57 -40z m-2631 -59 c109
-50 134 -183 50 -267 -88 -88 -240 -49 -276 72 -23 76 18 160 94 195 52 23 80
23 132 0z m880 0 c107 -49 133 -184 50 -267 -65 -65 -167 -65 -232 0 -84 84
-59 217 50 267 52 23 80 23 132 0z m880 0 c109 -50 134 -183 50 -267 -65 -65
-167 -65 -232 0 -83 83 -57 218 50 267 52 23 80 23 132 0z m880 0 c108 -49
133 -184 50 -267 -65 -65 -167 -65 -232 0 -84 84 -59 217 50 267 52 23 80 23
132 0z m-2884 -136 c-4 -56 -1 -70 22 -110 69 -117 248 -114 315 5 23 41 31
105 17 147 l-7 22 40 -22 c39 -21 41 -24 41 -72 -1 -90 -66 -184 -155 -221
-50 -21 -140 -21 -190 0 -89 37 -154 131 -155 221 0 47 2 51 38 71 20 12 37
22 37 23 1 1 -1 -28 -3 -64z m879 22 c-11 -44 -1 -94 27 -139 67 -107 246
-103 310 7 19 33 22 52 20 106 l-3 66 35 -21 c47 -27 51 -35 44 -81 -10 -61
-31 -106 -72 -149 -153 -160 -431 -57 -432 159 0 48 2 51 38 71 20 11 38 20
39 19 1 0 -2 -17 -6 -38z m881 -24 c-2 -57 1 -75 20 -108 68 -116 250 -113
317 5 23 41 31 105 17 147 l-7 22 40 -22 c39 -21 41 -24 41 -72 -1 -130 -112
-236 -249 -238 -128 -1 -233 93 -256 229 -7 45 -4 51 50 84 17 10 30 19 30 19
1 1 -1 -29 -3 -66z m879 24 c-26 -111 61 -217 178 -217 71 0 123 28 157 85 23
39 26 54 22 108 l-4 63 38 -21 c36 -19 38 -22 38 -70 -1 -90 -66 -184 -155
-221 -50 -21 -140 -21 -190 0 -89 37 -154 131 -155 221 0 48 2 51 38 71 20 11
38 20 39 19 1 0 -2 -17 -6 -38z m-2728 -72 c14 -135 127 -235 267 -235 140 0
253 100 267 235 6 59 8 60 49 45 25 -10 26 -13 21 -61 -13 -104 -91 -210 -192
-259 -42 -21 -64 -25 -145 -25 -81 0 -103 4 -145 25 -105 51 -189 168 -190
264 0 50 6 57 56 65 3 1 9 -24 12 -54z m877 13 c1 -86 64 -178 152 -222 65
-32 161 -35 224 -7 92 42 164 142 164 228 0 42 1 43 28 37 39 -10 42 -12 42
-43 0 -127 -121 -269 -260 -304 -69 -18 -171 -7 -231 24 -99 50 -173 153 -186
257 -5 48 -4 52 18 61 43 17 49 13 49 -31z m880 0 c1 -86 64 -178 152 -222 65
-32 161 -35 224 -7 92 42 164 142 164 228 0 46 4 49 46 33 25 -10 26 -13 21
-62 -13 -109 -90 -208 -203 -264 -49 -24 -63 -26 -142 -22 -105 5 -165 30
-232 98 -59 58 -92 126 -94 192 -1 52 6 60 57 67 4 1 7 -18 7 -41z m883 -13
c22 -212 279 -310 445 -170 48 40 82 106 89 169 6 54 7 55 32 49 41 -9 44 -13
39 -63 -10 -100 -92 -211 -193 -260 -42 -21 -65 -25 -145 -25 -81 0 -102 4
-145 25 -101 49 -179 155 -192 259 -5 47 -4 51 18 60 41 17 46 13 52 -44z
m-2730 -17 c13 -110 97 -222 206 -276 49 -24 68 -27 151 -27 83 0 102 3 151
27 109 54 179 147 202 268 8 44 15 59 25 55 8 -3 23 -5 34 -5 19 0 20 -4 14
-52 -17 -131 -115 -262 -245 -326 -72 -36 -79 -37 -180 -37 -99 0 -111 2 -174
32 -134 64 -235 196 -253 330 -6 51 -6 51 22 56 16 2 32 5 35 6 3 0 9 -22 12
-51z m881 0 c16 -117 88 -213 202 -269 64 -31 76 -34 160 -33 79 0 99 4 148
28 107 53 190 164 203 275 4 40 9 51 20 47 8 -4 24 -6 35 -6 19 0 20 -4 14
-52 -18 -135 -119 -268 -251 -330 -65 -31 -77 -33 -176 -33 -104 0 -107 1
-192 43 -67 33 -95 54 -128 95 -54 67 -98 161 -106 225 -6 50 -5 50 23 55 16
2 32 5 35 6 4 0 10 -22 13 -51z m879 0 c9 -69 48 -148 103 -202 208 -208 571
-87 610 205 5 38 10 49 21 45 8 -4 24 -6 35 -6 19 0 20 -4 14 -52 -17 -128
-112 -256 -239 -325 -71 -37 -74 -38 -182 -38 -104 0 -114 2 -180 33 -132 62
-233 195 -251 329 -6 51 -6 51 22 56 16 2 32 5 35 6 3 0 9 -22 12 -51z m881 0
c15 -114 96 -222 205 -276 49 -24 68 -27 151 -27 83 0 102 3 151 28 67 32 152
119 180 182 11 25 23 68 26 96 4 38 9 49 20 45 8 -4 24 -6 35 -6 19 0 20 -4
14 -52 -18 -135 -119 -267 -253 -331 -63 -30 -75 -32 -174 -32 -101 0 -108 1
-180 37 -130 64 -228 195 -245 325 -6 51 -6 51 22 56 16 2 32 5 35 6 4 0 10
-22 13 -51z m-2714 -72 c0 -8 3 -21 6 -30 4 -12 0 -16 -15 -16 -23 0 -24 3
-15 38 7 24 24 30 24 8z m880 0 c0 -8 3 -21 6 -30 4 -12 0 -16 -16 -16 -16 0
-20 4 -16 16 3 9 6 22 6 30 0 8 5 14 10 14 6 0 10 -6 10 -14z m880 0 c0 -8 3
-21 6 -30 4 -12 0 -16 -16 -16 -16 0 -20 4 -16 16 3 9 6 22 6 30 0 8 5 14 10
14 6 0 10 -6 10 -14z m880 0 c0 -8 3 -21 6 -30 4 -12 0 -16 -16 -16 -16 0 -20
4 -16 16 3 9 6 22 6 30 0 8 5 14 10 14 6 0 10 -6 10 -14z m880 0 c0 -8 3 -21
6 -30 4 -12 0 -16 -16 -16 -16 0 -20 4 -16 16 3 9 6 22 6 30 0 8 5 14 10 14 6
0 10 -6 10 -14z m-3494 -70 c0 0 9 -17 20 -36 l20 -35 -76 0 -76 0 21 37 c11
21 27 39 35 41 12 4 53 -2 56 -7z m880 0 c0 0 9 -17 20 -36 l20 -35 -76 0 -76
0 21 37 c11 21 27 39 35 41 12 4 53 -2 56 -7z m880 0 c0 0 9 -17 20 -36 l20
-35 -76 0 -76 0 21 37 c11 21 27 39 35 41 12 4 53 -2 56 -7z m880 0 c0 0 9
-17 20 -36 l20 -35 -76 0 -76 0 21 37 c11 21 27 39 35 41 12 4 53 -2 56 -7z
m880 0 c0 0 9 -17 20 -36 l20 -35 -76 0 -76 0 21 37 c11 21 27 39 35 41 12 4
53 -2 56 -7z m-3490 -95 c48 -22 80 -59 96 -112 34 -114 -89 -234 -204 -200
-115 35 -160 172 -86 266 24 31 91 65 128 65 14 0 43 -9 66 -19z m890 -6 c63
-31 87 -70 88 -145 1 -48 -3 -62 -28 -94 -60 -79 -163 -96 -235 -38 -100 81
-86 222 29 280 57 28 84 28 146 -3z m861 10 c21 -9 46 -23 57 -33 24 -22 55
-90 56 -123 0 -38 -46 -122 -77 -141 -73 -43 -165 -28 -222 37 -71 82 -40 209
63 256 50 23 76 23 123 4z m889 -4 c48 -22 80 -59 96 -112 34 -114 -89 -234
-204 -199 -53 15 -115 77 -123 123 -8 42 8 106 37 142 24 31 91 65 128 65 14
0 43 -9 66 -19z m880 0 c107 -49 133 -184 50 -267 -67 -67 -165 -67 -232 0
-62 62 -67 151 -12 221 24 31 91 65 128 65 14 0 43 -9 66 -19z m-3764 -138
c-2 -57 1 -75 20 -108 68 -116 250 -113 317 5 23 41 31 105 17 147 l-7 22 40
-22 c26 -14 41 -30 42 -42 8 -149 -103 -267 -251 -267 -135 0 -247 106 -252
239 -2 26 2 48 7 50 8 2 69 39 70 42 1 1 -1 -29 -3 -66z m879 24 c-18 -76 23
-163 93 -196 57 -28 129 -27 180 2 66 37 105 141 82 215 l-7 21 40 -22 c40
-21 41 -24 41 -74 0 -70 -11 -95 -71 -158 -100 -106 -248 -109 -353 -8 -50 49
-76 105 -76 168 0 48 2 51 38 71 20 11 38 20 39 19 1 0 -2 -17 -6 -38z m884
-30 c0 -62 4 -79 25 -110 38 -56 90 -80 160 -75 113 8 176 82 168 195 l-4 59
38 -20 c46 -26 55 -57 34 -128 -19 -67 -60 -116 -124 -151 -142 -77 -305 -16
-361 136 -34 92 -30 107 34 147 17 10 30 19 30 19 0 1 0 -32 0 -72z m877 11
c-7 -119 63 -197 177 -198 124 0 214 120 177 237 l-7 22 40 -22 c39 -21 41
-24 41 -72 -1 -88 -55 -170 -145 -218 -86 -45 -229 -16 -296 61 -43 48 -59 91
-59 154 0 51 2 54 38 74 20 12 37 22 37 23 1 1 -1 -27 -3 -61z m879 19 c-11
-45 -1 -94 29 -142 65 -105 244 -99 308 10 19 33 22 52 20 105 l-3 66 37 -21
c43 -23 51 -43 37 -103 -13 -60 -30 -90 -76 -134 -154 -149 -416 -46 -425 168
-2 26 2 49 7 51 6 2 24 11 40 22 17 10 31 18 32 17 1 -1 -2 -18 -6 -39z
m-3611 -59 c1 -86 64 -178 152 -222 65 -32 161 -35 224 -7 92 42 164 142 164
228 0 46 4 49 46 33 25 -10 26 -13 21 -60 -9 -72 -39 -133 -94 -188 -76 -75
-129 -97 -243 -97 -86 0 -101 3 -154 30 -98 49 -170 150 -183 254 -5 47 -4 51
18 60 43 17 49 13 49 -31z m883 -12 c13 -130 109 -221 245 -233 60 -5 76 -2
129 22 33 14 75 41 92 59 34 35 71 127 71 176 0 33 5 35 46 20 26 -10 26 -12
20 -66 -12 -106 -90 -210 -191 -256 -40 -18 -68 -22 -145 -23 -86 0 -101 3
-154 30 -98 49 -170 150 -183 254 -5 47 -4 51 18 60 41 17 46 13 52 -43z m877
12 c1 -83 63 -172 154 -221 33 -17 57 -22 121 -21 91 0 126 14 184 73 47 48
70 97 78 161 6 51 6 51 37 44 17 -3 35 -10 39 -14 13 -12 -22 -132 -55 -182
-61 -97 -148 -148 -263 -156 -126 -8 -223 36 -298 133 -36 49 -66 125 -70 182
-2 27 7 33 66 42 4 0 7 -18 7 -41z m880 5 c0 -49 38 -129 80 -171 18 -18 55
-45 83 -59 46 -23 60 -25 123 -20 39 3 85 12 102 21 84 43 140 122 149 211 6
59 8 60 49 45 25 -10 26 -13 21 -61 -13 -104 -85 -205 -183 -254 -53 -27 -69
-30 -154 -30 -85 0 -101 3 -154 30 -96 49 -174 155 -191 262 -6 39 -4 44 17
52 47 19 58 14 58 -26z m880 -5 c1 -86 64 -178 152 -222 65 -32 161 -35 224
-7 92 42 164 142 164 228 0 46 4 49 46 33 25 -10 26 -13 21 -61 -13 -104 -85
-205 -183 -254 -53 -27 -68 -30 -154 -30 -114 0 -167 22 -243 97 -55 55 -85
116 -94 188 -5 46 -4 50 18 59 43 17 49 13 49 -31z m-3607 -27 c13 -111 97
-225 205 -278 50 -25 68 -28 152 -28 84 0 102 3 152 28 109 54 189 161 204
276 5 40 10 51 21 47 8 -4 24 -6 35 -6 19 0 20 -4 14 -52 -17 -131 -115 -262
-245 -326 -72 -36 -79 -37 -181 -37 -102 0 -109 1 -181 37 -130 64 -228 195
-245 325 -6 51 -6 51 22 56 16 2 32 5 35 6 3 0 9 -21 12 -48z m881 -3 c15
-112 97 -223 206 -276 48 -24 67 -27 150 -27 79 0 103 4 143 24 110 54 202
177 214 286 5 38 9 45 27 45 41 0 49 -14 41 -70 -11 -77 -66 -178 -130 -239
-175 -166 -440 -159 -605 15 -59 62 -106 157 -116 231 -6 51 -6 51 22 56 16 2
32 5 35 6 4 0 10 -22 13 -51z m886 -15 c19 -113 92 -208 199 -261 50 -24 67
-27 151 -26 116 1 166 20 245 95 62 58 99 129 110 207 7 53 11 57 54 45 22 -5
23 -9 17 -56 -28 -206 -215 -367 -428 -367 -205 0 -400 164 -424 357 -7 59 1
73 42 73 19 0 23 -9 34 -67z m878 7 c21 -115 97 -216 202 -268 48 -24 67 -27
150 -27 83 0 102 3 150 27 109 54 191 164 206 277 5 40 10 51 21 47 8 -4 24
-6 35 -6 19 0 20 -4 14 -52 -10 -83 -66 -187 -135 -250 -97 -91 -198 -125
-334 -115 -91 7 -153 34 -242 105 -44 35 -63 60 -95 125 -22 46 -42 105 -46
134 -6 51 -6 51 22 56 16 2 32 5 35 6 4 0 12 -26 17 -59z m876 8 c15 -114 95
-221 204 -275 50 -25 68 -28 152 -28 84 0 102 3 152 28 108 53 192 167 205
278 4 38 9 49 20 45 8 -4 24 -6 35 -6 19 0 20 -4 14 -52 -17 -131 -115 -262
-245 -326 -72 -36 -79 -37 -181 -37 -102 0 -109 1 -181 37 -130 64 -228 195
-245 325 -6 51 -6 51 22 56 16 2 32 5 35 6 4 0 10 -22 13 -51z m-2714 -72 c0
-8 3 -21 6 -30 4 -12 0 -16 -16 -16 -16 0 -20 4 -16 16 3 9 6 22 6 30 0 8 5
14 10 14 6 0 10 -6 10 -14z m884 -8 c9 -35 8 -38 -15 -38 -15 0 -19 4 -15 16
3 9 6 22 6 30 0 22 17 16 24 -8z m876 8 c0 -8 3 -21 6 -30 4 -12 0 -16 -15
-16 -23 0 -24 3 -15 38 7 24 24 30 24 8z m880 0 c0 -8 3 -21 6 -30 4 -12 0
-16 -16 -16 -16 0 -20 4 -16 16 3 9 6 22 6 30 0 8 5 14 10 14 6 0 10 -6 10
-14z m-2614 -70 c0 0 9 -17 20 -36 l20 -35 -76 0 -76 0 21 37 c11 21 27 39 35
41 12 4 53 -2 56 -7z m898 -31 l24 -40 -77 0 -77 0 20 35 c25 43 35 51 64 48
14 -2 31 -18 46 -43z m862 32 c0 -1 10 -18 22 -37 l21 -35 -79 0 -79 0 22 35
c27 45 37 51 67 44 14 -3 25 -6 26 -7z m880 -1 c0 0 9 -17 20 -36 l20 -35 -76
0 -76 0 21 37 c11 21 27 39 35 41 12 4 53 -2 56 -7z m-2595 -102 c36 -18 66
-58 81 -105 34 -114 -89 -234 -204 -200 -87 26 -143 122 -118 204 31 104 144
151 241 101z m842 17 c77 -18 135 -106 122 -187 -8 -57 -63 -117 -122 -134
-117 -35 -239 85 -204 200 16 54 56 97 106 115 48 17 49 17 98 6z m880 0 c113
-26 162 -170 90 -259 -80 -99 -218 -87 -280 23 -44 79 -8 184 78 227 38 20 57
21 112 9z m918 -17 c36 -18 66 -58 80 -103 24 -80 -33 -176 -119 -202 -116
-34 -238 86 -203 201 32 107 145 155 242 104z m-2899 -129 c-4 -56 -1 -70 22
-110 70 -118 247 -116 315 5 23 42 30 105 17 148 l-8 23 39 -24 c33 -21 38
-29 41 -67 4 -57 -20 -119 -65 -165 -153 -158 -432 -55 -433 160 0 47 2 51 38
71 20 12 37 22 37 23 1 1 -1 -28 -3 -64z m879 22 c-35 -153 136 -273 274 -193
63 37 88 89 83 171 l-4 61 44 -24 44 -25 -7 -46 c-21 -141 -120 -232 -254
-232 -103 -1 -192 56 -233 148 -19 44 -27 135 -12 140 5 2 23 11 39 22 17 10
31 18 32 17 1 -1 -2 -18 -6 -39z m881 -22 c-4 -55 -1 -70 21 -107 70 -120 248
-119 316 2 23 41 31 105 17 148 -7 22 -7 22 39 -5 45 -28 46 -29 41 -71 -18
-138 -121 -233 -255 -233 -118 -1 -213 71 -246 186 -20 68 -13 95 33 122 20
11 37 21 37 22 1 1 -1 -28 -3 -64z m879 22 c-25 -110 64 -219 178 -219 67 0
124 31 157 87 23 39 26 54 22 108 l-4 63 38 -21 c36 -19 38 -22 38 -70 -1 -90
-59 -177 -145 -216 -54 -25 -156 -25 -210 0 -85 38 -144 126 -145 213 0 44 3
49 38 72 20 13 38 23 39 22 1 -1 -2 -18 -6 -39z m-2728 -71 c14 -137 125 -236
267 -236 74 0 127 20 182 69 48 42 88 123 88 178 0 46 4 49 46 33 25 -10 26
-13 21 -60 -13 -106 -86 -209 -185 -257 -50 -25 -68 -28 -152 -28 -84 0 -102
3 -152 28 -101 49 -188 176 -188 273 0 27 5 37 23 44 39 16 44 11 50 -44z
m877 12 c1 -86 64 -178 152 -222 65 -32 161 -35 224 -7 92 42 164 142 164 228
l0 43 33 -7 c17 -3 35 -8 39 -12 13 -12 -23 -135 -53 -183 -38 -59 -82 -98
-145 -129 -41 -20 -64 -24 -144 -24 -116 0 -165 19 -240 95 -58 57 -88 117
-97 190 -5 46 -4 50 18 59 43 17 49 13 49 -31z m883 -13 c10 -94 70 -174 162
-216 54 -25 157 -25 211 0 92 42 164 142 164 228 0 46 4 49 46 33 25 -10 26
-13 21 -60 -9 -73 -39 -133 -97 -190 -63 -64 -125 -92 -216 -98 -176 -11 -322
98 -358 268 l-13 65 26 12 c43 20 48 16 54 -42z m877 13 c1 -86 64 -178 152
-222 40 -20 67 -26 117 -26 143 1 254 98 268 236 6 58 8 59 47 44 21 -8 26
-16 26 -44 0 -97 -87 -224 -188 -273 -50 -25 -68 -28 -152 -28 -84 0 -102 3
-152 28 -99 48 -172 151 -185 257 -5 46 -4 50 18 59 43 17 49 13 49 -31z
m-2727 -25 c13 -111 99 -228 206 -280 49 -24 68 -27 151 -27 83 0 102 3 150
27 67 32 142 104 171 164 11 24 26 70 32 103 8 44 15 59 25 55 8 -3 23 -5 34
-5 19 0 20 -4 15 -52 -9 -72 -67 -186 -124 -243 -26 -25 -81 -63 -122 -83 -72
-36 -79 -37 -181 -37 -102 0 -109 1 -181 37 -41 20 -96 58 -123 85 -57 57
-112 165 -122 240 -6 51 -6 51 22 56 16 2 32 5 35 6 3 0 9 -20 12 -46z m881
-5 c15 -113 96 -222 205 -275 49 -24 68 -27 151 -27 83 0 102 3 152 27 107 53
192 167 205 278 6 50 10 54 52 42 22 -5 23 -9 17 -57 -17 -129 -116 -260 -245
-324 -72 -36 -79 -37 -181 -37 -102 0 -109 1 -181 37 -42 21 -95 57 -122 85
-58 58 -115 169 -124 240 -6 51 -5 51 23 56 16 2 32 5 35 6 4 0 10 -22 13 -51z
m879 3 c13 -111 98 -225 205 -278 50 -24 69 -27 152 -27 83 0 102 3 151 27
109 53 179 146 202 268 10 53 14 59 32 55 11 -3 26 -6 34 -6 24 0 5 -97 -33
-175 -45 -91 -112 -157 -205 -203 -72 -36 -79 -37 -181 -37 -102 0 -109 1
-181 37 -130 64 -228 195 -245 325 -5 45 -4 52 12 56 47 12 51 8 57 -42z m877
25 c0 -13 9 -54 20 -90 26 -84 104 -172 188 -213 50 -24 69 -27 152 -27 83 0
102 3 151 27 67 32 152 118 180 182 11 25 23 68 26 96 4 38 9 49 20 45 8 -4
24 -6 35 -6 19 0 20 -4 14 -52 -9 -74 -65 -184 -123 -241 -27 -28 -80 -64
-122 -85 -72 -36 -79 -37 -181 -37 -102 0 -109 1 -181 37 -41 20 -96 58 -122
83 -56 56 -114 169 -123 242 -6 51 -6 51 22 56 16 2 32 5 37 6 4 0 7 -10 7
-23z m-2710 -100 c0 -8 3 -21 6 -30 4 -12 0 -16 -15 -16 -23 0 -24 3 -15 38 7
24 24 30 24 8z m880 0 c0 -8 3 -21 6 -30 4 -12 0 -16 -16 -16 -16 0 -20 4 -16
16 3 9 6 22 6 30 0 8 5 14 10 14 6 0 10 -6 10 -14z m884 -8 c9 -35 8 -38 -14
-38 -11 0 -20 3 -20 8 0 19 13 52 20 52 4 0 10 -10 14 -22z m876 8 c0 -8 3
-21 6 -30 4 -12 0 -16 -16 -16 -16 0 -20 4 -16 16 3 9 6 22 6 30 0 8 5 14 10
14 6 0 10 -6 10 -14z m884 -8 c9 -35 8 -38 -15 -38 -15 0 -19 4 -15 16 3 9 6
22 6 30 0 22 17 16 24 -8z m-3479 -96 l21 -37 -76 0 -76 0 21 37 c17 33 25 38
55 38 30 0 38 -5 55 -38z m880 0 l21 -37 -76 0 -76 0 21 37 c17 33 25 38 55
38 30 0 38 -5 55 -38z m880 0 l21 -37 -76 0 -76 0 21 37 c17 33 25 38 55 38
30 0 38 -5 55 -38z m880 0 l21 -37 -76 0 -76 0 21 37 c17 33 25 38 55 38 30 0
38 -5 55 -38z m880 0 l21 -37 -76 0 -76 0 21 37 c17 33 25 38 55 38 30 0 38
-5 55 -38z m-3494 -68 c36 -18 66 -58 81 -105 23 -79 -33 -174 -120 -200 -116
-34 -234 83 -202 201 28 105 143 155 241 104z m880 0 c94 -48 112 -183 35
-260 -89 -89 -243 -48 -275 74 -38 139 110 254 240 186z m844 15 c50 -14 100
-64 116 -117 35 -117 -86 -238 -203 -203 -87 26 -143 121 -120 200 16 53 48
90 96 112 48 22 58 22 111 8z m916 -15 c36 -18 66 -58 81 -105 23 -79 -33
-174 -120 -200 -116 -34 -234 83 -202 201 28 105 143 155 241 104z m880 0 c94
-48 112 -183 35 -260 -67 -67 -165 -67 -232 0 -135 135 27 349 197 260z
m-3779 -129 c-4 -55 -1 -70 21 -107 70 -120 248 -119 316 2 23 41 30 105 17
148 l-7 22 38 -22 c21 -12 40 -23 42 -25 11 -8 -1 -100 -18 -137 -40 -92 -125
-146 -231 -146 -134 0 -232 87 -255 226 -7 45 -4 51 50 84 17 10 30 19 30 19
1 1 -1 -28 -3 -64z m879 22 c-35 -152 136 -274 271 -194 64 37 91 92 86 172
l-4 63 36 -23 c30 -19 35 -28 38 -65 6 -86 -55 -181 -142 -221 -55 -25 -157
-25 -211 0 -85 38 -144 126 -145 213 0 44 3 49 38 72 20 13 38 23 39 22 1 -1
-2 -18 -6 -39z m881 -22 c-4 -55 -1 -70 21 -107 70 -121 248 -119 316 2 19 34
23 52 19 104 l-4 62 38 -20 c43 -24 49 -39 37 -100 -23 -126 -120 -206 -249
-206 -106 0 -189 53 -231 147 -21 45 -29 134 -14 140 8 2 68 39 70 42 1 1 -1
-28 -3 -64z m880 0 c-4 -55 -1 -70 21 -107 70 -120 248 -119 316 2 23 42 30
105 17 148 l-8 23 39 -24 c33 -21 38 -29 41 -67 6 -86 -55 -181 -142 -221 -55
-25 -157 -25 -211 0 -86 39 -144 126 -145 216 0 47 2 51 38 71 20 12 37 22 37
23 1 1 -1 -28 -3 -64z m879 22 c-35 -152 136 -274 271 -194 64 37 91 92 86
171 l-4 62 38 -20 c43 -24 49 -39 37 -100 -23 -126 -120 -206 -249 -206 -106
0 -191 54 -232 147 -20 46 -28 135 -13 140 6 2 24 11 40 22 17 10 31 18 32 17
1 -1 -2 -18 -6 -39z m-3611 -59 c1 -80 56 -167 137 -215 63 -36 171 -44 234
-16 96 43 169 142 169 230 0 42 1 43 28 37 43 -11 45 -14 39 -65 -13 -108 -93
-214 -197 -263 -65 -30 -215 -30 -282 1 -102 47 -189 167 -192 265 -1 52 6 60
57 67 4 1 7 -18 7 -41z m883 -12 c9 -87 54 -156 133 -202 53 -31 147 -42 211
-25 97 26 180 124 190 224 6 55 7 57 32 50 41 -9 44 -13 39 -63 -10 -99 -98
-218 -196 -263 -67 -31 -217 -31 -282 -1 -109 51 -191 164 -194 266 -1 52 4
59 55 67 3 1 9 -23 12 -53z m877 11 c0 -88 73 -187 169 -230 63 -28 171 -20
234 16 81 48 136 135 137 215 0 41 1 42 28 36 43 -11 45 -14 39 -65 -13 -106
-94 -215 -197 -263 -64 -30 -216 -30 -280 0 -107 51 -191 166 -194 268 -1 50
6 58 57 65 4 1 7 -18 7 -42z m883 -11 c9 -87 54 -156 133 -202 53 -31 147 -42
211 -25 97 26 180 124 190 224 6 55 7 57 32 50 42 -10 44 -13 37 -66 -12 -107
-91 -212 -196 -261 -66 -31 -215 -30 -283 1 -105 49 -203 190 -195 282 3 33
14 43 59 50 3 1 9 -23 12 -53z m877 11 c0 -88 73 -187 169 -230 63 -28 171
-20 234 16 81 48 136 135 137 215 0 41 1 42 28 36 43 -11 45 -14 39 -64 -12
-103 -97 -218 -195 -263 -67 -31 -217 -31 -282 -1 -109 51 -191 165 -194 268
-1 50 6 58 57 65 4 1 7 -18 7 -42z m-3610 -7 c0 -82 65 -196 147 -259 152
-117 381 -82 501 75 37 47 72 138 72 185 0 24 3 30 16 25 9 -3 25 -6 36 -6 19
0 20 -4 14 -52 -9 -74 -65 -184 -123 -241 -27 -28 -80 -64 -123 -85 -71 -36
-78 -37 -180 -37 -102 0 -109 1 -181 37 -130 64 -228 195 -245 325 -6 51 -6
51 22 56 16 2 32 5 37 6 4 0 7 -13 7 -29z m884 -20 c4 -27 15 -70 26 -95 27
-64 112 -149 179 -182 49 -24 68 -27 151 -27 83 0 102 3 151 27 107 52 193
169 206 280 5 36 9 47 20 43 8 -4 24 -6 35 -6 19 0 20 -4 14 -52 -17 -131
-115 -262 -245 -326 -72 -36 -79 -37 -181 -37 -102 0 -109 1 -180 37 -43 21
-96 57 -123 85 -58 58 -115 169 -124 240 -6 51 -5 51 23 56 16 2 32 5 35 6 4
0 9 -21 13 -49z m876 20 c0 -82 65 -196 147 -259 152 -117 381 -82 501 75 37
47 72 138 72 185 0 24 3 30 16 25 9 -3 25 -6 36 -6 19 0 20 -4 14 -52 -17
-131 -115 -262 -245 -326 -72 -36 -79 -37 -181 -37 -102 0 -109 1 -182 38
-120 59 -201 156 -234 282 -21 77 -19 93 14 98 15 2 30 5 35 6 4 0 7 -13 7
-29z m883 -20 c3 -27 15 -70 26 -95 28 -64 113 -150 180 -182 49 -24 68 -27
151 -27 83 0 102 3 151 27 67 33 152 118 179 182 11 25 22 68 26 96 5 38 10
49 21 45 8 -4 24 -6 35 -6 19 0 20 -4 15 -52 -9 -72 -66 -183 -124 -241 -27
-28 -80 -64 -122 -85 -72 -36 -79 -37 -181 -37 -102 0 -109 1 -181 37 -130 64
-228 195 -245 325 -6 51 -6 51 22 56 16 2 32 5 35 6 3 0 9 -21 12 -49z m880 1
c15 -126 121 -253 243 -291 82 -25 145 -25 223 -1 107 33 194 118 231 225 11
30 20 70 20 87 0 24 3 30 16 25 9 -3 25 -6 36 -6 19 0 20 -4 14 -52 -17 -131
-115 -262 -245 -326 -72 -36 -79 -37 -181 -37 -102 0 -109 1 -182 38 -44 22
-96 57 -123 84 -55 57 -112 169 -121 240 -6 51 -6 51 22 56 16 2 32 5 35 6 3
0 9 -21 12 -48z m-2713 -75 c0 -8 3 -21 6 -30 4 -12 0 -16 -16 -16 -16 0 -20
4 -16 16 3 9 6 22 6 30 0 8 5 14 10 14 6 0 10 -6 10 -14z m884 -8 c9 -35 8
-38 -14 -38 -11 0 -20 3 -20 8 0 19 13 52 20 52 4 0 10 -10 14 -22z m880 0 c9
-35 8 -38 -14 -38 -11 0 -20 3 -20 8 0 19 13 52 20 52 4 0 10 -10 14 -22z
m876 8 c0 -8 3 -21 6 -30 4 -12 0 -16 -16 -16 -16 0 -20 4 -16 16 3 9 6 22 6
30 0 8 5 14 10 14 6 0 10 -6 10 -14z m-2593 -106 l21 -40 -26 7 c-15 3 -38 6
-52 6 -14 0 -37 -3 -52 -6 l-26 -7 21 40 c19 35 26 40 57 40 31 0 38 -5 57
-40z m878 2 l21 -37 -76 0 -76 0 21 37 c17 33 25 38 55 38 30 0 38 -5 55 -38z
m880 0 l21 -37 -77 0 c-50 0 -75 4 -70 10 4 6 15 22 24 38 13 20 25 27 50 27
27 0 35 -6 52 -38z m882 -3 c21 -38 21 -40 3 -34 -27 8 -92 9 -118 1 l-21 -7
22 40 c19 36 26 41 57 41 31 0 38 -5 57 -41z m-2631 -58 c108 -49 133 -184 50
-267 -65 -65 -167 -65 -232 0 -83 83 -57 218 50 267 52 23 80 23 132 0z m880
0 c107 -49 133 -184 50 -267 -65 -65 -167 -65 -232 0 -84 84 -59 217 50 267
52 23 80 23 132 0z m880 0 c109 -50 134 -183 50 -267 -65 -65 -167 -65 -232 0
-83 83 -57 218 50 267 52 23 80 23 132 0z m880 0 c107 -49 133 -184 50 -267
-65 -65 -167 -65 -232 0 -84 84 -59 217 50 267 52 23 80 23 132 0z m-2884
-136 c-4 -55 -1 -70 21 -107 69 -119 248 -118 316 2 23 41 31 105 17 147 l-7
22 40 -22 c39 -21 41 -24 41 -72 -1 -90 -59 -177 -145 -216 -54 -25 -157 -25
-210 0 -86 40 -144 127 -145 216 0 47 2 51 38 71 20 12 37 22 37 23 1 1 -1
-28 -3 -64z m879 22 c-35 -153 137 -273 276 -192 61 36 86 89 81 170 l-4 61
38 -20 c43 -24 49 -39 37 -100 -11 -60 -29 -93 -76 -138 -51 -49 -99 -68 -175
-68 -104 1 -189 55 -230 147 -19 44 -27 135 -12 140 5 2 23 11 39 22 17 10 31
18 32 17 1 -1 -2 -18 -6 -39z m881 -20 c-3 -51 0 -72 17 -105 62 -122 259
-123 322 0 21 41 28 105 15 145 l-7 22 40 -22 c41 -22 45 -31 41 -92 -5 -75
-69 -162 -145 -196 -50 -23 -152 -25 -203 -4 -42 18 -107 77 -128 116 -19 37
-34 111 -28 135 3 11 22 29 42 41 20 11 37 21 37 22 1 1 -1 -27 -3 -62z m879
20 c-35 -151 137 -273 273 -193 62 36 89 92 84 170 l-4 62 38 -21 c36 -19 38
-22 38 -70 -1 -89 -59 -176 -145 -216 -53 -25 -156 -25 -210 0 -86 39 -144
126 -145 216 0 48 2 51 38 71 20 11 38 20 39 19 1 0 -2 -17 -6 -38z m-2728
-71 c9 -87 54 -156 133 -202 53 -31 147 -42 211 -25 97 26 180 124 190 224 6
55 7 57 32 50 42 -10 44 -13 38 -66 -14 -111 -105 -226 -212 -266 -80 -31
-197 -26 -270 9 -105 51 -186 164 -189 262 -1 52 4 59 55 67 3 1 9 -23 12 -53z
m877 12 c1 -81 65 -180 144 -220 49 -25 146 -34 203 -19 97 26 183 128 191
226 4 53 5 55 31 48 42 -10 44 -13 38 -66 -13 -102 -91 -208 -192 -257 -42
-21 -64 -25 -145 -25 -79 0 -103 4 -142 23 -111 55 -189 163 -192 266 -1 50 6
58 57 65 4 1 7 -18 7 -41z m882 -13 c8 -98 94 -200 191 -226 57 -15 154 -6
203 19 79 40 143 139 144 220 0 41 1 42 28 36 43 -11 45 -14 39 -65 -14 -115
-104 -227 -217 -270 -75 -28 -194 -23 -265 11 -104 50 -186 166 -189 264 -1
50 5 57 55 65 4 1 9 -24 11 -54z m881 1 c9 -87 54 -156 133 -202 53 -31 147
-42 211 -25 97 26 180 124 190 224 6 55 7 57 32 50 42 -10 44 -13 38 -66 -13
-102 -91 -208 -192 -257 -42 -21 -64 -25 -145 -25 -81 0 -103 4 -145 25 -105
51 -186 164 -189 262 -1 52 4 59 55 67 3 1 9 -23 12 -53z m-2730 -16 c3 -27
15 -70 26 -95 28 -63 113 -150 180 -182 49 -25 68 -28 151 -28 83 0 102 3 151
28 67 33 152 119 179 182 11 25 22 68 26 96 5 38 10 49 21 45 8 -4 24 -6 35
-6 19 0 20 -4 14 -52 -17 -131 -115 -262 -245 -326 -72 -36 -79 -37 -181 -37
-102 0 -109 1 -181 37 -130 64 -228 195 -245 325 -6 51 -6 51 22 56 16 2 32 5
35 6 3 0 9 -21 12 -49z m881 -2 c15 -112 97 -223 206 -276 48 -24 67 -27 150
-27 116 0 163 19 245 96 62 59 103 135 112 210 4 38 9 49 20 45 8 -4 24 -6 35
-6 19 0 20 -4 14 -52 -17 -132 -121 -269 -249 -329 -68 -32 -78 -34 -178 -34
-101 0 -108 1 -180 37 -42 21 -95 57 -122 85 -58 58 -115 169 -124 240 -6 51
-5 51 23 56 16 2 32 5 35 6 4 0 10 -22 13 -51z m879 3 c13 -111 99 -226 207
-279 48 -24 67 -27 150 -27 116 0 163 19 245 96 62 59 101 131 111 208 5 40
10 51 21 47 8 -4 24 -6 35 -6 19 0 20 -4 15 -52 -9 -72 -66 -183 -124 -241
-27 -28 -80 -64 -122 -85 -72 -36 -79 -37 -181 -37 -102 0 -109 1 -181 37
-130 64 -228 195 -245 325 -6 51 -6 51 22 56 16 2 32 5 35 6 3 0 9 -21 12 -48z
m881 -1 c4 -27 15 -70 26 -95 27 -63 112 -149 179 -182 49 -25 68 -28 151 -28
83 0 102 3 151 28 107 52 193 169 206 280 5 36 9 47 20 43 8 -4 24 -6 35 -6
19 0 20 -4 14 -52 -17 -131 -115 -262 -245 -326 -72 -36 -79 -37 -181 -37
-102 0 -109 1 -181 37 -130 64 -228 195 -245 325 -6 51 -6 51 22 56 16 2 32 5
35 6 4 0 9 -21 13 -49z m-2714 -74 c0 -8 3 -21 6 -30 4 -12 0 -16 -15 -16 -23
0 -24 3 -15 38 7 24 24 30 24 8z m880 0 c0 -8 3 -21 6 -30 4 -12 0 -16 -16
-16 -16 0 -20 4 -16 16 3 9 6 22 6 30 0 8 5 14 10 14 6 0 10 -6 10 -14z m884
-8 c9 -35 8 -38 -14 -38 -11 0 -20 3 -20 8 0 19 13 52 20 52 4 0 10 -10 14
-22z m876 8 c0 -8 3 -21 6 -30 4 -12 0 -16 -16 -16 -16 0 -20 4 -16 16 3 9 6
22 6 30 0 8 5 14 10 14 6 0 10 -6 10 -14z m884 -8 c9 -35 8 -38 -15 -38 -15 0
-19 4 -15 16 3 9 6 22 6 30 0 22 17 16 24 -8z m-3477 -99 l21 -39 -26 7 c-15
3 -38 6 -52 6 -14 0 -37 -3 -52 -6 l-26 -7 21 40 c34 61 80 61 114 -1z m880 0
l21 -39 -26 7 c-15 3 -38 6 -52 6 -14 0 -37 -3 -52 -6 l-26 -7 21 40 c34 61
80 61 114 -1z m859 37 c0 0 10 -18 22 -39 l21 -37 -27 7 c-34 8 -70 8 -104 0
l-26 -7 21 40 c12 22 29 41 37 43 12 4 53 -2 56 -7z m901 -37 l21 -39 -26 7
c-15 3 -38 6 -52 6 -14 0 -37 -3 -52 -6 l-26 -7 21 40 c34 61 80 61 114 -1z
m859 37 c0 0 10 -18 22 -39 l21 -37 -27 7 c-34 8 -70 8 -104 0 l-26 -7 21 40
c12 22 29 41 37 43 12 4 53 -2 56 -7z m-3490 -95 c109 -50 134 -183 50 -267
-65 -65 -167 -65 -232 0 -83 83 -57 218 50 267 52 23 80 23 132 0z m880 0
c107 -49 133 -184 50 -267 -65 -65 -167 -65 -232 0 -84 84 -59 217 50 267 52
23 80 23 132 0z m880 0 c77 -35 117 -117 95 -193 -37 -123 -188 -163 -277 -74
-84 84 -59 217 50 267 52 23 80 23 132 0z m880 0 c109 -50 134 -183 50 -267
-65 -65 -167 -65 -232 0 -83 83 -57 218 50 267 52 23 80 23 132 0z m880 0
c107 -49 133 -184 50 -267 -65 -65 -167 -65 -232 0 -84 84 -59 217 50 267 52
23 80 23 132 0z m-3764 -138 c-2 -57 1 -75 20 -108 68 -117 258 -113 319 7 21
41 28 105 15 145 l-7 22 40 -22 c46 -25 52 -39 40 -101 -16 -86 -68 -152 -149
-189 -89 -40 -193 -22 -267 46 -51 47 -68 76 -82 139 -14 59 -6 80 37 105 20
11 37 21 37 22 1 1 -1 -29 -3 -66z m879 24 c-26 -111 61 -217 178 -217 71 0
123 28 157 85 23 39 26 54 22 108 l-4 63 38 -21 c36 -19 38 -22 38 -70 0 -27
-9 -68 -19 -90 -23 -51 -96 -119 -147 -136 -159 -53 -333 65 -334 226 0 48 2
51 38 71 20 11 38 20 39 19 1 0 -2 -17 -6 -38z m881 -24 c-2 -57 1 -75 20
-108 67 -114 249 -114 316 0 19 33 22 52 20 105 l-3 66 37 -21 c43 -23 49 -38
37 -99 -12 -63 -30 -95 -82 -143 -69 -64 -161 -83 -251 -53 -52 17 -124 84
-148 137 -20 46 -28 135 -13 140 8 2 69 39 70 42 1 1 -1 -29 -3 -66z m880 2
c-4 -56 -1 -70 22 -110 68 -115 244 -115 311 0 27 45 35 107 21 152 l-7 22 40
-22 c39 -21 41 -24 41 -72 -1 -161 -175 -279 -334 -226 -51 17 -124 85 -147
136 -10 22 -19 63 -19 90 0 47 2 51 38 71 20 12 37 22 37 23 1 1 -1 -28 -3
-64z m879 22 c-11 -45 -1 -94 29 -142 65 -105 244 -99 308 10 19 33 22 52 20
105 l-3 66 37 -21 c20 -11 39 -27 41 -37 6 -23 -9 -102 -27 -136 -22 -42 -98
-108 -142 -123 -122 -41 -263 20 -315 137 -20 44 -28 136 -13 141 5 2 23 11
39 22 17 10 31 18 32 17 1 -1 -2 -18 -6 -39z m-3611 -59 c1 -86 64 -178 152
-222 65 -32 161 -35 224 -7 92 42 164 142 164 228 0 42 1 43 28 37 43 -11 45
-14 39 -65 -9 -74 -41 -134 -101 -194 -76 -73 -143 -98 -251 -93 -98 5 -160
32 -225 98 -59 58 -92 126 -94 192 -1 52 6 60 57 67 4 1 7 -18 7 -41z m883
-13 c22 -212 279 -310 445 -170 48 40 82 106 89 169 6 54 7 55 32 49 41 -9 44
-13 39 -63 -10 -99 -92 -211 -193 -260 -42 -21 -65 -25 -145 -25 -114 0 -167
21 -243 97 -58 58 -89 124 -91 192 -1 50 4 57 55 65 3 1 9 -24 12 -54z m877
13 c1 -86 64 -178 152 -222 65 -32 161 -35 224 -7 92 42 164 142 164 228 0 42
1 43 28 37 43 -11 45 -14 38 -67 -12 -105 -88 -207 -194 -259 -68 -33 -216
-33 -284 0 -110 55 -189 162 -192 264 -1 52 5 60 57 67 4 1 7 -18 7 -41z m883
-13 c14 -135 127 -235 267 -235 140 0 253 100 267 234 6 54 7 55 32 49 42 -9
44 -13 38 -64 -13 -105 -89 -209 -192 -259 -73 -36 -217 -36 -290 0 -106 52
-189 168 -190 264 0 50 6 57 56 65 3 1 9 -24 12 -54z m877 13 c1 -86 64 -178
152 -222 65 -32 161 -35 224 -7 92 42 164 142 164 228 0 42 1 43 28 37 43 -11
45 -14 39 -67 -13 -102 -92 -209 -192 -257 -71 -34 -190 -39 -265 -11 -117 44
-211 163 -214 273 -1 52 6 60 57 67 4 1 7 -18 7 -41z m-3607 -30 c13 -111 96
-221 205 -275 50 -25 68 -28 152 -28 83 0 102 3 151 27 109 54 190 163 205
277 5 40 10 51 21 47 8 -4 24 -6 35 -6 19 0 20 -4 14 -52 -17 -131 -115 -262
-245 -326 -72 -36 -79 -37 -180 -37 -99 0 -111 2 -176 33 -132 62 -233 195
-251 329 -6 51 -6 51 22 56 16 2 32 5 35 6 3 0 9 -22 12 -51z m881 0 c15 -112
97 -223 206 -276 48 -24 67 -27 150 -27 83 0 102 3 151 28 67 32 152 119 180
182 11 25 23 68 26 96 4 38 9 49 20 45 8 -4 24 -6 35 -6 19 0 20 -4 14 -52
-18 -135 -119 -267 -253 -331 -63 -30 -75 -32 -174 -32 -101 0 -108 1 -180 37
-130 64 -228 195 -245 325 -6 51 -6 51 22 56 16 2 32 5 35 6 4 0 10 -22 13
-51z m879 3 c13 -112 96 -224 205 -278 50 -25 68 -28 152 -28 84 0 102 3 152
28 109 54 192 166 205 278 4 38 9 49 20 45 8 -4 24 -6 35 -6 19 0 20 -4 14
-52 -17 -131 -115 -262 -245 -326 -72 -36 -79 -37 -181 -37 -102 0 -109 1
-181 37 -130 64 -228 195 -245 325 -6 51 -6 51 22 56 16 2 32 5 35 6 3 0 9
-21 12 -48z m880 -3 c13 -109 98 -223 207 -276 48 -24 67 -27 150 -27 83 0
102 3 150 27 109 54 191 164 206 277 5 40 10 51 21 47 8 -4 24 -6 35 -6 19 0
20 -4 14 -52 -17 -131 -115 -262 -245 -326 -72 -36 -79 -37 -180 -37 -99 0
-111 2 -174 32 -134 64 -235 196 -253 330 -6 51 -6 51 22 56 16 2 32 5 35 6 3
0 9 -22 12 -51z m881 0 c15 -114 96 -222 205 -276 49 -24 68 -27 151 -27 84 0
102 3 152 28 110 54 192 164 205 276 4 40 9 51 20 47 8 -4 24 -6 35 -6 19 0
20 -4 14 -52 -18 -135 -119 -268 -251 -330 -65 -31 -77 -33 -176 -33 -101 0
-108 1 -180 37 -130 64 -230 198 -246 326 -6 50 -5 50 23 55 16 2 32 5 35 6 4
0 10 -22 13 -51z m-2714 -72 c0 -8 3 -21 6 -30 4 -12 0 -16 -16 -16 -16 0 -20
4 -16 16 3 9 6 22 6 30 0 8 5 14 10 14 6 0 10 -6 10 -14z m884 -8 c9 -35 8
-38 -14 -38 -11 0 -20 3 -20 8 0 19 13 52 20 52 4 0 10 -10 14 -22z m876 8 c0
-8 3 -21 6 -30 4 -12 0 -16 -15 -16 -23 0 -24 3 -15 38 7 24 24 30 24 8z m880
0 c0 -8 3 -21 6 -30 4 -12 0 -16 -16 -16 -16 0 -20 4 -16 16 3 9 6 22 6 30 0
8 5 14 10 14 6 0 10 -6 10 -14z m-2614 -70 c0 0 9 -17 20 -36 l20 -35 -76 0
-76 0 21 37 c11 21 27 39 35 41 12 4 53 -2 56 -7z m869 6 c6 -4 20 -23 31 -42
l20 -35 -76 0 -76 0 21 37 c23 42 55 58 80 40z m891 -6 c0 0 9 -17 20 -36 l20
-35 -76 0 -76 0 21 37 c11 21 27 39 35 41 12 4 53 -2 56 -7z m880 0 c0 0 9
-17 20 -36 l20 -35 -76 0 -76 0 21 37 c11 21 27 39 35 41 12 4 53 -2 56 -7z"/>
<path d="M405 4051 c-64 -27 -81 -110 -32 -158 60 -61 162 -19 162 67 0 66
-72 116 -130 91z m68 -23 c52 -27 62 -83 22 -123 -60 -61 -158 6 -125 85 18
43 63 60 103 38z"/>
<path d="M1285 4051 c-64 -27 -81 -110 -32 -158 60 -61 162 -19 162 67 0 66
-72 116 -130 91z m68 -22 c52 -24 59 -87 15 -129 -31 -28 -74 -26 -103 6 -39
42 -30 93 20 122 25 14 38 15 68 1z"/>
<path d="M2165 4051 c-64 -27 -81 -110 -32 -158 60 -61 162 -19 162 67 0 66
-72 116 -130 91z m69 -22 c13 -7 30 -25 37 -41 16 -39 -9 -94 -46 -104 -42
-10 -74 4 -92 41 -13 28 -14 39 -4 63 19 45 60 61 105 41z"/>
<path d="M3045 4051 c-64 -27 -81 -110 -32 -158 20 -21 37 -28 67 -28 116 0
130 170 15 190 -16 2 -39 1 -50 -4z m68 -22 c51 -23 59 -87 17 -129 -57 -57
-158 24 -120 95 21 39 62 53 103 34z"/>
<path d="M3925 4051 c-64 -27 -81 -110 -32 -158 20 -21 37 -28 67 -28 116 0
130 170 15 190 -16 2 -39 1 -50 -4z m69 -22 c13 -7 30 -24 36 -40 33 -78 -65
-144 -125 -84 -40 39 -31 94 20 123 25 15 38 15 69 1z"/>
<path d="M845 3611 c-64 -27 -81 -110 -32 -158 60 -61 162 -19 162 67 0 66
-72 116 -130 91z m68 -23 c49 -26 62 -78 27 -115 -42 -45 -108 -36 -130 18
-28 66 41 131 103 97z"/>
<path d="M1725 3611 c-64 -27 -81 -110 -32 -158 60 -61 162 -19 162 67 0 66
-72 116 -130 91z m69 -22 c29 -14 51 -59 41 -89 -19 -59 -84 -77 -129 -35 -41
38 -33 93 19 123 25 15 38 15 69 1z"/>
<path d="M2605 3611 c-64 -27 -81 -110 -32 -158 20 -21 37 -28 67 -28 116 0
130 170 15 190 -16 2 -39 1 -50 -4z m68 -23 c70 -37 59 -125 -19 -144 -57 -14
-108 48 -85 105 19 44 63 61 104 39z"/>
<path d="M3485 3611 c-64 -27 -81 -110 -32 -158 20 -21 37 -28 67 -28 116 0
130 170 15 190 -16 2 -39 1 -50 -4z m69 -22 c57 -27 55 -115 -4 -139 -34 -14
-63 -6 -90 23 -34 36 -23 88 25 115 25 15 38 15 69 1z"/>
<path d="M405 3171 c-64 -27 -81 -110 -32 -158 60 -61 162 -19 162 67 0 66
-72 116 -130 91z m89 -36 c63 -58 -4 -158 -84 -125 -32 13 -55 58 -45 90 19
59 84 77 129 35z"/>
<path d="M1285 3171 c-64 -27 -81 -110 -32 -158 60 -61 162 -19 162 67 0 66
-72 116 -130 91z m69 -22 c88 -40 26 -176 -63 -139 -54 22 -63 88 -18 130 24
23 45 25 81 9z"/>
<path d="M2165 3171 c-64 -27 -81 -110 -32 -158 60 -61 162 -19 162 67 0 66
-72 116 -130 91z m74 -21 c10 -5 24 -23 31 -40 26 -64 -35 -127 -99 -100 -76
31 -55 149 27 150 13 0 31 -4 41 -10z"/>
<path d="M3045 3171 c-64 -27 -81 -110 -32 -158 20 -21 37 -28 67 -28 116 0
130 170 15 190 -16 2 -39 1 -50 -4z m82 -31 c45 -42 36 -108 -18 -130 -57 -24
-122 33 -104 90 10 31 46 60 75 60 14 0 36 -9 47 -20z"/>
<path d="M3925 3171 c-64 -27 -81 -110 -32 -158 20 -21 37 -28 67 -28 116 0
130 170 15 190 -16 2 -39 1 -50 -4z m82 -31 c12 -10 24 -29 28 -40 10 -32 -13
-77 -45 -90 -80 -33 -147 67 -84 125 32 30 73 32 101 5z"/>
<path d="M845 2731 c-64 -27 -81 -110 -32 -158 60 -61 162 -19 162 67 0 66
-72 116 -130 91z m90 -36 c60 -60 -6 -158 -84 -125 -56 23 -65 87 -19 130 30
27 73 26 103 -5z"/>
<path d="M1725 2731 c-64 -27 -81 -110 -32 -158 60 -61 162 -19 162 67 0 66
-72 116 -130 91z m82 -31 c12 -10 24 -29 28 -40 10 -32 -13 -77 -45 -90 -80
-33 -147 67 -84 125 32 30 73 32 101 5z"/>
<path d="M2605 2731 c-64 -27 -81 -110 -32 -158 60 -61 162 -19 162 67 0 66
-72 116 -130 91z m90 -36 c61 -60 -6 -158 -85 -125 -16 6 -34 24 -40 40 -33
79 65 146 125 85z"/>
<path d="M3485 2731 c-64 -27 -81 -110 -32 -158 60 -61 162 -19 162 67 0 66
-72 116 -130 91z m83 -31 c46 -43 37 -107 -19 -130 -33 -14 -62 -6 -89 23 -63
67 40 170 108 107z"/>
<path d="M405 2291 c-64 -27 -81 -110 -32 -158 60 -61 162 -19 162 67 0 66
-72 116 -130 91z m75 -26 c55 -29 52 -105 -5 -132 -28 -13 -39 -14 -63 -4 -59
25 -64 112 -9 139 31 15 44 14 77 -3z"/>
<path d="M1253 2266 c-22 -19 -28 -32 -28 -66 0 -34 6 -47 28 -66 38 -33 105
-33 135 -1 29 31 30 95 1 131 -28 36 -95 37 -136 2z m106 -1 c88 -45 15 -177
-75 -136 -48 22 -55 105 -11 136 27 19 50 19 86 0z"/>
<path d="M2170 2293 c-38 -15 -60 -47 -60 -88 0 -78 65 -124 129 -90 62 32 76
108 28 154 -24 22 -72 34 -97 24z m64 -24 c68 -31 47 -149 -27 -149 -32 0 -77
30 -83 55 -8 33 12 80 39 93 29 14 41 14 71 1z"/>
<path d="M3045 2291 c-62 -27 -78 -113 -30 -161 59 -58 160 -14 160 70 0 66
-72 116 -130 91z m75 -26 c55 -29 52 -105 -5 -132 -28 -13 -39 -14 -63 -4 -58
24 -66 107 -13 136 34 18 46 18 81 0z"/>
<path d="M3925 2291 c-64 -27 -81 -110 -32 -158 60 -61 162 -19 162 67 0 66
-72 116 -130 91z m69 -22 c58 -27 55 -115 -6 -140 -86 -35 -152 91 -70 135 33
19 44 19 76 5z"/>
<path d="M845 1851 c-64 -27 -81 -110 -32 -158 60 -61 162 -19 162 67 0 66
-72 116 -130 91z m68 -23 c52 -27 62 -83 22 -123 -30 -31 -73 -32 -103 -5 -43
41 -37 105 12 128 28 14 43 14 69 0z"/>
<path d="M1725 1851 c-61 -26 -80 -108 -36 -155 63 -67 167 -22 164 72 -2 60
-73 107 -128 83z m68 -22 c75 -34 47 -149 -36 -149 -34 0 -77 43 -77 77 1 31
15 54 45 71 25 14 38 15 68 1z"/>
<path d="M2605 1851 c-87 -37 -76 -166 16 -186 58 -13 129 55 115 110 -15 58
-82 97 -131 76z m68 -23 c52 -27 62 -83 22 -123 -60 -61 -158 6 -125 85 18 43
63 60 103 38z"/>
<path d="M3485 1851 c-64 -27 -81 -110 -32 -158 60 -61 162 -19 162 67 0 66
-72 116 -130 91z m68 -22 c52 -24 59 -87 15 -129 -30 -27 -73 -26 -103 5 -40
39 -31 94 20 123 25 14 38 15 68 1z"/>
<path d="M405 1411 c-64 -27 -81 -110 -32 -158 60 -61 162 -19 162 67 0 66
-72 116 -130 91z m68 -23 c53 -28 63 -84 21 -123 -32 -30 -73 -32 -101 -5 -29
27 -37 56 -23 90 18 43 63 60 103 38z"/>
<path d="M1285 1411 c-64 -27 -81 -110 -32 -158 60 -61 162 -19 162 67 0 66
-72 116 -130 91z m69 -22 c29 -14 51 -59 41 -89 -4 -11 -16 -30 -28 -40 -57
-54 -148 16 -117 90 18 43 60 59 104 39z"/>
<path d="M2165 1411 c-64 -27 -81 -110 -32 -158 60 -61 162 -19 162 67 0 66
-72 116 -130 91z m69 -22 c13 -7 30 -25 37 -41 16 -39 -9 -94 -46 -104 -42
-10 -74 4 -92 41 -34 71 29 136 101 104z"/>
<path d="M3045 1411 c-64 -27 -81 -110 -32 -158 60 -61 162 -19 162 67 0 66
-72 116 -130 91z m69 -22 c29 -14 51 -59 41 -89 -9 -28 -44 -60 -66 -60 -59 0
-101 57 -80 109 19 44 60 60 105 40z"/>
<path d="M3925 1411 c-64 -27 -81 -110 -32 -158 60 -61 162 -19 162 67 0 66
-72 116 -130 91z m69 -22 c13 -7 30 -24 36 -40 33 -78 -65 -144 -125 -84 -40
39 -31 94 20 123 25 15 38 15 69 1z"/>
<path d="M845 971 c-64 -27 -81 -110 -32 -158 60 -61 162 -19 162 67 0 66 -72
116 -130 91z m68 -23 c45 -24 56 -56 36 -102 -27 -58 -115 -55 -139 5 -28 66
41 131 103 97z"/>
<path d="M1725 971 c-64 -27 -81 -110 -32 -158 60 -61 162 -19 162 67 0 66
-72 116 -130 91z m82 -31 c12 -10 24 -29 28 -40 10 -32 -13 -77 -45 -90 -69
-29 -135 45 -99 111 21 40 83 50 116 19z"/>
<path d="M2605 971 c-64 -27 -81 -110 -32 -158 60 -61 162 -19 162 67 0 66
-72 116 -130 91z m90 -36 c61 -60 -6 -158 -85 -125 -16 6 -34 24 -40 40 -33
79 65 146 125 85z"/>
<path d="M3485 971 c-64 -27 -81 -110 -32 -158 60 -61 162 -19 162 67 0 66
-72 116 -130 91z m69 -22 c35 -16 52 -61 36 -98 -24 -60 -112 -63 -139 -5 -20
45 -10 77 34 102 25 15 38 15 69 1z"/>
<path d="M405 531 c-64 -27 -81 -110 -32 -158 60 -61 162 -19 162 67 0 66 -72
116 -130 91z m90 -36 c61 -60 -6 -158 -85 -125 -16 6 -34 24 -40 40 -33 79 65
146 125 85z"/>
<path d="M1285 531 c-64 -27 -81 -110 -32 -158 60 -61 162 -19 162 67 0 66
-72 116 -130 91z m83 -31 c46 -43 37 -107 -19 -130 -33 -14 -62 -6 -89 23 -27
28 -25 69 5 101 29 32 72 34 103 6z"/>
<path d="M2165 531 c-64 -27 -81 -110 -32 -158 60 -61 162 -19 162 67 0 66
-72 116 -130 91z m74 -21 c10 -5 24 -23 31 -40 26 -64 -35 -127 -99 -100 -76
31 -55 149 27 150 13 0 31 -4 41 -10z"/>
<path d="M3045 531 c-64 -27 -81 -110 -32 -158 60 -61 162 -19 162 67 0 66
-72 116 -130 91z m90 -37 c42 -45 24 -110 -35 -129 -50 -16 -109 38 -96 89 16
65 88 86 131 40z"/>
<path d="M3925 531 c-64 -27 -81 -110 -32 -158 60 -61 162 -19 162 67 0 66
-72 116 -130 91z m82 -31 c29 -27 37 -56 23 -90 -13 -32 -58 -55 -90 -45 -11
4 -30 16 -40 28 -63 67 40 170 107 107z"/>
<path d="M523 4350 c9 -73 39 -133 98 -195 68 -72 139 -106 238 -112 124 -8
232 41 310 144 47 60 91 213 62 213 -4 0 -11 -23 -14 -51 -13 -104 -85 -205
-183 -254 -53 -27 -69 -30 -154 -30 -85 0 -101 3 -154 30 -98 49 -174 156
-184 256 -2 27 -9 49 -15 49 -6 0 -8 -19 -4 -50z"/>
<path d="M613 4355 c18 -130 130 -225 267 -225 102 0 184 48 235 134 28 48 45
136 26 136 -6 0 -11 -15 -11 -32 -1 -73 -74 -170 -155 -204 -50 -21 -140 -21
-190 0 -81 34 -154 131 -155 204 0 17 -5 32 -11 32 -8 0 -10 -14 -6 -45z"/>
<path d="M700 4373 c0 -42 46 -111 90 -133 112 -57 243 4 270 126 12 51 -3 41
-23 -15 -20 -57 -60 -95 -117 -112 -81 -24 -176 33 -199 119 -13 48 -21 54
-21 15z"/>
<path d="M785 4378 c13 -43 52 -73 95 -73 29 0 46 7 64 25 26 27 43 70 28 70
-6 0 -13 -11 -16 -25 -4 -16 -20 -32 -41 -42 -33 -16 -37 -16 -70 0 -21 10
-37 26 -41 42 -3 14 -10 25 -16 25 -5 0 -6 -10 -3 -22z"/>
<path d="M1404 4348 c15 -114 95 -221 204 -275 51 -25 68 -28 152 -28 83 1
102 4 152 29 73 35 139 101 173 172 28 58 45 154 28 154 -6 0 -13 -23 -16 -51
-13 -104 -85 -205 -183 -254 -53 -27 -68 -30 -154 -30 -114 0 -167 22 -243 97
-55 55 -85 116 -94 188 -3 28 -10 50 -16 50 -6 0 -7 -20 -3 -52z"/>
<path d="M1490 4368 c0 -77 77 -179 164 -219 55 -25 157 -25 212 0 90 41 165
141 163 221 0 40 -8 27 -29 -48 -14 -55 -81 -129 -139 -155 -57 -25 -145 -25
-202 0 -79 35 -148 126 -149 195 0 15 -4 30 -10 33 -6 4 -10 -8 -10 -27z"/>
<path d="M1580 4366 c28 -124 165 -185 275 -123 47 27 88 93 83 134 -4 25 -5
24 -17 -16 -26 -90 -120 -147 -201 -122 -57 17 -97 55 -117 112 -20 56 -35 66
-23 15z"/>
<path d="M1665 4378 c4 -13 18 -34 31 -48 48 -49 138 -23 159 48 9 32 -11 27
-25 -7 -17 -43 -62 -59 -105 -38 -21 10 -37 26 -41 42 -3 14 -10 25 -16 25 -5
0 -6 -10 -3 -22z"/>
<path d="M2283 4351 c13 -113 96 -225 205 -277 50 -25 69 -28 152 -29 84 0
101 3 152 28 73 36 139 102 172 170 27 58 45 157 29 157 -6 0 -13 -22 -16 -50
-9 -72 -39 -133 -94 -188 -76 -75 -129 -97 -243 -97 -86 0 -101 3 -154 30 -98
49 -170 150 -183 254 -3 28 -10 51 -16 51 -6 0 -8 -19 -4 -49z"/>
<path d="M2370 4368 c0 -48 41 -128 85 -167 58 -51 110 -71 185 -71 108 0 196
55 244 152 26 51 36 125 16 113 -5 -3 -10 -18 -10 -33 -1 -69 -70 -160 -149
-195 -54 -24 -143 -25 -196 -3 -78 33 -154 130 -155 198 0 15 -4 30 -10 33 -6
4 -10 -7 -10 -27z"/>
<path d="M2460 4373 c0 -43 41 -105 85 -130 110 -62 247 -1 275 123 12 51 -3
41 -23 -15 -20 -57 -60 -95 -117 -112 -81 -24 -176 33 -199 119 -14 48 -21 54
-21 15z"/>
<path d="M2545 4378 c13 -43 52 -73 95 -73 29 0 46 7 64 25 26 27 43 70 28 70
-6 0 -13 -11 -16 -25 -4 -16 -20 -32 -41 -42 -43 -21 -88 -5 -105 38 -14 34
-34 39 -25 7z"/>
<path d="M3164 4350 c4 -27 15 -70 26 -95 27 -63 112 -149 179 -182 49 -25 67
-28 151 -28 83 1 102 4 151 28 67 32 152 118 180 182 23 52 37 145 22 145 -6
0 -13 -22 -15 -49 -10 -100 -86 -207 -184 -256 -53 -27 -69 -30 -154 -30 -85
0 -101 3 -154 30 -100 50 -170 149 -183 255 -3 28 -10 50 -16 50 -6 0 -7 -19
-3 -50z"/>
<path d="M3254 4353 c17 -127 131 -223 266 -223 137 0 249 95 267 225 4 31 2
45 -6 45 -6 0 -11 -15 -11 -32 -1 -73 -74 -170 -155 -204 -54 -22 -142 -21
-196 4 -82 37 -148 126 -149 200 0 17 -5 32 -11 32 -8 0 -10 -15 -5 -47z"/>
<path d="M3340 4366 c27 -122 158 -183 270 -126 47 24 93 96 88 137 -4 26 -5
24 -17 -16 -26 -90 -120 -147 -201 -122 -57 17 -97 55 -117 112 -20 56 -35 66
-23 15z"/>
<path d="M3425 4378 c4 -13 18 -34 31 -48 48 -49 138 -23 159 48 9 32 -8 27
-23 -7 -7 -16 -26 -35 -43 -41 -26 -11 -36 -10 -64 3 -21 10 -37 26 -41 42 -3
14 -10 25 -16 25 -5 0 -6 -10 -3 -22z"/>
<path d="M4043 4351 c13 -111 97 -226 200 -275 58 -27 157 -45 157 -29 0 6
-23 13 -51 16 -142 17 -269 143 -286 285 -3 29 -10 52 -16 52 -6 0 -8 -19 -4
-49z"/>
<path d="M4130 4368 c0 -77 77 -179 164 -219 44 -20 111 -26 101 -9 -3 6 -18
10 -33 10 -90 1 -212 124 -212 214 0 14 -4 28 -10 31 -6 4 -10 -8 -10 -27z"/>
<path d="M4220 4376 c-1 -69 88 -157 156 -155 25 0 22 3 -22 20 -62 23 -89 51
-114 115 -17 43 -19 46 -20 20z"/>
<path d="M4305 4378 c4 -13 17 -33 29 -44 23 -24 66 -41 66 -26 0 5 -13 15
-29 22 -16 6 -35 25 -41 41 -14 34 -34 39 -25 7z"/>
<path d="M0 3613 c0 -4 13 -14 29 -21 16 -7 35 -26 41 -43 11 -26 10 -36 -3
-64 -10 -21 -26 -37 -42 -41 -14 -3 -25 -10 -25 -16 0 -15 43 2 70 28 49 48
23 138 -47 159 -13 3 -23 3 -23 -2z"/>
<path d="M4365 3611 c-62 -26 -81 -110 -35 -155 27 -26 70 -43 70 -28 0 6 -11
13 -25 16 -16 4 -32 20 -42 41 -13 28 -14 38 -3 64 6 17 25 36 41 43 44 20 38
37 -6 19z"/>
<path d="M0 2732 c0 -6 11 -13 25 -16 16 -4 32 -20 42 -41 21 -43 5 -88 -38
-105 -34 -14 -39 -34 -6 -25 95 29 95 161 0 190 -13 3 -23 2 -23 -3z"/>
<path d="M4365 2731 c-62 -26 -81 -110 -35 -155 27 -26 70 -43 70 -28 0 5 -13
15 -29 22 -43 17 -59 62 -38 105 10 21 26 37 42 41 14 3 25 10 25 15 0 11 -8
11 -35 0z"/>
<path d="M0 1852 c0 -5 13 -15 29 -22 43 -17 59 -62 38 -105 -10 -21 -26 -37
-42 -41 -14 -3 -25 -10 -25 -16 0 -15 43 2 70 28 49 48 23 138 -47 159 -13 3
-23 2 -23 -3z"/>
<path d="M4365 1851 c-62 -26 -81 -110 -35 -155 27 -26 70 -43 70 -28 0 6 -11
13 -25 16 -16 4 -32 20 -42 41 -21 43 -5 88 38 105 16 7 29 16 29 21 0 11 -8
11 -35 0z"/>
<path d="M0 972 c0 -6 11 -13 25 -16 16 -4 32 -20 42 -41 13 -28 14 -38 3 -64
-6 -17 -25 -36 -41 -43 -34 -15 -39 -32 -6 -23 42 13 72 52 72 95 0 29 -7 46
-25 64 -27 26 -70 43 -70 28z"/>
<path d="M4365 971 c-62 -26 -81 -110 -35 -155 26 -25 70 -43 70 -29 0 4 -13
14 -29 21 -16 7 -35 26 -41 43 -11 26 -10 36 3 64 10 21 26 37 42 41 14 3 25
10 25 15 0 11 -8 11 -35 0z"/>
<path d="M0 92 c0 -5 13 -15 29 -22 16 -6 35 -25 41 -41 7 -16 17 -29 22 -29
15 0 -2 43 -26 66 -23 24 -66 41 -66 26z"/>
<path d="M845 91 c-36 -16 -83 -91 -57 -91 6 0 13 11 16 25 4 16 20 32 41 42
33 16 37 16 70 0 21 -10 37 -26 41 -42 3 -14 10 -25 16 -25 14 0 -1 42 -26 67
-24 26 -71 37 -101 24z"/>
<path d="M1725 91 c-36 -16 -83 -91 -57 -91 6 0 13 11 16 25 4 16 20 32 41 42
43 21 88 5 105 -38 14 -34 34 -39 25 -6 -16 53 -83 88 -130 68z"/>
<path d="M2605 91 c-26 -11 -51 -40 -59 -68 -11 -33 10 -28 24 6 17 43 62 59
105 38 21 -10 37 -26 41 -42 3 -14 10 -25 16 -25 14 0 -1 42 -26 67 -24 26
-71 37 -101 24z"/>
<path d="M3485 91 c-36 -16 -83 -91 -57 -91 6 0 13 11 16 25 4 16 20 32 41 42
28 13 38 14 64 3 17 -6 36 -25 43 -41 15 -34 32 -39 23 -6 -16 53 -83 88 -130
68z"/>
<path d="M4365 91 c-26 -11 -51 -40 -59 -68 -11 -33 10 -28 24 6 6 16 25 35
41 41 16 7 29 16 29 21 0 11 -8 11 -35 0z"/>
</g>
</svg>
