<?xml version="1.0" standalone="no"?>
<!DOCTYPE svg PUBLIC "-//W3C//DTD SVG 20010904//EN"
 "http://www.w3.org/TR/2001/REC-SVG-20010904/DTD/svg10.dtd">
<svg version="1.0" xmlns="http://www.w3.org/2000/svg"
 width="60px" height="60px" viewBox="0 0 1000.000000 1000.000000"
 preserveAspectRatio="xMidYMid meet">

<g transform="translate(0.000000,1000.000000) scale(0.100000,-0.100000)"
fill="white" stroke="none">
<path d="M90 9864 c0 -50 22 -59 28 -11 2 15 8 27 13 27 5 0 9 7 9 15 0 9 -9
15 -25 15 -23 0 -25 -4 -25 -46z"/>
<path d="M250 9895 c0 -12 13 -15 55 -15 42 0 55 3 55 15 0 12 -13 15 -55 15
-42 0 -55 -3 -55 -15z"/>
<path d="M470 9895 c0 -12 13 -15 55 -15 42 0 55 3 55 15 0 12 -13 15 -55 15
-42 0 -55 -3 -55 -15z"/>
<path d="M690 9895 c0 -12 13 -15 55 -15 42 0 55 3 55 15 0 12 -13 15 -55 15
-42 0 -55 -3 -55 -15z"/>
<path d="M910 9895 c0 -12 13 -15 55 -15 42 0 55 3 55 15 0 12 -13 15 -55 15
-42 0 -55 -3 -55 -15z"/>
<path d="M1130 9894 c0 -12 10 -14 52 -12 74 4 77 28 4 28 -44 0 -56 -3 -56
-16z"/>
<path d="M1345 9900 c-3 -6 0 -13 8 -16 25 -9 100 0 105 14 5 15 -104 17 -113
2z"/>
<path d="M1565 9900 c-3 -6 0 -13 8 -16 25 -9 100 0 105 14 5 15 -104 17 -113
2z"/>
<path d="M1785 9900 c-3 -6 0 -13 8 -16 25 -9 100 0 105 14 5 15 -104 17 -113
2z"/>
<path d="M2005 9900 c-3 -6 0 -13 8 -16 25 -9 100 0 105 14 5 15 -104 17 -113
2z"/>
<path d="M2222 9898 c6 -16 108 -18 108 -3 0 6 -25 11 -56 13 -43 2 -55 0 -52
-10z"/>
<path d="M2442 9898 c6 -16 108 -18 108 -3 0 6 -25 11 -56 13 -43 2 -55 0 -52
-10z"/>
<path d="M2662 9898 c6 -16 108 -18 108 -3 0 6 -25 11 -56 13 -43 2 -55 0 -52
-10z"/>
<path d="M2882 9898 c6 -16 108 -18 108 -3 0 6 -25 11 -56 13 -43 2 -55 0 -52
-10z"/>
<path d="M3102 9898 c3 -8 26 -14 56 -16 42 -2 52 0 52 12 0 13 -12 16 -56 16
-40 0 -55 -4 -52 -12z"/>
<path d="M3320 9895 c0 -12 13 -15 55 -15 42 0 55 3 55 15 0 12 -13 15 -55 15
-42 0 -55 -3 -55 -15z"/>
<path d="M3540 9895 c0 -12 13 -15 55 -15 42 0 55 3 55 15 0 12 -13 15 -55 15
-42 0 -55 -3 -55 -15z"/>
<path d="M3760 9895 c0 -12 13 -15 55 -15 42 0 55 3 55 15 0 12 -13 15 -55 15
-42 0 -55 -3 -55 -15z"/>
<path d="M3980 9895 c0 -12 13 -15 55 -15 42 0 55 3 55 15 0 12 -13 15 -55 15
-42 0 -55 -3 -55 -15z"/>
<path d="M4200 9895 c0 -12 13 -15 55 -15 42 0 55 3 55 15 0 12 -13 15 -55 15
-42 0 -55 -3 -55 -15z"/>
<path d="M4420 9895 c0 -12 13 -15 55 -15 42 0 55 3 55 15 0 12 -13 15 -55 15
-42 0 -55 -3 -55 -15z"/>
<path d="M4640 9895 c0 -12 13 -15 55 -15 42 0 55 3 55 15 0 12 -13 15 -55 15
-42 0 -55 -3 -55 -15z"/>
<path d="M4860 9895 c0 -12 13 -15 55 -15 42 0 55 3 55 15 0 12 -13 15 -55 15
-42 0 -55 -3 -55 -15z"/>
<path d="M5080 9894 c0 -12 10 -14 52 -12 74 4 77 28 4 28 -44 0 -56 -3 -56
-16z"/>
<path d="M5295 9900 c-3 -6 0 -13 8 -16 25 -9 100 0 105 14 5 15 -104 17 -113
2z"/>
<path d="M5515 9900 c-3 -6 0 -13 8 -16 25 -9 100 0 105 14 5 15 -104 17 -113
2z"/>
<path d="M5735 9900 c-3 -6 0 -13 8 -16 25 -9 100 0 105 14 5 15 -104 17 -113
2z"/>
<path d="M5955 9900 c-3 -5 0 -13 8 -16 23 -8 102 0 102 11 0 14 -102 19 -110
5z"/>
<path d="M6172 9898 c6 -16 108 -18 108 -3 0 6 -25 11 -56 13 -43 2 -55 0 -52
-10z"/>
<path d="M6392 9898 c6 -16 108 -18 108 -3 0 6 -25 11 -56 13 -43 2 -55 0 -52
-10z"/>
<path d="M6612 9898 c6 -16 108 -18 108 -3 0 6 -25 11 -56 13 -43 2 -55 0 -52
-10z"/>
<path d="M6832 9898 c6 -16 108 -18 108 -3 0 6 -25 11 -56 13 -43 2 -55 0 -52
-10z"/>
<path d="M7050 9895 c0 -12 13 -15 55 -15 42 0 55 3 55 15 0 12 -13 15 -55 15
-42 0 -55 -3 -55 -15z"/>
<path d="M7270 9895 c0 -12 13 -15 55 -15 42 0 55 3 55 15 0 12 -13 15 -55 15
-42 0 -55 -3 -55 -15z"/>
<path d="M7490 9895 c0 -12 13 -15 55 -15 42 0 55 3 55 15 0 12 -13 15 -55 15
-42 0 -55 -3 -55 -15z"/>
<path d="M7710 9895 c0 -12 13 -15 55 -15 42 0 55 3 55 15 0 12 -13 15 -55 15
-42 0 -55 -3 -55 -15z"/>
<path d="M7930 9895 c0 -12 13 -15 55 -15 42 0 55 3 55 15 0 12 -13 15 -55 15
-42 0 -55 -3 -55 -15z"/>
<path d="M8150 9895 c0 -12 13 -15 55 -15 42 0 55 3 55 15 0 12 -13 15 -55 15
-42 0 -55 -3 -55 -15z"/>
<path d="M8370 9895 c0 -12 13 -15 55 -15 42 0 55 3 55 15 0 12 -13 15 -55 15
-42 0 -55 -3 -55 -15z"/>
<path d="M8590 9895 c0 -12 13 -15 55 -15 42 0 55 3 55 15 0 12 -13 15 -55 15
-42 0 -55 -3 -55 -15z"/>
<path d="M8810 9895 c0 -12 13 -15 55 -15 42 0 55 3 55 15 0 12 -13 15 -55 15
-42 0 -55 -3 -55 -15z"/>
<path d="M9025 9900 c-3 -6 0 -13 8 -16 25 -9 100 0 105 14 5 15 -104 17 -113
2z"/>
<path d="M9245 9900 c-3 -6 0 -13 8 -16 25 -9 100 0 105 14 5 15 -104 17 -113
2z"/>
<path d="M9465 9900 c-3 -6 0 -13 8 -16 25 -9 100 0 105 14 5 15 -104 17 -113
2z"/>
<path d="M9685 9900 c-3 -6 0 -13 8 -16 25 -9 100 0 105 14 5 15 -104 17 -113
2z"/>
<path d="M9892 9846 c2 -31 8 -56 13 -56 15 0 13 102 -3 108 -10 3 -12 -9 -10
-52z"/>
<path d="M92 9666 c2 -31 8 -56 13 -56 15 0 13 102 -3 108 -10 3 -12 -9 -10
-52z"/>
<path d="M8646 9699 c-50 -12 -65 -25 -87 -74 -38 -82 -14 -175 50 -202 44
-19 133 -13 179 11 58 30 109 131 97 192 -5 30 -13 39 -49 55 -53 23 -138 31
-190 18z m119 -39 c39 -15 75 -59 75 -92 0 -34 -16 -68 -31 -68 -6 0 -24 -11
-41 -25 -37 -32 -66 -39 -101 -26 -60 23 -73 146 -22 197 26 26 74 32 120 14z
m76 -17 c13 -16 12 -17 -3 -4 -10 7 -18 15 -18 17 0 8 8 3 21 -13z m-246 -30
c-4 -16 -11 -44 -15 -63 -6 -27 -8 -30 -9 -10 -1 28 17 100 26 100 3 0 2 -12
-2 -27z m4 -133 c11 -24 11 -24 -3 -6 -9 11 -16 24 -16 30 0 12 5 7 19 -24z"/>
<path d="M9892 9626 c2 -31 8 -56 13 -56 15 0 13 102 -3 108 -10 3 -12 -9 -10
-52z"/>
<path d="M1282 9634 c-30 -21 -30 -77 0 -98 29 -21 31 -20 67 10 19 15 31 35
31 49 0 25 -33 55 -60 55 -9 0 -26 -7 -38 -16z"/>
<path d="M6517 9610 c-32 -25 -37 -81 -11 -119 14 -19 23 -22 52 -17 42 6 82
41 82 72 0 29 -38 72 -70 79 -18 4 -34 0 -53 -15z"/>
<path d="M4007 9589 c-104 -25 -147 -112 -94 -190 22 -33 26 -34 107 -42 103
-9 124 -1 150 56 24 51 25 77 5 122 -20 50 -92 73 -168 54z m95 -61 c12 -80
-26 -138 -89 -138 -54 0 -73 15 -73 59 0 65 50 107 131 110 23 1 27 -4 31 -31z
m58 -48 c0 -39 -39 -100 -62 -100 -6 0 -3 9 6 19 11 12 20 43 23 80 5 50 8 59
19 50 8 -6 14 -29 14 -49z"/>
<path d="M92 9446 c2 -31 8 -56 13 -56 15 0 13 102 -3 108 -10 3 -12 -9 -10
-52z"/>
<path d="M9892 9406 c2 -31 8 -56 13 -56 15 0 13 102 -3 108 -10 3 -12 -9 -10
-52z"/>
<path d="M1208 9370 c-61 -11 -141 -37 -198 -65 -59 -30 -358 -221 -389 -249
-36 -32 -155 -217 -215 -336 -104 -203 -146 -368 -146 -568 0 -142 18 -245 66
-384 63 -181 121 -274 247 -396 78 -75 112 -95 186 -107 24 -4 73 -21 110 -38
61 -29 76 -32 191 -35 76 -3 179 2 264 12 76 9 165 16 198 16 52 0 71 6 156
52 124 66 217 129 342 229 113 91 180 164 272 299 118 172 141 234 152 416 3
50 13 119 22 155 40 157 -21 410 -131 536 -20 24 -82 78 -139 122 -56 44 -119
100 -140 125 -113 139 -589 259 -848 216z m453 -53 c99 -26 208 -73 144 -62
-227 38 -334 50 -455 50 -124 -1 -146 -4 -271 -38 -75 -20 -140 -37 -145 -37
-15 0 65 51 113 72 88 39 158 48 343 44 148 -3 190 -8 271 -29z m-51 -54 c194
-26 346 -78 447 -153 128 -95 296 -412 348 -659 24 -116 20 -167 -24 -283 -21
-57 -46 -127 -56 -156 -18 -56 -34 -82 -164 -262 -118 -163 -175 -218 -351
-336 -236 -157 -323 -181 -643 -171 -207 6 -282 19 -370 63 -171 86 -381 305
-450 469 -33 80 -49 163 -54 295 -7 169 14 322 63 470 40 121 80 196 162 307
197 265 375 376 669 417 190 27 216 27 423 -1z m-920 -186 c0 -2 -18 -21 -40
-42 -22 -21 -40 -35 -40 -31 0 5 17 24 37 42 35 32 43 38 43 31z m1573 -129
c134 -135 203 -323 181 -495 l-7 -58 -19 95 c-31 155 -100 309 -210 473 -21
31 -34 57 -28 57 6 0 43 -33 83 -72z m137 -860 c-30 -129 -115 -276 -235 -408
-107 -118 -114 -118 -20 0 116 145 212 313 246 428 17 59 24 44 9 -20z m-1730
-741 c38 -33 40 -36 14 -23 -40 19 -133 104 -176 159 -25 33 -15 26 43 -28 40
-39 94 -88 119 -108z"/>
<path d="M1438 8859 c-26 -15 -23 -58 5 -68 44 -18 84 31 52 63 -19 18 -33 20
-57 5z"/>
<path d="M1163 8842 c-20 -13 -33 -58 -20 -71 31 -31 87 3 87 52 0 23 -4 27
-27 27 -16 0 -33 -4 -40 -8z"/>
<path d="M1240 8724 c-75 -20 -131 -55 -204 -127 -55 -55 -67 -75 -105 -170
-37 -91 -43 -116 -39 -160 9 -111 87 -225 186 -274 110 -54 334 -42 455 24 61
34 133 113 142 156 4 17 20 71 37 119 37 106 35 159 -8 221 -39 54 -235 191
-304 211 -64 19 -88 19 -160 0z m215 -58 c65 -30 193 -149 216 -201 11 -23 19
-64 19 -97 0 -89 -44 -164 -155 -261 -50 -43 -103 -85 -120 -94 -39 -22 -208
-30 -259 -13 -46 15 -100 79 -126 147 -25 66 -27 191 -5 254 33 91 153 261
200 279 11 5 56 9 100 9 64 1 90 -4 130 -23z m-328 -33 c-3 -5 -23 -38 -45
-75 -121 -197 -135 -303 -60 -453 l30 -60 -42 40 c-48 46 -83 107 -74 130 4 8
1 22 -6 30 -34 41 54 242 156 354 33 37 52 53 41 34z m443 -554 c-42 -34 -67
-42 -30 -10 19 17 40 30 45 31 6 0 -1 -9 -15 -21z"/>
<path d="M1656 8724 c-21 -21 -21 -73 1 -81 9 -3 28 0 42 8 21 12 25 21 22 44
-5 45 -36 59 -65 29z"/>
<path d="M914 8695 c-23 -35 -12 -75 21 -75 35 0 62 43 47 75 -15 32 -47 32
-68 0z"/>
<path d="M1822 8518 c-15 -15 -15 -43 -2 -69 15 -26 36 -24 56 6 30 46 -17
100 -54 63z"/>
<path d="M806 8474 c-18 -17 -22 -79 -6 -89 15 -9 57 20 65 44 7 24 -10 61
-30 61 -7 0 -21 -7 -29 -16z"/>
<path d="M1816 8248 c-22 -30 -20 -55 4 -63 41 -13 86 39 60 70 -18 22 -47 18
-64 -7z"/>
<path d="M777 8203 c-4 -3 -7 -19 -7 -35 0 -21 7 -32 26 -40 22 -11 28 -10 40
7 17 23 18 47 2 63 -13 13 -50 16 -61 5z"/>
<path d="M1703 8069 c-42 -15 -41 -89 1 -97 28 -6 46 18 46 58 0 41 -13 52
-47 39z"/>
<path d="M897 7973 c-6 -9 -10 -49 -8 -75 2 -30 59 -24 73 7 16 35 -3 75 -36
75 -14 0 -27 -3 -29 -7z"/>
<path d="M1400 7885 c-19 -23 2 -65 33 -65 29 0 60 32 55 57 -4 24 -69 31 -88
8z"/>
<path d="M1142 7834 c-16 -11 -22 -24 -20 -41 4 -38 30 -50 62 -30 31 21 35
62 7 77 -25 13 -22 13 -49 -6z"/>
<path d="M92 9226 c2 -31 8 -56 13 -56 15 0 13 102 -3 108 -10 3 -12 -9 -10
-52z"/>
<path d="M3964 9250 c-73 -19 -158 -58 -275 -126 -58 -34 -79 -55 -161 -165
-103 -137 -133 -197 -143 -279 -4 -30 -13 -91 -22 -135 -32 -164 8 -341 99
-440 67 -74 144 -110 299 -141 197 -40 367 -25 527 47 87 39 129 75 221 189
98 122 152 214 187 316 23 69 26 91 22 174 -3 82 -8 105 -38 168 -39 84 -86
132 -223 224 -57 39 -111 66 -152 77 -40 11 -78 31 -105 53 -38 33 -104 59
-147 57 -10 0 -50 -9 -89 -19z m209 -54 c19 -19 57 -42 92 -55 80 -29 136 -53
132 -58 -2 -2 -48 11 -103 27 -272 84 -377 82 -571 -16 -114 -57 -118 -47 -9
21 145 90 257 127 359 120 62 -5 72 -9 100 -39z m-8 -81 c77 -20 174 -60 250
-104 165 -95 271 -294 245 -458 -10 -59 -10 -59 -98 -208 -84 -144 -101 -165
-172 -220 -190 -146 -447 -195 -613 -118 -94 44 -239 146 -291 204 -62 69 -81
130 -81 254 1 121 34 284 75 365 61 119 202 250 270 250 11 0 46 11 78 24 31
13 68 26 82 29 41 9 191 -2 255 -18z m369 -135 c68 -46 156 -188 156 -252 0
-29 -5 -23 -41 51 -32 65 -59 102 -123 166 -82 84 -80 94 8 35z m-1117 -272
c-3 -8 -6 -5 -6 6 -1 11 2 17 5 13 3 -3 4 -12 1 -19z m89 -554 c25 -23 71 -60
103 -81 105 -68 101 -64 56 -57 -93 14 -190 95 -240 200 -33 70 -32 76 6 24
17 -24 51 -62 75 -86z"/>
<path d="M6440 9234 c-89 -10 -154 -31 -260 -84 -63 -31 -152 -71 -198 -89
-105 -42 -153 -78 -189 -138 -15 -26 -51 -85 -79 -129 -117 -188 -150 -424
-88 -635 31 -103 109 -233 181 -300 39 -37 196 -127 290 -167 128 -54 314 -79
462 -62 113 13 177 37 302 115 138 86 207 144 290 240 98 114 134 174 166 270
49 153 30 372 -46 523 -61 121 -222 295 -336 364 -106 64 -202 90 -340 93 -66
2 -136 1 -155 -1z m315 -39 c62 -16 211 -82 204 -90 -3 -2 -54 12 -114 31
-127 41 -236 64 -307 64 -27 0 -99 -11 -160 -25 -61 -14 -113 -24 -115 -21
-11 10 89 44 177 60 50 9 256 -3 315 -19z m10 -54 c44 -12 121 -41 172 -66 77
-38 103 -57 163 -123 39 -42 78 -89 86 -104 22 -42 91 -325 99 -404 5 -52 2
-89 -9 -133 -19 -74 -108 -266 -139 -299 -12 -13 -62 -52 -112 -86 -49 -34
-126 -88 -170 -121 -158 -115 -294 -160 -461 -153 -86 4 -95 6 -164 46 -78 45
-147 72 -184 72 -13 0 -55 16 -94 35 -102 52 -222 179 -245 261 -44 159 -47
356 -8 509 36 140 79 212 194 326 107 107 199 178 262 205 21 8 90 24 154 35
64 11 121 21 126 24 25 12 255 -5 330 -24z m-860 -193 c-137 -139 -172 -190
-206 -305 -39 -132 -59 -240 -60 -327 -1 -54 -3 -64 -9 -41 -23 91 1 292 49
404 28 68 130 221 185 279 26 29 107 80 127 82 3 0 -35 -42 -86 -92z m1374
-233 c65 -171 51 -434 -29 -559 -26 -42 -25 -30 5 37 13 30 31 84 40 119 21
79 9 188 -40 375 -29 109 -31 124 -14 103 10 -14 27 -48 38 -75z m-239 -820
c-28 -30 -159 -119 -166 -112 -3 2 34 30 81 62 47 32 88 62 91 66 3 5 8 9 11
9 4 0 -4 -11 -17 -25z m-920 -175 c13 -9 13 -10 0 -10 -8 0 -22 5 -30 10 -13
9 -13 10 0 10 8 0 22 -5 30 -10z"/>
<path d="M6293 9076 c-50 -23 -202 -114 -270 -162 -148 -105 -239 -268 -250
-449 -8 -132 34 -319 103 -456 46 -92 214 -212 344 -245 128 -33 428 0 571 62
22 10 69 53 120 112 122 140 147 174 195 268 34 66 44 96 44 134 0 27 9 72 20
100 11 28 20 70 20 94 0 90 -59 223 -127 288 -46 44 -247 174 -340 220 l-86
43 -156 3 c-119 2 -164 -1 -188 -12z m382 -56 c33 -15 95 -44 139 -65 92 -44
158 -101 192 -166 27 -54 64 -272 64 -380 0 -95 -23 -149 -121 -282 -112 -151
-163 -204 -232 -237 -111 -53 -194 -58 -520 -30 -160 13 -235 60 -304 192 -27
52 -28 56 -28 218 0 137 4 180 23 253 31 122 78 220 147 300 66 79 196 194
239 212 20 8 83 13 185 13 151 1 158 0 216 -28z m-612 -135 c-105 -116 -138
-174 -188 -327 -39 -118 -45 -149 -46 -225 -1 -70 -3 -82 -10 -58 -5 17 -12
64 -15 105 -15 194 90 412 258 536 33 24 62 44 65 44 2 0 -26 -34 -64 -75z
m1008 -128 c26 -34 55 -78 64 -97 26 -50 32 -161 12 -208 -9 -20 -28 -83 -41
-140 -33 -138 -106 -254 -238 -378 -60 -57 -96 -78 -148 -88 -32 -7 -30 -5 15
17 56 27 119 86 178 167 22 30 64 87 94 127 66 87 93 164 93 267 0 98 -35 290
-64 349 -13 26 -20 47 -17 47 3 -1 27 -29 52 -63z m-654 -941 l192 -1 -47 -17
c-84 -30 -317 -17 -379 22 -14 8 -12 9 12 3 16 -3 116 -7 222 -7z"/>
<path d="M8595 9222 c-78 -24 -165 -69 -241 -125 -75 -55 -90 -88 -130 -294
l-28 -140 17 -87 c32 -163 85 -247 170 -270 29 -8 102 -28 163 -45 61 -17 125
-31 142 -31 55 0 271 78 325 117 107 79 214 244 235 363 36 202 -111 423 -332
500 -86 31 -240 36 -321 12z m278 -37 c128 -27 227 -96 288 -200 24 -41 29
-61 29 -117 0 -36 5 -89 11 -116 15 -64 9 -87 -45 -158 -24 -33 -55 -81 -69
-109 -26 -53 -72 -103 -84 -92 -3 4 2 16 12 27 10 11 16 23 13 26 -3 3 -15 -6
-26 -20 -11 -15 -29 -26 -39 -26 -11 0 -35 -11 -54 -25 -109 -79 -104 -77
-193 -82 -102 -7 -195 9 -253 43 -55 32 -131 146 -167 250 -15 43 -31 86 -35
94 -12 23 8 188 31 254 25 75 69 140 116 171 47 30 140 61 239 79 102 18 144
19 226 1z m-548 -725 c15 -25 46 -67 68 -94 37 -44 39 -48 17 -41 -74 22 -129
98 -160 220 -28 111 -25 121 13 35 18 -41 46 -95 62 -120z m635 -95 c0 -2 -18
-14 -41 -26 -23 -11 -38 -15 -34 -9 4 7 21 18 39 26 36 16 36 15 36 9z"/>
<path d="M9890 9186 c0 -44 3 -56 16 -56 12 0 14 10 12 52 -4 74 -28 77 -28 4z"/>
<path d="M92 9006 c2 -31 8 -56 13 -56 15 0 13 102 -3 108 -10 3 -12 -9 -10
-52z"/>
<path d="M9890 8965 c0 -42 3 -55 15 -55 12 0 15 13 15 55 0 42 -3 55 -15 55
-12 0 -15 -13 -15 -55z"/>
<path d="M90 8786 c0 -44 3 -56 16 -56 12 0 14 10 12 52 -4 74 -28 77 -28 4z"/>
<path d="M9890 8745 c0 -42 3 -55 15 -55 12 0 15 13 15 55 0 42 -3 55 -15 55
-12 0 -15 -13 -15 -55z"/>
<path d="M90 8565 c0 -42 3 -55 15 -55 12 0 15 13 15 55 0 42 -3 55 -15 55
-12 0 -15 -13 -15 -55z"/>
<path d="M9890 8525 c0 -42 3 -55 15 -55 12 0 15 13 15 55 0 42 -3 55 -15 55
-12 0 -15 -13 -15 -55z"/>
<path d="M90 8345 c0 -42 3 -55 15 -55 12 0 15 13 15 55 0 42 -3 55 -15 55
-12 0 -15 -13 -15 -55z"/>
<path d="M9890 8305 c0 -42 3 -55 15 -55 12 0 15 13 15 55 0 42 -3 55 -15 55
-12 0 -15 -13 -15 -55z"/>
<path d="M90 8125 c0 -42 3 -55 15 -55 12 0 15 13 15 55 0 42 -3 55 -15 55
-12 0 -15 -13 -15 -55z"/>
<path d="M9890 8085 c0 -42 3 -55 15 -55 12 0 15 13 15 55 0 42 -3 55 -15 55
-12 0 -15 -13 -15 -55z"/>
<path d="M8655 8098 c-52 -28 -58 -67 -16 -109 59 -58 132 -23 117 56 -10 54
-56 78 -101 53z"/>
<path d="M90 7905 c0 -42 3 -55 15 -55 12 0 15 13 15 55 0 42 -3 55 -15 55
-12 0 -15 -13 -15 -55z"/>
<path d="M9890 7865 c0 -42 3 -55 15 -55 12 0 15 13 15 55 0 42 -3 55 -15 55
-12 0 -15 -13 -15 -55z"/>
<path d="M90 7685 c0 -42 3 -55 15 -55 12 0 15 13 15 55 0 42 -3 55 -15 55
-12 0 -15 -13 -15 -55z"/>
<path d="M9890 7645 c0 -42 3 -55 15 -55 12 0 15 13 15 55 0 42 -3 55 -15 55
-12 0 -15 -13 -15 -55z"/>
<path d="M3970 7664 c-19 -2 -87 -9 -150 -15 -236 -22 -456 -80 -608 -159 -42
-22 -145 -90 -228 -152 -399 -298 -509 -437 -621 -788 l-46 -145 -1 -295 c-1
-351 -2 -347 114 -590 43 -91 91 -194 107 -230 35 -77 178 -256 281 -351 111
-103 265 -173 444 -204 64 -11 122 -30 188 -60 52 -24 118 -49 145 -56 95 -21
245 -14 477 25 348 58 435 96 700 309 185 148 298 259 359 352 86 130 265 501
293 605 46 176 60 268 60 415 0 119 -4 156 -26 247 -49 191 -152 442 -222 537
-46 61 -269 280 -326 318 -108 72 -340 162 -540 209 -102 24 -310 39 -400 28z
m396 -48 c116 -29 344 -110 451 -162 92 -44 162 -101 298 -244 118 -124 147
-170 213 -335 22 -55 54 -129 70 -165 37 -84 50 -138 62 -263 17 -171 -14
-400 -80 -588 -36 -106 -37 -85 -3 105 21 119 27 182 27 301 l0 150 -57 175
c-59 182 -114 307 -168 388 -51 74 -170 192 -220 217 -25 13 -95 63 -155 111
-141 113 -192 145 -322 203 -115 52 -197 81 -332 118 l-85 23 100 -5 c57 -2
144 -15 201 -29z m-206 -13 c41 -8 102 -24 135 -34 91 -30 270 -120 365 -184
139 -94 339 -253 425 -340 70 -69 89 -96 138 -195 67 -138 142 -376 158 -501
8 -65 8 -113 0 -167 -55 -401 -70 -462 -141 -607 -61 -124 -144 -228 -302
-380 -164 -158 -381 -323 -453 -346 -22 -7 -96 -37 -165 -67 -210 -91 -219
-93 -389 -102 -91 -5 -163 -5 -178 1 -13 5 -95 21 -181 35 -239 40 -344 74
-452 147 -61 42 -279 216 -368 295 -71 63 -229 249 -258 304 -43 82 -94 363
-94 516 0 226 79 539 193 767 88 177 196 313 429 541 127 124 166 156 233 190
248 129 631 182 905 127z m-1231 -380 c-287 -293 -381 -444 -477 -768 -59
-198 -67 -254 -67 -465 0 -181 11 -282 41 -388 2 -9 -5 3 -16 27 -98 210 -104
625 -15 936 30 104 115 286 173 371 54 80 164 183 307 286 66 47 136 100 155
117 19 17 37 30 39 31 3 0 -61 -66 -140 -147z m2149 -1940 c-52 -74 -187 -206
-258 -253 -36 -24 -89 -65 -119 -92 -108 -98 -224 -164 -361 -206 -144 -43
-139 -30 11 31 153 62 211 92 275 139 175 129 247 189 354 298 69 70 126 128
128 129 2 0 -12 -20 -30 -46z m-2317 -174 c103 -91 190 -158 326 -250 64 -43
114 -79 111 -79 -4 0 -42 11 -85 25 -194 61 -378 218 -512 438 -22 37 -41 70
-41 72 0 3 29 -27 64 -67 34 -40 96 -103 137 -139z m884 -440 c39 -6 77 -15
85 -20 23 -12 -98 1 -157 17 -55 15 -73 30 -25 20 15 -3 59 -11 97 -17z"/>
<path d="M3697 6964 c-118 -26 -237 -74 -280 -113 -22 -19 -69 -58 -106 -86
-82 -64 -129 -124 -187 -241 -61 -125 -95 -261 -95 -391 -1 -136 13 -199 71
-318 114 -236 271 -355 545 -415 212 -47 406 -35 539 32 157 79 310 207 356
297 15 31 51 94 79 140 106 175 120 260 72 446 -43 168 -93 264 -188 365 -87
93 -158 144 -276 200 -181 86 -380 118 -530 84z m363 -72 c25 -13 61 -31 80
-42 19 -11 74 -38 121 -59 48 -23 108 -60 137 -86 143 -129 252 -393 240 -582
-6 -93 -43 -169 -168 -348 -115 -165 -156 -203 -294 -270 -213 -104 -328 -109
-589 -25 -187 60 -347 192 -424 350 -103 210 -95 435 25 675 35 70 86 151 107
170 65 57 196 145 260 176 125 60 170 69 325 66 116 -3 141 -6 180 -25z"/>
<path d="M3720 6823 c-40 -15 -90 -82 -90 -122 0 -11 12 -33 26 -50 30 -36 62
-40 123 -15 49 19 71 51 71 102 0 70 -62 110 -130 85z m70 -33 c18 0 40 -33
40 -61 0 -22 -8 -34 -32 -49 -40 -24 -105 -26 -130 -3 -19 17 -25 43 -10 43 5
0 14 11 20 25 13 27 68 57 90 50 8 -3 17 -5 22 -5z"/>
<path d="M4080 6730 c-28 -28 -40 -63 -40 -116 0 -44 2 -46 43 -63 23 -10 61
-21 85 -24 41 -5 43 -4 67 37 32 55 32 87 -1 126 -51 60 -117 77 -154 40z
m116 -32 c7 -5 17 -22 24 -38 10 -24 10 -36 -1 -62 -16 -40 -26 -48 -61 -48
-42 0 -88 45 -88 86 0 49 40 85 83 77 18 -3 37 -10 43 -15z"/>
<path d="M3384 6574 c-21 -8 -40 -14 -41 -14 -2 0 -16 -19 -33 -42 -33 -46
-40 -98 -14 -119 8 -7 40 -15 70 -17 63 -5 130 19 140 50 9 29 -5 95 -27 121
-25 32 -48 37 -95 21z m76 -39 c7 -8 15 -35 17 -59 l5 -45 -56 -16 c-71 -21
-110 -11 -114 28 -8 67 109 139 148 92z"/>
<path d="M4357 6408 c-38 -22 -77 -85 -77 -125 0 -36 57 -73 116 -75 30 -1 43
5 65 30 55 61 58 141 7 176 -31 22 -66 20 -111 -6z m108 -28 c14 -15 16 -29
11 -62 -4 -24 -14 -54 -23 -67 -13 -20 -21 -23 -59 -18 -49 5 -84 30 -84 59 0
77 109 139 155 88z"/>
<path d="M3294 6240 c-63 -19 -100 -90 -82 -158 10 -38 54 -62 110 -62 52 1
79 30 91 100 6 30 -4 105 -15 115 -9 10 -77 13 -104 5z m80 -36 c26 -25 21
-96 -9 -128 -27 -29 -79 -35 -108 -13 -47 34 -18 128 45 146 47 13 55 13 72
-5z"/>
<path d="M4284 6016 c-20 -20 -34 -44 -34 -59 0 -54 76 -106 135 -91 35 9 54
41 62 101 5 45 3 52 -18 67 -13 9 -43 16 -67 16 -37 0 -50 -6 -78 -34z m128
-3 c26 -23 23 -69 -7 -98 -39 -39 -97 -29 -115 21 -25 65 70 125 122 77z"/>
<path d="M3403 5894 c-71 -35 -99 -138 -50 -180 57 -48 138 -38 162 21 29 68
11 140 -40 163 -32 15 -33 15 -72 -4z m87 -43 c24 -46 3 -127 -36 -137 -24 -6
-61 2 -81 18 -27 21 -5 118 29 131 32 13 78 6 88 -12z"/>
<path d="M4010 5810 c-27 -27 -40 -62 -40 -106 0 -28 6 -38 33 -54 46 -29 117
-27 145 3 42 45 18 137 -42 162 -48 20 -72 19 -96 -5z m115 -31 c5 -5 9 -33
10 -61 0 -48 -2 -53 -27 -62 -32 -11 -94 13 -105 40 -12 31 10 88 37 95 28 8
70 2 85 -12z"/>
<path d="M3709 5744 c-32 -21 -67 -71 -75 -110 -8 -42 24 -78 82 -93 52 -13
79 -8 111 22 64 58 17 198 -66 197 -14 0 -38 -8 -52 -16z m99 -40 c26 -29 29
-79 6 -112 -17 -25 -61 -29 -113 -11 -48 17 -41 69 17 132 30 31 55 29 90 -9z"/>
<path d="M90 7465 c0 -42 3 -55 15 -55 12 0 15 13 15 55 0 42 -3 55 -15 55
-12 0 -15 -13 -15 -55z"/>
<path d="M8427 7505 c-151 -29 -339 -106 -402 -165 -16 -15 -69 -55 -117 -89
-145 -102 -225 -215 -320 -456 -45 -116 -52 -144 -64 -255 -6 -69 -19 -153
-28 -186 -46 -178 5 -404 134 -594 62 -91 97 -127 185 -193 159 -119 296 -167
482 -167 88 0 116 -5 214 -35 93 -30 118 -34 142 -25 17 5 45 10 63 10 17 0
54 11 81 25 26 14 88 37 138 51 157 45 242 101 391 256 110 116 176 208 240
337 202 406 152 881 -125 1183 -60 65 -181 150 -238 167 -21 7 -78 32 -128 57
-135 67 -220 85 -410 90 -113 2 -183 -1 -238 -11z m462 -40 c228 -60 405 -152
536 -280 71 -69 90 -95 134 -185 30 -61 61 -145 75 -200 23 -94 42 -261 27
-244 -4 5 -21 50 -36 99 -40 126 -152 344 -229 446 -154 204 -307 306 -516
345 -126 24 -420 29 -519 10 -47 -8 -86 -14 -89 -12 -5 5 83 34 139 46 24 5
118 8 209 6 141 -3 180 -7 269 -31z m-44 -50 c330 -57 474 -181 686 -590 82
-157 104 -236 103 -360 -2 -122 -22 -203 -99 -391 -100 -246 -151 -318 -290
-402 -44 -27 -119 -74 -167 -104 -148 -94 -284 -157 -365 -169 -203 -30 -507
63 -718 218 -124 92 -185 166 -266 325 -161 318 -191 519 -120 800 41 162 101
275 202 382 161 170 360 275 582 306 87 12 344 4 452 -15z m-1285 -1083 c37
-174 98 -326 203 -502 70 -117 67 -113 150 -183 95 -81 190 -142 283 -182 l79
-35 -62 0 c-210 0 -491 193 -605 415 -65 128 -89 210 -95 335 -5 95 11 259 24
247 2 -3 13 -46 23 -95z m2077 -54 c-3 -8 -6 -5 -6 6 -1 11 2 17 5 13 3 -3 4
-12 1 -19z m-36 -105 c-12 -20 -14 -14 -5 12 4 9 9 14 11 11 3 -2 0 -13 -6
-23z m-30 -70 c-11 -21 -20 -35 -21 -31 0 12 33 78 38 74 2 -2 -6 -21 -17 -43z
m-362 -496 c-31 -29 -92 -72 -136 -95 -99 -51 -119 -55 -38 -7 33 20 96 62
140 94 44 33 82 59 85 60 3 0 -20 -23 -51 -52z"/>
<path d="M8680 6900 c-7 -14 -7 -26 -1 -39 22 -40 91 -30 91 13 0 44 -70 64
-90 26z"/>
<path d="M8470 6890 c-24 -24 -24 -30 -7 -55 27 -36 110 17 93 60 -8 22 -62
19 -86 -5z"/>
<path d="M8920 6840 c-25 -25 -25 -35 -1 -59 22 -22 51 -18 77 10 14 16 15 24
6 44 -14 31 -54 33 -82 5z"/>
<path d="M8283 6800 c-26 -11 -47 -46 -39 -66 9 -23 83 -18 96 7 26 49 -4 81
-57 59z"/>
<path d="M8554 6776 c-156 -36 -297 -161 -340 -302 -37 -123 54 -247 211 -289
60 -17 69 -17 132 -1 38 9 95 16 129 16 79 0 140 30 257 129 89 75 92 81 88
151 -1 14 -11 53 -22 87 -17 53 -30 72 -85 122 -36 32 -81 67 -100 76 -48 23
-192 29 -270 11z m250 -30 c47 -20 158 -132 184 -187 24 -50 29 -126 10 -151
-7 -8 -28 -25 -47 -38 -31 -21 -34 -22 -27 -5 57 149 -14 319 -156 374 -43 16
-48 20 -25 20 15 1 43 -5 61 -13z m-72 -17 c61 -16 128 -69 162 -129 76 -134
8 -294 -148 -347 -141 -48 -345 7 -392 105 -23 49 -23 165 0 209 41 81 148
169 211 176 47 5 115 -1 167 -14z m-356 -81 c-58 -79 -85 -186 -66 -259 23
-86 70 -127 185 -160 l60 -18 -56 0 c-80 -1 -149 22 -202 70 -99 86 -85 184
45 342 41 48 64 65 34 25z"/>
<path d="M9068 6675 c-16 -35 3 -75 36 -75 29 0 49 22 49 56 0 48 -65 63 -85
19z"/>
<path d="M8127 6612 c-10 -10 -17 -26 -17 -35 0 -21 35 -40 61 -32 26 9 51 48
43 69 -9 22 -66 21 -87 -2z"/>
<path d="M9131 6471 c-24 -24 -25 -34 -11 -62 12 -22 52 -25 69 -5 7 8 11 30
9 48 -4 41 -36 50 -67 19z"/>
<path d="M8084 6402 c-21 -14 -33 -46 -23 -64 19 -36 89 -9 89 33 0 31 -39 49
-66 31z"/>
<path d="M9016 6271 c-24 -27 -17 -55 15 -59 32 -4 61 23 57 52 -4 29 -48 33
-72 7z"/>
<path d="M8168 6199 c-22 -12 -23 -52 -3 -69 20 -17 62 -5 70 20 14 44 -26 73
-67 49z"/>
<path d="M8864 6180 c-26 -10 -39 -53 -24 -80 17 -31 68 -27 81 6 18 49 -14
90 -57 74z"/>
<path d="M8367 6102 c-22 -24 -21 -38 3 -62 29 -29 68 -26 82 6 11 24 9 29
-15 50 -34 29 -49 30 -70 6z"/>
<path d="M8647 6082 c-25 -28 -21 -60 8 -74 22 -10 29 -8 50 12 14 13 25 31
25 40 0 40 -54 54 -83 22z"/>
<path d="M9890 7425 c0 -42 3 -55 15 -55 12 0 15 13 15 55 0 42 -3 55 -15 55
-12 0 -15 -13 -15 -55z"/>
<path d="M6357 7422 c-24 -27 -22 -79 3 -87 34 -11 80 5 92 31 25 54 -55 101
-95 56z"/>
<path d="M90 7245 c0 -42 3 -55 15 -55 12 0 15 13 15 55 0 42 -3 55 -15 55
-12 0 -15 -13 -15 -55z"/>
<path d="M9890 7204 c0 -73 24 -70 28 4 2 42 0 52 -12 52 -13 0 -16 -12 -16
-56z"/>
<path d="M90 7025 c0 -42 3 -55 15 -55 12 0 15 13 15 55 0 42 -3 55 -15 55
-12 0 -15 -13 -15 -55z"/>
<path d="M9897 7043 c-4 -3 -7 -31 -7 -60 0 -70 24 -68 28 2 3 46 -7 73 -21
58z"/>
<path d="M6235 6950 c-98 -40 -113 -217 -24 -281 88 -63 230 -2 269 115 14 42
5 125 -13 130 -7 2 -44 13 -83 25 -74 22 -116 25 -149 11z m59 -19 c3 -4 -12
-13 -34 -20 -63 -19 -85 -76 -55 -147 26 -64 110 -80 176 -33 38 27 58 15 28
-17 -70 -74 -223 -33 -242 65 -13 66 11 110 78 145 34 18 42 19 49 7z m95 -30
c8 -5 14 -26 14 -51 0 -73 -61 -128 -128 -116 -34 7 -38 12 -50 74 -5 25 -2
39 12 54 35 40 117 61 152 39z m62 -28 c7 -18 8 -41 2 -62 -14 -58 -28 -46
-28 24 0 69 9 82 26 38z"/>
<path d="M97 6863 c-4 -3 -7 -31 -7 -60 0 -70 24 -68 28 2 3 46 -7 73 -21 58z"/>
<path d="M9897 6823 c-4 -3 -7 -31 -7 -60 0 -70 24 -68 28 2 3 46 -7 73 -21
58z"/>
<path d="M97 6643 c-4 -3 -7 -31 -7 -60 0 -70 24 -68 28 2 3 46 -7 73 -21 58z"/>
<path d="M9897 6603 c-4 -3 -7 -31 -7 -60 0 -70 24 -68 28 2 3 46 -7 73 -21
58z"/>
<path d="M1176 6579 c-13 -19 -13 -26 -1 -49 20 -38 40 -52 72 -48 17 2 33 13
42 30 14 25 14 29 -5 55 -28 38 -85 44 -108 12z"/>
<path d="M6261 6439 c-64 -11 -141 -43 -141 -59 0 -7 -26 -39 -59 -73 -91 -96
-135 -201 -135 -327 -1 -124 43 -182 164 -216 30 -9 82 -28 115 -41 51 -22 71
-25 140 -21 98 6 160 34 237 110 147 145 215 279 189 374 -13 47 -117 142
-196 180 -27 13 -61 33 -75 44 -25 20 -111 41 -159 39 -14 -1 -50 -5 -80 -10z
m89 -23 c0 -5 -73 -20 -145 -31 -31 -4 -36 -3 -22 5 29 18 167 39 167 26z m46
-35 c-7 -11 49 -25 64 -16 19 12 58 -4 65 -25 4 -11 37 -45 75 -75 80 -64 96
-100 84 -191 -8 -69 -27 -105 -105 -203 l-64 -80 -93 -22 c-205 -48 -348 5
-418 155 -49 107 -41 195 29 294 84 119 86 121 199 147 108 25 173 31 164 16z
m287 -124 c48 -44 59 -61 64 -94 6 -49 -19 -142 -48 -174 -15 -18 -19 -19 -15
-6 16 52 28 148 22 183 -6 31 -22 53 -84 113 -68 65 -72 71 -37 52 22 -11 66
-45 98 -74z m-655 -421 c21 -22 22 -26 7 -18 -29 15 -52 43 -70 85 -25 61 -16
76 11 17 14 -30 37 -68 52 -84z"/>
<path d="M97 6423 c-4 -3 -7 -31 -7 -60 0 -70 24 -68 28 2 3 46 -7 73 -21 58z"/>
<path d="M9897 6383 c-4 -3 -7 -31 -7 -60 0 -70 24 -68 28 2 3 46 -7 73 -21
58z"/>
<path d="M1157 6340 c-96 -33 -167 -66 -167 -79 0 -4 -22 -36 -50 -69 -28 -36
-52 -77 -56 -98 -17 -92 25 -233 91 -303 38 -40 46 -44 96 -46 30 -1 67 -8 83
-14 25 -10 42 -8 100 9 101 31 144 59 225 147 86 94 106 146 99 258 -8 123
-62 191 -169 214 -85 19 -157 13 -252 -19z m298 -25 c69 -28 115 -134 100
-228 -9 -53 -24 -83 -25 -48 0 14 -7 51 -16 82 -18 65 -60 119 -138 182 l-51
40 50 -8 c28 -4 64 -13 80 -20z m-124 -16 c46 -23 113 -91 147 -148 38 -64 38
-157 2 -196 -34 -36 -175 -133 -228 -157 -67 -30 -140 -29 -189 4 -91 60 -129
169 -104 301 21 107 44 142 114 177 65 31 155 51 197 42 14 -3 41 -13 61 -23z
m-400 -242 c-16 -96 1 -156 67 -229 23 -25 29 -37 17 -31 -78 42 -126 201 -94
313 17 61 24 26 10 -53z m456 -222 c-25 -22 -47 -32 -47 -21 0 5 63 46 70 46
3 -1 -8 -12 -23 -25z"/>
<path d="M97 6203 c-4 -3 -7 -31 -7 -60 0 -70 24 -68 28 2 3 46 -7 73 -21 58z"/>
<path d="M9892 6116 c2 -31 8 -56 13 -56 15 0 13 102 -3 108 -10 3 -12 -9 -10
-52z"/>
<path d="M95 5978 c-9 -24 -1 -103 10 -103 14 0 19 95 6 108 -7 7 -12 5 -16
-5z"/>
<path d="M9892 5896 c2 -31 8 -56 13 -56 15 0 13 102 -3 108 -10 3 -12 -9 -10
-52z"/>
<path d="M92 5716 c2 -31 8 -56 13 -56 15 0 13 102 -3 108 -10 3 -12 -9 -10
-52z"/>
<path d="M9892 5676 c2 -31 8 -56 13 -56 15 0 13 102 -3 108 -10 3 -12 -9 -10
-52z"/>
<path d="M92 5496 c2 -31 8 -56 13 -56 15 0 13 102 -3 108 -10 3 -12 -9 -10
-52z"/>
<path d="M9892 5456 c2 -31 8 -56 13 -56 15 0 13 102 -3 108 -10 3 -12 -9 -10
-52z"/>
<path d="M1195 5393 c-22 -3 -48 -12 -59 -21 -62 -56 -60 -193 4 -265 25 -28
34 -32 78 -31 66 2 100 20 136 71 34 49 46 134 26 182 -19 47 -95 74 -185 64z
m-24 -40 c-11 -21 -61 -70 -61 -60 0 7 60 77 66 77 3 0 0 -8 -5 -17z m162 -30
c26 -13 28 -17 22 -56 -16 -104 -48 -148 -109 -150 -98 -3 -153 107 -90 182
42 50 108 59 177 24z"/>
<path d="M92 5276 c2 -31 8 -56 13 -56 15 0 13 102 -3 108 -10 3 -12 -9 -10
-52z"/>
<path d="M9890 5235 c0 -42 3 -55 15 -55 12 0 15 13 15 55 0 42 -3 55 -15 55
-12 0 -15 -13 -15 -55z"/>
<path d="M92 5056 c2 -31 8 -56 13 -56 15 0 13 102 -3 108 -10 3 -12 -9 -10
-52z"/>
<path d="M9890 5015 c0 -42 3 -55 15 -55 12 0 15 13 15 55 0 42 -3 55 -15 55
-12 0 -15 -13 -15 -55z"/>
<path d="M6211 4914 c-24 -30 -25 -38 -11 -65 19 -35 120 -17 128 24 2 10 -4
29 -12 42 -23 35 -77 35 -105 -1z"/>
<path d="M90 4835 c0 -42 3 -55 15 -55 12 0 15 13 15 55 0 42 -3 55 -15 55
-12 0 -15 -13 -15 -55z"/>
<path d="M9890 4795 c0 -42 3 -55 15 -55 12 0 15 13 15 55 0 42 -3 55 -15 55
-12 0 -15 -13 -15 -55z"/>
<path d="M1029 4754 c-161 -29 -219 -63 -370 -220 -98 -103 -127 -156 -158
-294 -12 -52 -36 -135 -54 -185 -30 -84 -32 -99 -32 -220 0 -117 3 -138 28
-213 33 -95 72 -151 142 -205 73 -55 209 -122 311 -153 83 -26 101 -28 280
-28 l192 -1 144 72 c222 110 346 213 490 404 51 68 71 106 98 185 30 87 34
112 34 204 0 89 -4 117 -27 185 -94 269 -282 421 -583 469 -125 20 -387 20
-495 0z m431 -30 c170 -35 289 -102 415 -235 57 -60 76 -89 102 -154 43 -111
57 -188 51 -298 -6 -110 -27 -166 -124 -335 -86 -150 -121 -192 -208 -250 -90
-60 -305 -150 -410 -170 -101 -20 -170 -9 -321 51 -60 24 -142 56 -182 71
-210 80 -282 228 -284 585 0 152 7 184 75 304 112 202 225 341 312 385 133 68
373 87 574 46z m196 -24 c164 -56 305 -175 382 -322 96 -186 97 -360 2 -548
-28 -55 -115 -180 -126 -180 -3 0 4 13 16 30 36 50 99 193 115 261 33 140 5
312 -76 472 -49 95 -199 219 -337 278 -78 33 -63 38 24 9z m-1006 -236 c-6
-14 -24 -46 -41 -71 -17 -24 -42 -63 -56 -86 -22 -38 -24 -39 -18 -12 7 33 38
89 84 153 36 48 45 53 31 16z m-181 -565 c2 -103 29 -230 66 -306 60 -121 152
-187 385 -273 63 -24 117 -45 120 -48 11 -11 -116 11 -167 29 -72 25 -219 102
-279 148 -95 72 -143 175 -152 327 -5 107 7 244 19 204 4 -14 7 -50 8 -81z"/>
<path d="M1160 4634 c-52 -10 -156 -47 -188 -66 -74 -45 -221 -241 -286 -379
-61 -131 -80 -210 -80 -349 -1 -157 12 -200 84 -270 108 -106 266 -164 445
-163 177 2 343 56 506 165 147 98 224 203 254 345 53 259 55 322 10 398 -33
58 -91 105 -188 156 -44 23 -102 59 -130 79 -75 57 -160 82 -292 86 -60 1
-121 0 -135 -2z m328 -54 c35 -12 62 -24 60 -25 -2 -2 -30 3 -63 10 -33 8
-102 19 -153 25 -114 13 -200 -3 -311 -55 -62 -30 -72 -32 -55 -14 26 29 83
57 152 74 86 22 288 14 370 -15z m-68 -30 c36 -6 95 -20 132 -31 57 -18 71
-27 90 -58 12 -20 51 -67 88 -106 56 -58 72 -84 99 -155 29 -75 32 -92 27
-150 -4 -36 -9 -95 -12 -131 -6 -63 -10 -72 -72 -154 -90 -121 -125 -153 -201
-187 -36 -17 -81 -41 -99 -55 -55 -41 -102 -55 -207 -61 -175 -8 -355 44 -454
133 -49 44 -114 170 -131 252 -15 71 -8 219 14 288 37 117 202 312 310 365
107 53 270 72 416 50z m351 -141 c60 -40 100 -82 126 -133 20 -38 20 -142 0
-206 l-15 -45 -1 42 c-1 23 -15 86 -33 140 -29 92 -35 102 -105 175 -40 42
-73 79 -73 83 0 8 35 -11 101 -56z m-1053 -735 c40 -79 94 -127 206 -181 50
-24 82 -42 71 -39 -86 21 -116 31 -158 53 -120 61 -188 159 -194 283 l-3 75
23 -65 c13 -36 38 -92 55 -126z"/>
<path d="M8515 4691 c-59 -27 -123 -77 -145 -113 -26 -43 -34 -118 -19 -180
23 -100 142 -188 252 -188 36 0 47 7 130 88 49 48 96 102 104 121 14 32 13 37
-19 99 -48 96 -84 142 -111 142 -12 0 -46 11 -75 25 -64 30 -66 30 -117 6z
m55 -11 c-8 -5 -22 -9 -30 -9 -10 0 -8 3 5 9 27 12 43 12 25 0z m134 -64 c51
-30 86 -85 86 -136 0 -42 -32 -101 -75 -138 -30 -27 -43 -32 -89 -32 -39 0
-60 -6 -79 -20 -24 -19 -29 -20 -54 -6 -32 16 -85 70 -102 103 -26 51 -6 175
35 213 60 57 195 65 278 16z m112 -198 c-19 -26 -20 -20 -5 19 6 15 13 22 16
16 2 -7 -3 -23 -11 -35z m-156 -153 c-21 -25 -48 -27 -69 -6 l-21 21 51 0 c44
0 50 -2 39 -15z"/>
<path d="M6295 4672 c-61 -4 -252 -41 -330 -63 -38 -12 -104 -38 -146 -59 -42
-21 -93 -43 -112 -49 -33 -11 -178 -111 -286 -197 -57 -44 -208 -206 -248
-264 -115 -168 -209 -452 -234 -703 -27 -268 36 -577 146 -721 37 -49 134
-118 295 -211 179 -104 236 -128 403 -177 186 -53 269 -67 400 -68 338 -1 690
92 935 247 149 94 310 242 404 369 130 179 218 439 218 648 0 299 -213 729
-449 910 -251 192 -735 356 -996 338z m290 -62 c286 -61 548 -183 737 -343
183 -156 326 -422 374 -697 18 -104 14 -191 -12 -295 -20 -81 -118 -280 -195
-396 -77 -117 -255 -296 -357 -359 -40 -25 -116 -76 -170 -114 -133 -93 -193
-122 -308 -145 -215 -43 -705 -55 -801 -19 -38 14 -86 40 -337 187 -138 80
-298 258 -382 423 -78 154 -94 302 -60 568 28 228 36 262 76 350 22 47 50 117
63 156 43 126 157 265 317 385 41 30 118 87 170 126 52 39 111 78 130 86 49
21 230 77 320 98 99 24 294 19 435 -11z m-995 -218 c-195 -152 -289 -250 -365
-380 -51 -86 -135 -331 -164 -477 -42 -210 -50 -409 -20 -532 31 -128 133
-296 263 -431 92 -95 157 -145 301 -227 128 -73 89 -62 -90 24 -154 75 -331
187 -389 247 -47 48 -110 175 -138 279 -19 69 -22 108 -22 280 -1 171 2 217
22 313 43 211 132 434 226 566 57 80 243 258 331 318 77 52 99 62 45 20z
m2039 -1356 c-79 -220 -244 -420 -468 -570 -76 -51 -302 -174 -281 -153 3 2
70 49 150 102 346 234 430 324 571 607 29 59 55 106 56 104 2 -2 -10 -42 -28
-90z m-1171 -833 c-10 -2 -26 -2 -35 0 -10 3 -2 5 17 5 19 0 27 -2 18 -5z
m-115 -10 c-29 -2 -77 -2 -105 0 -29 2 -6 3 52 3 58 0 81 -1 53 -3z"/>
<path d="M6275 3964 c-222 -46 -361 -113 -454 -221 -49 -56 -103 -165 -122
-243 -58 -244 62 -488 295 -600 253 -122 571 -76 755 109 215 215 249 572 76
793 -37 48 -58 63 -132 98 -48 23 -115 48 -148 55 -55 13 -222 18 -270 9z
m380 -119 c93 -46 114 -61 138 -97 34 -53 64 -149 73 -232 15 -145 -59 -351
-159 -443 -182 -166 -488 -213 -700 -107 -157 79 -247 226 -247 402 1 98 13
150 56 238 105 212 315 312 629 298 96 -4 103 -6 210 -59z"/>
<path d="M6358 3818 c-9 -7 -20 -33 -23 -58 -7 -51 9 -75 61 -89 90 -25 139
89 62 143 -27 19 -78 21 -100 4z m100 -41 c28 -58 -10 -102 -65 -75 -35 17
-40 47 -12 82 27 34 59 31 77 -7z"/>
<path d="M6095 3756 c-35 -15 -85 -70 -85 -93 0 -8 13 -28 29 -44 25 -25 37
-29 83 -29 66 0 93 18 103 66 8 46 -9 88 -41 103 -32 14 -52 13 -89 -3z m99
-59 c14 -54 0 -71 -58 -75 -48 -3 -96 17 -96 39 0 6 16 27 35 46 29 29 40 34
72 31 35 -3 39 -6 47 -41z"/>
<path d="M6632 3650 c-73 -53 -81 -113 -19 -150 42 -26 91 -26 118 1 18 18 20
28 14 67 -8 54 -34 106 -56 110 -8 1 -34 -11 -57 -28z m77 -27 c5 -10 10 -38
12 -63 l4 -45 -42 -3 c-32 -2 -47 2 -62 17 -27 27 -26 43 5 80 29 35 68 41 83
14z"/>
<path d="M5923 3509 c-39 -11 -83 -62 -83 -95 0 -17 9 -30 29 -42 17 -9 32
-25 35 -34 5 -20 55 -25 87 -8 25 14 49 62 49 99 0 36 -19 81 -34 81 -6 0 -20
2 -31 4 -11 3 -34 0 -52 -5z m81 -45 c12 -31 6 -74 -14 -94 -21 -21 -50 -27
-50 -10 0 6 -6 10 -14 10 -8 0 -24 8 -36 18 -28 23 -22 63 12 80 36 17 95 15
102 -4z"/>
<path d="M6573 3324 c-22 -22 -25 -32 -20 -67 16 -118 167 -115 167 3 0 55
-31 90 -81 90 -30 0 -47 -7 -66 -26z m102 -10 c13 -14 14 -19 3 -26 -10 -8
-10 -11 0 -15 18 -7 15 -60 -4 -67 -33 -13 -63 -5 -83 20 -27 34 -26 50 4 79
28 29 57 32 80 9z"/>
<path d="M6009 3197 c-89 -60 -45 -167 71 -169 63 -1 90 30 90 103 0 48 -4 60
-22 73 -33 24 -99 20 -139 -7z m131 -22 c18 -22 5 -86 -22 -108 -26 -22 -69
-17 -108 12 -35 26 -36 47 -2 81 25 24 39 30 75 30 28 0 49 -6 57 -15z"/>
<path d="M6342 3185 c-46 -20 -79 -93 -61 -137 17 -42 51 -63 79 -48 11 6 28
10 38 9 35 -3 43 2 58 38 13 29 14 44 5 73 -19 64 -64 88 -119 65z m84 -50
c13 -21 15 -31 6 -50 -15 -33 -55 -57 -88 -53 -34 4 -49 27 -40 61 16 64 91
89 122 42z"/>
<path d="M90 4615 c0 -42 3 -55 15 -55 12 0 15 13 15 55 0 42 -3 55 -15 55
-12 0 -15 -13 -15 -55z"/>
<path d="M9890 4575 c0 -42 3 -55 15 -55 12 0 15 13 15 55 0 42 -3 55 -15 55
-12 0 -15 -13 -15 -55z"/>
<path d="M90 4395 c0 -42 3 -55 15 -55 12 0 15 13 15 55 0 42 -3 55 -15 55
-12 0 -15 -13 -15 -55z"/>
<path d="M3859 4417 c-8 -6 -23 -24 -33 -39 -15 -23 -16 -31 -4 -55 19 -40 60
-58 95 -41 42 20 59 58 48 105 -9 36 -13 38 -50 40 -22 2 -47 -3 -56 -10z"/>
<path d="M9890 4355 c0 -42 3 -55 15 -55 12 0 15 13 15 55 0 42 -3 55 -15 55
-12 0 -15 -13 -15 -55z"/>
<path d="M90 4175 c0 -42 3 -55 15 -55 12 0 15 13 15 55 0 42 -3 55 -15 55
-12 0 -15 -13 -15 -55z"/>
<path d="M9890 4135 c0 -42 3 -55 15 -55 12 0 15 13 15 55 0 42 -3 55 -15 55
-12 0 -15 -13 -15 -55z"/>
<path d="M8533 4090 c-47 -19 -38 -101 13 -120 33 -13 54 -7 84 25 l22 24 -21
34 c-12 19 -31 37 -44 41 -27 7 -26 7 -54 -4z"/>
<path d="M90 3955 c0 -42 3 -55 15 -55 12 0 15 13 15 55 0 42 -3 55 -15 55
-12 0 -15 -13 -15 -55z"/>
<path d="M9890 3915 c0 -42 3 -55 15 -55 12 0 15 13 15 55 0 42 -3 55 -15 55
-12 0 -15 -13 -15 -55z"/>
<path d="M8570 3847 c-43 -14 -114 -84 -124 -121 -10 -42 15 -73 76 -91 111
-33 198 -5 198 63 0 34 -43 142 -61 153 -18 11 -45 10 -89 -4z m90 -72 c0 -57
-32 -105 -69 -105 -11 0 -41 68 -41 93 0 34 19 47 67 47 43 0 43 0 43 -35z
m-153 -33 c-2 -21 0 -46 5 -55 8 -15 6 -16 -16 -5 -30 13 -32 29 -9 69 23 38
27 37 20 -9z m193 -34 c0 -27 -28 -58 -51 -58 -17 0 -16 4 6 36 14 20 25 41
25 46 0 5 5 6 10 3 6 -3 10 -16 10 -27z"/>
<path d="M90 3735 c0 -42 3 -55 15 -55 12 0 15 13 15 55 0 42 -3 55 -15 55
-12 0 -15 -13 -15 -55z"/>
<path d="M9890 3695 c0 -42 3 -55 15 -55 12 0 15 13 15 55 0 42 -3 55 -15 55
-12 0 -15 -13 -15 -55z"/>
<path d="M3691 3645 c-179 -51 -268 -150 -290 -322 -23 -188 54 -345 207 -420
55 -27 62 -28 202 -27 125 1 153 5 205 24 70 27 149 98 228 203 45 62 51 77
55 129 3 32 -1 78 -7 101 -18 61 -123 228 -159 253 -82 56 -332 89 -441 59z
m233 -15 c68 -10 176 -51 196 -74 5 -7 -23 -1 -63 12 -58 21 -91 25 -172 25
-175 -1 -308 -45 -379 -124 -54 -60 -71 -121 -63 -223 12 -154 56 -210 242
-314 l60 -33 -47 5 c-104 12 -189 81 -248 200 -25 50 -30 71 -30 135 0 184 74
311 209 362 95 35 187 44 295 29z m181 -105 c78 -40 93 -62 106 -165 15 -122
5 -201 -38 -283 -42 -79 -89 -122 -157 -142 -58 -17 -194 -20 -249 -4 -44 12
-185 104 -240 157 -93 90 -85 285 16 390 65 68 123 81 347 79 151 -2 157 -3
215 -32z m151 -160 c18 -43 18 -140 -1 -180 -13 -28 -13 -25 -14 55 -1 47 -4
102 -7 123 -8 46 2 48 22 2z"/>
<path d="M90 3515 c0 -42 3 -55 15 -55 12 0 15 13 15 55 0 42 -3 55 -15 55
-12 0 -15 -13 -15 -55z"/>
<path d="M9890 3475 c0 -42 3 -55 15 -55 12 0 15 13 15 55 0 42 -3 55 -15 55
-12 0 -15 -13 -15 -55z"/>
<path d="M90 3295 c0 -42 3 -55 15 -55 12 0 15 13 15 55 0 42 -3 55 -15 55
-12 0 -15 -13 -15 -55z"/>
<path d="M9897 3314 c-4 -4 -7 -32 -7 -61 0 -70 24 -68 28 2 3 46 -7 73 -21
59z"/>
<path d="M90 3074 c0 -73 24 -70 28 4 2 42 0 52 -12 52 -13 0 -16 -12 -16 -56z"/>
<path d="M9897 3094 c-4 -4 -7 -32 -7 -61 0 -70 24 -68 28 2 3 46 -7 73 -21
59z"/>
<path d="M97 2914 c-4 -4 -7 -32 -7 -61 0 -70 24 -68 28 2 3 46 -7 73 -21 59z"/>
<path d="M9897 2874 c-4 -4 -7 -32 -7 -61 0 -70 24 -68 28 2 3 46 -7 73 -21
59z"/>
<path d="M8465 2809 c-189 -28 -547 -297 -668 -500 -55 -94 -99 -236 -105
-341 -4 -76 -1 -100 23 -175 33 -108 106 -253 137 -273 13 -8 47 -29 76 -47
29 -18 73 -54 97 -81 47 -52 124 -96 234 -131 104 -34 186 -44 310 -38 190 8
307 62 506 233 49 42 107 88 128 101 32 20 48 43 89 131 116 248 132 355 79
524 -16 51 -35 113 -41 138 -8 32 -28 62 -66 102 -30 31 -54 66 -54 77 0 12
-26 41 -72 78 -112 90 -132 102 -220 134 -166 61 -334 86 -453 68z m348 -64
c194 -56 346 -163 387 -272 11 -29 31 -75 44 -101 82 -163 66 -498 -35 -710
-24 -50 -55 -90 -123 -158 -107 -107 -164 -138 -342 -185 -105 -28 -135 -32
-259 -33 -240 -1 -336 35 -486 184 -81 80 -123 162 -149 290 -44 213 -50 402
-17 498 41 118 197 302 301 354 34 16 86 45 117 64 68 41 172 81 242 94 82 14
221 4 320 -25z m516 -490 c67 -202 61 -277 -38 -485 -22 -47 -41 -82 -41 -79
0 3 14 46 32 95 27 77 32 106 36 216 5 137 -8 254 -38 351 -12 39 -14 55 -6
46 7 -8 32 -72 55 -144z m-1459 111 c0 -2 -8 -10 -17 -17 -16 -13 -17 -12 -4
4 13 16 21 21 21 13z m-52 -93 c-54 -147 2 -634 84 -739 21 -26 21 -26 1 -16
-36 20 -85 84 -119 156 -78 165 -89 308 -36 463 30 87 77 193 87 193 2 0 -6
-26 -17 -57z m992 -968 c0 -2 -18 -14 -40 -25 -57 -29 -188 -44 -275 -32 l-70
9 92 2 c90 1 214 20 263 40 31 12 30 12 30 6z"/>
<path d="M8431 2619 c-120 -20 -251 -103 -331 -209 -152 -200 -174 -335 -96
-605 13 -44 29 -100 36 -124 9 -33 29 -61 73 -106 104 -102 260 -163 387 -152
145 14 257 29 290 39 49 15 239 130 272 165 68 71 111 221 111 383 0 172 -28
246 -155 407 -35 44 -67 88 -73 97 -5 9 -49 30 -96 46 -158 53 -320 76 -418
59z m108 -26 c19 -5 8 -12 -60 -37 -172 -65 -305 -154 -393 -262 -26 -31 -46
-53 -46 -49 0 27 76 141 130 195 109 110 275 179 369 153z m216 -47 c80 -21
149 -61 220 -127 120 -113 193 -308 165 -442 -13 -64 -95 -200 -163 -269 -113
-115 -395 -202 -574 -177 -108 15 -177 59 -280 178 -83 97 -103 137 -110 220
-16 196 63 351 247 482 178 127 351 174 495 135z m364 -734 c-14 -66 -76 -163
-131 -203 -101 -73 -219 -117 -389 -144 -85 -13 -118 -14 -174 -5 -137 21
-288 118 -337 215 l-21 40 47 -52 c93 -103 234 -173 351 -173 109 0 294 49
415 110 101 51 136 84 192 179 29 50 54 89 55 87 2 -2 -2 -26 -8 -54z"/>
<path d="M97 2694 c-4 -4 -7 -32 -7 -61 0 -70 24 -68 28 2 3 46 -7 73 -21 59z"/>
<path d="M3692 2642 c-29 -11 -55 -22 -58 -25 -11 -10 -17 -94 -10 -132 4 -19
21 -51 37 -70 103 -117 351 28 285 167 -9 19 -30 42 -47 52 -46 27 -142 31
-207 8z m132 -26 c63 -26 93 -95 65 -148 -13 -25 -84 -57 -125 -58 -37 0 -80
38 -89 79 -9 43 20 106 58 125 40 19 49 20 91 2z m-151 -30 c-10 -13 -20 -20
-21 -15 -5 12 17 39 30 39 5 0 1 -11 -9 -24z m257 -40 c0 -6 -7 -2 -15 8 -8
11 -15 25 -15 30 0 6 7 2 15 -8 8 -11 15 -25 15 -30z"/>
<path d="M9897 2654 c-4 -4 -7 -32 -7 -61 0 -70 24 -68 28 2 3 46 -7 73 -21
59z"/>
<path d="M1100 2590 c-90 -15 -131 -31 -204 -80 -92 -62 -128 -102 -156 -177
-28 -71 -38 -199 -20 -243 18 -42 123 -137 168 -150 56 -18 240 -24 301 -11
80 17 193 68 239 107 48 40 108 152 118 220 10 68 -11 126 -70 193 -28 32 -62
73 -76 91 -41 52 -165 73 -300 50z m215 -49 c120 -42 156 -95 163 -236 6 -125
-6 -163 -63 -198 -25 -16 -43 -33 -40 -37 8 -13 -57 -59 -117 -82 -39 -16 -83
-22 -168 -25 l-115 -5 -37 31 c-20 17 -49 57 -65 89 -25 51 -28 67 -27 157 1
190 72 292 227 325 60 13 177 4 242 -19z m-476 -177 c-54 -134 -42 -240 42
-345 17 -22 29 -43 25 -46 -11 -12 -101 53 -134 97 -34 45 -34 45 -29 130 3
54 12 102 25 132 22 49 94 137 100 120 1 -5 -12 -45 -29 -88z m681 -78 c0 -65
-6 -56 -13 19 -4 39 -3 54 3 45 5 -8 10 -37 10 -64z"/>
<path d="M97 2474 c-4 -4 -7 -32 -7 -61 0 -70 24 -68 28 2 3 46 -7 73 -21 59z"/>
<path d="M9895 2428 c-9 -24 -1 -103 10 -103 14 0 19 95 6 108 -7 7 -12 5 -16
-5z"/>
<path d="M3745 2284 c-24 -24 -15 -66 17 -82 59 -28 118 40 68 80 -28 22 -63
23 -85 2z"/>
<path d="M97 2254 c-4 -4 -7 -32 -7 -61 0 -70 24 -68 28 2 3 46 -7 73 -21 59z"/>
<path d="M9892 2166 c2 -31 8 -56 13 -56 15 0 13 102 -3 108 -10 3 -12 -9 -10
-52z"/>
<path d="M92 1986 c2 -31 8 -56 13 -56 15 0 13 102 -3 108 -10 3 -12 -9 -10
-52z"/>
<path d="M9892 1946 c2 -31 8 -56 13 -56 15 0 13 102 -3 108 -10 3 -12 -9 -10
-52z"/>
<path d="M3641 1974 c-72 -15 -233 -91 -330 -155 -80 -53 -187 -153 -208 -193
-9 -17 -31 -48 -50 -69 -19 -22 -51 -73 -72 -115 -20 -43 -58 -115 -83 -162
-48 -89 -69 -160 -89 -297 -14 -104 -3 -175 53 -327 56 -155 112 -208 288
-275 30 -12 114 -50 185 -86 109 -54 159 -72 310 -111 167 -42 187 -45 275
-41 182 9 481 119 573 210 71 71 200 244 228 306 15 32 43 82 62 110 48 69 61
133 55 272 -5 133 -37 238 -109 366 -42 74 -71 106 -256 284 -128 124 -226
171 -500 243 -202 53 -248 59 -332 40z m334 -58 c176 -46 201 -58 105 -49 -41
5 -140 8 -220 7 -120 -1 -163 -5 -250 -27 -217 -53 -326 -113 -464 -252 -89
-90 -96 -96 -75 -55 36 67 153 185 244 246 86 57 196 111 305 150 86 32 181
26 355 -20z m150 -80 c137 -31 332 -144 409 -239 96 -118 166 -307 174 -468 5
-117 -25 -353 -59 -465 -23 -75 -84 -168 -136 -210 -63 -51 -214 -145 -279
-175 -122 -56 -309 -87 -412 -69 -31 5 -111 17 -177 25 -145 18 -161 23 -300
94 -85 44 -125 71 -181 126 -199 196 -284 516 -217 817 17 78 64 149 172 261
160 166 351 272 564 313 91 17 344 11 442 -10z m145 -22 c25 -14 34 -22 20
-18 -27 7 -91 44 -75 43 6 0 30 -11 55 -25z m424 -404 c75 -127 116 -275 116
-423 0 -105 -10 -138 -65 -223 -53 -82 -55 -75 -25 96 40 230 21 372 -79 595
-30 68 -30 69 -5 40 14 -16 40 -55 58 -85z m-1790 -230 c-49 -231 38 -517 224
-738 l45 -54 -62 31 c-78 40 -134 90 -183 165 -94 145 -117 330 -64 519 30
109 45 152 50 146 2 -2 -2 -33 -10 -69z m1551 -816 c-45 -40 -196 -125 -220
-124 -6 1 8 10 30 22 56 28 132 76 184 115 62 47 65 40 6 -13z"/>
<path d="M3681 1401 c-39 -39 -19 -70 35 -57 21 6 25 12 22 39 -4 39 -28 47
-57 18z"/>
<path d="M3968 1409 c-32 -12 -43 -40 -28 -69 23 -43 90 -9 90 46 0 17 -22 39
-33 33 -1 0 -14 -5 -29 -10z"/>
<path d="M3760 1287 c-89 -25 -157 -82 -180 -153 -25 -74 10 -245 59 -295 34
-34 114 -59 208 -66 64 -5 79 -3 127 21 100 49 170 154 169 253 0 73 -25 109
-116 170 -104 70 -187 92 -267 70z m5 -33 c-48 -18 -77 -44 -121 -109 -35 -52
-44 -48 -20 8 22 54 110 117 161 116 12 0 3 -7 -20 -15z m152 -25 c28 -13 52
-35 68 -62 25 -42 25 -42 25 -13 0 17 -10 40 -22 54 l-23 25 33 -19 c43 -25
82 -83 89 -133 19 -144 -210 -312 -336 -246 -74 38 -142 158 -127 222 20 80
89 154 168 178 60 19 75 18 125 -6z m156 -316 c-31 -50 -102 -97 -163 -107
-34 -6 -34 -5 6 9 53 20 115 73 151 130 18 30 29 40 31 29 2 -9 -9 -36 -25
-61z m-405 -43 c16 -21 18 -28 7 -24 -14 6 -35 34 -35 48 0 11 6 6 28 -24z"/>
<path d="M3504 1243 c-18 -13 -36 -54 -30 -69 7 -19 51 -18 71 2 22 23 16 68
-10 72 -11 1 -25 -1 -31 -5z"/>
<path d="M4184 1235 c-9 -22 4 -62 22 -69 39 -15 73 41 42 72 -17 17 -57 15
-64 -3z"/>
<path d="M3477 983 c-12 -11 -8 -50 7 -62 7 -6 20 -9 29 -5 17 6 31 49 22 64
-7 11 -48 13 -58 3z"/>
<path d="M4210 940 c-24 -24 -25 -43 -5 -60 34 -28 83 31 54 66 -15 19 -25 18
-49 -6z"/>
<path d="M3573 793 c-7 -2 -13 -16 -13 -29 0 -31 42 -53 65 -34 21 18 19 36
-7 54 -24 17 -26 17 -45 9z"/>
<path d="M4045 750 c-16 -18 -17 -23 -5 -45 15 -28 37 -32 65 -11 16 12 18 19
10 43 -13 35 -45 41 -70 13z"/>
<path d="M3810 674 c-14 -36 -13 -42 10 -54 26 -14 58 2 66 35 8 33 -2 45 -37
45 -22 0 -32 -6 -39 -26z"/>
<path d="M92 1766 c2 -31 8 -56 13 -56 15 0 13 102 -3 108 -10 3 -12 -9 -10
-52z"/>
<path d="M9892 1726 c2 -31 8 -56 13 -56 15 0 13 102 -3 108 -10 3 -12 -9 -10
-52z"/>
<path d="M6350 1658 c0 -16 -45 -28 -105 -28 -57 0 -148 -30 -194 -64 -25 -19
-75 -47 -111 -64 -78 -35 -121 -79 -189 -189 -42 -70 -52 -97 -65 -173 -31
-178 -16 -251 71 -330 57 -54 127 -85 255 -116 57 -13 128 -32 158 -41 113
-34 253 -12 400 62 77 39 88 50 175 183 65 97 68 105 68 160 -1 31 -8 77 -17
101 -9 24 -16 73 -16 110 0 48 -7 80 -24 117 -48 103 -118 159 -276 219 -52
20 -103 44 -112 53 -16 13 -18 13 -18 0z m11 -74 c133 -40 236 -108 292 -193
81 -121 90 -147 84 -224 -12 -179 -176 -371 -376 -441 -69 -24 -224 -33 -275
-16 -89 29 -215 157 -272 275 -46 94 -51 145 -28 253 l19 87 75 75 c86 85 158
131 268 171 89 32 137 35 213 13z m239 -66 c86 -57 150 -149 150 -216 0 -21
-12 -8 -58 63 -32 50 -84 114 -116 143 -32 28 -53 52 -48 52 5 0 38 -19 72
-42z m-851 -335 c-11 -76 -11 -83 16 -168 26 -80 36 -97 102 -172 41 -45 84
-90 96 -99 22 -16 22 -16 -8 -9 -16 3 -53 17 -80 29 -173 78 -221 240 -138
464 9 23 18 41 20 38 2 -2 -1 -40 -8 -83z m1037 -50 c18 -70 -47 -230 -129
-319 -58 -64 -139 -106 -249 -128 -106 -22 -151 -20 -73 3 89 26 131 46 199
95 100 71 184 199 217 327 14 55 25 62 35 22z"/>
<path d="M92 1546 c2 -31 8 -56 13 -56 15 0 13 102 -3 108 -10 3 -12 -9 -10
-52z"/>
<path d="M9892 1506 c2 -31 8 -56 13 -56 15 0 13 102 -3 108 -10 3 -12 -9 -10
-52z"/>
<path d="M1028 1494 c-58 -31 -75 -116 -35 -175 63 -94 178 -74 220 40 l21 54
-23 42 c-13 24 -32 46 -44 49 -40 10 -112 5 -139 -10z m138 -41 c29 -39 7
-105 -42 -123 -17 -7 -22 -14 -17 -26 5 -14 3 -16 -11 -11 -10 4 -27 7 -39 7
-20 0 -20 0 -1 15 19 14 18 14 -3 15 -13 0 -30 11 -39 25 -48 74 98 168 152
98z"/>
<path d="M92 1326 c2 -31 8 -56 13 -56 15 0 13 102 -3 108 -10 3 -12 -9 -10
-52z"/>
<path d="M9890 1285 c0 -42 3 -55 15 -55 12 0 15 13 15 55 0 42 -3 55 -15 55
-12 0 -15 -13 -15 -55z"/>
<path d="M90 1106 c0 -44 3 -56 16 -56 12 0 14 10 12 52 -4 74 -28 77 -28 4z"/>
<path d="M1038 1138 c-48 -37 -6 -108 64 -108 41 0 58 19 58 64 0 46 -81 75
-122 44z"/>
<path d="M9890 1065 c0 -42 3 -55 15 -55 12 0 15 13 15 55 0 42 -3 55 -15 55
-12 0 -15 -13 -15 -55z"/>
<path d="M90 885 c0 -42 3 -55 15 -55 12 0 15 13 15 55 0 42 -3 55 -15 55 -12
0 -15 -13 -15 -55z"/>
<path d="M8440 924 c-71 -19 -87 -35 -101 -103 -14 -67 3 -232 27 -269 51 -78
261 -74 341 6 42 41 83 125 83 167 0 38 -31 104 -61 132 -35 32 -127 70 -184
77 -30 3 -71 -1 -105 -10z m100 -19 c0 -2 -26 -22 -57 -43 -72 -49 -91 -70
-108 -119 l-13 -38 -7 28 c-12 48 4 98 45 139 34 34 43 38 89 38 28 0 51 -2
51 -5z m117 -35 c39 -24 61 -55 68 -101 l6 -34 -17 30 c-26 43 -29 10 -5 -39
29 -56 13 -92 -59 -128 -29 -16 -65 -28 -78 -28 -19 0 -23 -4 -19 -20 5 -18 0
-20 -51 -20 -39 0 -67 6 -89 20 -30 18 -33 24 -32 67 1 106 13 145 60 186 53
47 125 86 159 86 14 1 39 -8 57 -19z m113 -147 c0 -5 -5 -15 -10 -23 -8 -12
-10 -11 -10 8 0 12 5 22 10 22 6 0 10 -3 10 -7z"/>
<path d="M9890 845 c0 -42 3 -55 15 -55 12 0 15 13 15 55 0 42 -3 55 -15 55
-12 0 -15 -13 -15 -55z"/>
<path d="M90 665 c0 -42 3 -55 15 -55 12 0 15 13 15 55 0 42 -3 55 -15 55 -12
0 -15 -13 -15 -55z"/>
<path d="M9890 625 c0 -42 3 -55 15 -55 12 0 15 13 15 55 0 42 -3 55 -15 55
-12 0 -15 -13 -15 -55z"/>
<path d="M997 576 c-94 -34 -172 -118 -172 -186 0 -54 61 -169 102 -193 43
-24 125 -32 195 -18 138 29 190 119 158 272 -15 70 -40 106 -86 125 -42 18
-147 17 -197 0z m8 -36 c-3 -5 -28 -22 -54 -37 -46 -25 -50 -30 -61 -85 -15
-69 -30 -85 -30 -31 0 51 30 97 87 133 48 30 69 38 58 20z m177 -15 c70 -48
100 -164 58 -232 -32 -53 -91 -78 -185 -78 -103 0 -150 25 -160 84 -14 82 25
154 119 217 63 43 115 45 168 9z"/>
<path d="M6205 491 c-85 -38 -116 -112 -81 -196 28 -67 69 -76 195 -44 53 14
54 15 83 78 16 36 27 70 24 78 -3 7 -30 29 -61 48 -30 20 -55 40 -55 45 0 16
-62 11 -105 -9z m95 -26 c16 -8 38 -28 50 -45 19 -27 20 -35 10 -60 -19 -45
-32 -52 -80 -41 -84 19 -123 100 -71 143 28 22 53 23 91 3z m-140 -84 c0 -29
56 -79 95 -87 19 -3 52 -4 73 0 l37 5 -35 -16 c-19 -9 -58 -18 -87 -21 -45 -4
-55 -1 -77 21 -20 20 -26 36 -26 72 0 25 5 45 10 45 6 0 10 -9 10 -19z"/>
<path d="M90 445 c0 -42 3 -55 15 -55 12 0 15 13 15 55 0 42 -3 55 -15 55 -12
0 -15 -13 -15 -55z"/>
<path d="M9890 405 c0 -42 3 -55 15 -55 12 0 15 13 15 55 0 42 -3 55 -15 55
-12 0 -15 -13 -15 -55z"/>
<path d="M8525 411 c-25 -11 -51 -40 -59 -67 -5 -17 0 -27 20 -43 46 -36 113
-21 135 31 11 26 9 32 -16 58 -30 31 -45 35 -80 21z m-28 -83 c-3 -8 -6 -5 -6
6 -1 11 2 17 5 13 3 -3 4 -12 1 -19z"/>
<path d="M90 225 c0 -42 3 -55 15 -55 12 0 15 13 15 55 0 42 -3 55 -15 55 -12
0 -15 -13 -15 -55z"/>
<path d="M9890 185 c0 -42 3 -55 15 -55 12 0 15 13 15 55 0 42 -3 55 -15 55
-12 0 -15 -13 -15 -55z"/>
<path d="M140 95 c0 -12 13 -15 55 -15 42 0 55 3 55 15 0 12 -13 15 -55 15
-42 0 -55 -3 -55 -15z"/>
<path d="M360 95 c0 -12 13 -15 55 -15 42 0 55 3 55 15 0 12 -13 15 -55 15
-42 0 -55 -3 -55 -15z"/>
<path d="M580 94 c0 -12 10 -14 52 -12 74 4 77 28 4 28 -44 0 -56 -3 -56 -16z"/>
<path d="M795 100 c-3 -6 0 -13 8 -16 25 -9 100 0 105 14 5 15 -104 17 -113 2z"/>
<path d="M1015 100 c-3 -6 0 -13 8 -16 25 -9 100 0 105 14 5 15 -104 17 -113
2z"/>
<path d="M1235 100 c-3 -6 0 -13 8 -16 25 -9 100 0 105 14 5 15 -104 17 -113
2z"/>
<path d="M1455 100 c-3 -6 0 -13 8 -16 25 -9 100 0 105 14 5 15 -104 17 -113
2z"/>
<path d="M1672 98 c6 -16 108 -18 108 -3 0 6 -25 11 -56 13 -43 2 -55 0 -52
-10z"/>
<path d="M1892 98 c6 -16 108 -18 108 -3 0 6 -25 11 -56 13 -43 2 -55 0 -52
-10z"/>
<path d="M2112 98 c6 -16 108 -18 108 -3 0 6 -25 11 -56 13 -43 2 -55 0 -52
-10z"/>
<path d="M2332 98 c6 -16 108 -18 108 -3 0 6 -25 11 -56 13 -43 2 -55 0 -52
-10z"/>
<path d="M2552 98 c3 -8 26 -14 56 -16 42 -2 52 0 52 12 0 13 -12 16 -56 16
-40 0 -55 -4 -52 -12z"/>
<path d="M2770 95 c0 -12 13 -15 55 -15 42 0 55 3 55 15 0 12 -13 15 -55 15
-42 0 -55 -3 -55 -15z"/>
<path d="M2990 95 c0 -12 13 -15 55 -15 42 0 55 3 55 15 0 12 -13 15 -55 15
-42 0 -55 -3 -55 -15z"/>
<path d="M3210 95 c0 -12 13 -15 55 -15 42 0 55 3 55 15 0 12 -13 15 -55 15
-42 0 -55 -3 -55 -15z"/>
<path d="M3430 95 c0 -12 13 -15 55 -15 42 0 55 3 55 15 0 12 -13 15 -55 15
-42 0 -55 -3 -55 -15z"/>
<path d="M3650 95 c0 -12 13 -15 55 -15 42 0 55 3 55 15 0 12 -13 15 -55 15
-42 0 -55 -3 -55 -15z"/>
<path d="M3870 95 c0 -12 13 -15 55 -15 42 0 55 3 55 15 0 12 -13 15 -55 15
-42 0 -55 -3 -55 -15z"/>
<path d="M4090 95 c0 -12 13 -15 55 -15 42 0 55 3 55 15 0 12 -13 15 -55 15
-42 0 -55 -3 -55 -15z"/>
<path d="M4310 95 c0 -12 13 -15 55 -15 42 0 55 3 55 15 0 12 -13 15 -55 15
-42 0 -55 -3 -55 -15z"/>
<path d="M4525 100 c-3 -6 0 -13 8 -16 25 -9 100 0 105 14 5 15 -104 17 -113
2z"/>
<path d="M4745 100 c-3 -6 0 -13 8 -16 25 -9 100 0 105 14 5 15 -104 17 -113
2z"/>
<path d="M4965 100 c-3 -6 0 -13 8 -16 25 -9 100 0 105 14 5 15 -104 17 -113
2z"/>
<path d="M5185 100 c-3 -6 0 -13 8 -16 25 -9 100 0 105 14 5 15 -104 17 -113
2z"/>
<path d="M5405 100 c-3 -5 0 -13 8 -16 23 -8 102 0 102 11 0 14 -102 19 -110
5z"/>
<path d="M5622 98 c6 -16 108 -18 108 -3 0 6 -25 11 -56 13 -43 2 -55 0 -52
-10z"/>
<path d="M5842 98 c6 -16 108 -18 108 -3 0 6 -25 11 -56 13 -43 2 -55 0 -52
-10z"/>
<path d="M6062 98 c6 -16 108 -18 108 -3 0 6 -25 11 -56 13 -43 2 -55 0 -52
-10z"/>
<path d="M6282 98 c6 -16 108 -18 108 -3 0 6 -25 11 -56 13 -43 2 -55 0 -52
-10z"/>
<path d="M6500 95 c0 -12 13 -15 55 -15 42 0 55 3 55 15 0 12 -13 15 -55 15
-42 0 -55 -3 -55 -15z"/>
<path d="M6720 95 c0 -12 13 -15 55 -15 42 0 55 3 55 15 0 12 -13 15 -55 15
-42 0 -55 -3 -55 -15z"/>
<path d="M6940 95 c0 -12 13 -15 55 -15 42 0 55 3 55 15 0 12 -13 15 -55 15
-42 0 -55 -3 -55 -15z"/>
<path d="M7160 95 c0 -12 13 -15 55 -15 42 0 55 3 55 15 0 12 -13 15 -55 15
-42 0 -55 -3 -55 -15z"/>
<path d="M7380 95 c0 -12 13 -15 55 -15 42 0 55 3 55 15 0 12 -13 15 -55 15
-42 0 -55 -3 -55 -15z"/>
<path d="M7600 95 c0 -12 13 -15 55 -15 42 0 55 3 55 15 0 12 -13 15 -55 15
-42 0 -55 -3 -55 -15z"/>
<path d="M7820 95 c0 -12 13 -15 55 -15 42 0 55 3 55 15 0 12 -13 15 -55 15
-42 0 -55 -3 -55 -15z"/>
<path d="M8040 95 c0 -12 13 -15 55 -15 42 0 55 3 55 15 0 12 -13 15 -55 15
-42 0 -55 -3 -55 -15z"/>
<path d="M8260 95 c0 -12 13 -15 55 -15 42 0 55 3 55 15 0 12 -13 15 -55 15
-42 0 -55 -3 -55 -15z"/>
<path d="M8475 100 c-3 -6 0 -13 8 -16 25 -9 100 0 105 14 5 15 -104 17 -113
2z"/>
<path d="M8695 100 c-3 -6 0 -13 8 -16 25 -9 100 0 105 14 5 15 -104 17 -113
2z"/>
<path d="M8915 100 c-3 -6 0 -13 8 -16 25 -9 100 0 105 14 5 15 -104 17 -113
2z"/>
<path d="M9135 100 c-3 -6 0 -13 8 -16 25 -9 100 0 105 14 5 15 -104 17 -113
2z"/>
<path d="M9352 98 c6 -16 108 -18 108 -3 0 6 -25 11 -56 13 -43 2 -55 0 -52
-10z"/>
<path d="M9572 98 c6 -16 108 -18 108 -3 0 6 -25 11 -56 13 -43 2 -55 0 -52
-10z"/>
<path d="M9792 98 c6 -16 108 -18 108 -3 0 6 -25 11 -56 13 -43 2 -55 0 -52
-10z"/>
</g>
</svg>
